<?xml version="1.0" encoding="UTF-8"?>
<svg id="Layer_2" data-name="Layer 2" xmlns="http://www.w3.org/2000/svg" viewBox="0 0 1254 125">
  <defs>
    <style>
      .cls-1 {
        fill: none;
      }

      .cls-2 {
        fill: #faf9f7;
      }
    </style>
  </defs>
  <g id="Layer_1-2" data-name="Layer 1">
    <g>
      <rect class="cls-1" width="1254" height="125"/>
      <g>
        <g>
          <path class="cls-2" d="M198.46,22.45h30.5c15.6,0,26,10,26,25.3v.1c0,15.2-10.4,25.3-26,25.3h-15v23.3h-15.5V22.45Zm15.4,12.3v26.3h11.2c8.9,0,14.1-4.7,14.1-13.1v-.1c0-8.4-5.2-13.1-14.1-13.1h-11.2Z"/>
          <path class="cls-2" d="M263.46,40.05h15v8.8h.9c1.8-6.1,6.9-9.7,14.3-9.7,2,0,4.1,.3,5.6,.7v13.1c-2.3-.5-4.6-.9-6.9-.9-8.5,0-13.9,4.9-13.9,12.9v31.6h-15V40.05Z"/>
          <path class="cls-2" d="M300.96,68.25v-.1c0-18.2,10.6-29.4,27.8-29.4s27.8,11.1,27.8,29.4v.1c0,18.4-10.5,29.4-27.8,29.4s-27.8-11-27.8-29.4Zm40.3,0v-.1c0-11-4.6-17.6-12.5-17.6s-12.5,6.6-12.5,17.6v.1c0,11.1,4.5,17.6,12.5,17.6,7.9,0,12.5-6.5,12.5-17.6Z"/>
          <path class="cls-2" d="M361.76,68.25v-.1c0-18.1,8.6-29.1,22.9-29.1,7.7,0,14,3.8,16.9,9.9h.9V18.35h15V96.35h-15v-8.8h-.9c-2.9,6.1-8.9,9.6-16.9,9.6-14.1,.2-22.9-10.8-22.9-28.9Zm40.9,.1v-.1c0-10.4-5-16.7-12.9-16.7s-12.8,6.4-12.8,16.7v.1c0,10.4,4.9,16.7,12.8,16.7,8-.1,12.9-6.4,12.9-16.7Z"/>
          <path class="cls-2" d="M428.26,76.55V40.05h15v33.1c0,8,3,12.2,10.1,12.2s11.4-5,11.4-12.6V40.15h15v56.4h-15v-8.7h-.9c-2.6,6.2-8.3,9.9-16.4,9.9-12.7-.1-19.2-7.8-19.2-21.2Z"/>
          <path class="cls-2" d="M487.66,68.15v-.1c0-18.6,9.9-29.3,27.6-29.3,15,0,23.8,8.2,25.2,20.8v.2h-13.9l-.1-.1c-1-5.5-4.7-9.1-11.1-9.1-8,0-12.5,6.3-12.5,17.5v.1c0,11.4,4.5,17.7,12.5,17.7,6.2,0,9.8-2.9,11.1-8.6l.1-.2h13.8l-.1,.3c-1.5,12.3-10.4,20.2-25.1,20.2-17.5,.1-27.5-10.6-27.5-29.4Z"/>
          <path class="cls-2" d="M552.56,81.25v-29.9h-8.7v-11.3h8.7v-13.5h15.1v13.5h11.6v11.3h-11.6v26.5c0,5.1,2.2,7.3,7.2,7.3,1.9,0,3-.1,4.4-.3v11.1c-1.8,.4-4.6,.7-7.5,.7-13.7,0-19.2-4.4-19.2-15.4Z"/>
          <path class="cls-2" d="M611.86,22.45h29.1c22,0,34.7,13.3,34.7,36.5v.1c0,23.9-12.6,37.4-34.7,37.4h-29.1V22.45Zm26.7,61.2c13.7,0,21.4-8.6,21.4-24.4v-.1c0-15.2-7.9-23.9-21.4-23.9h-11.2v48.4s11.2,0,11.2,0Z"/>
          <path class="cls-2" d="M681.96,68.35h0c0-18,10.5-29.5,27-29.5s26.7,11.3,26.7,28.4v4.7h-38.9c.2,9.3,5.1,14.7,13.1,14.7,6.6,0,10.2-3.5,11.2-5.6l.2-.3h13.9l-.1,.5c-1.7,7.1-9,16.6-25.5,16.6-17.2-.2-27.6-11.4-27.6-29.5Zm14.9-5.9h24.4c-.9-8.2-5.6-12.4-12.1-12.4s-11.3,4.4-12.3,12.4Z"/>
          <path class="cls-2" d="M740.96,81.05l-.1-.2h14.7l.1,.2c1.2,3.5,4.6,6,10.5,6s9.6-2.5,9.6-6.2v-.1c0-3-2.3-4.9-8-6.2l-9.4-2c-10.8-2.3-16.1-7.6-16.1-16v-.1c0-10.6,9.4-17.7,23.5-17.7,14.8,0,23,7.4,23.6,16.5v.2h-13.9l-.1-.3c-.8-3-4.2-5.8-9.7-5.8-5.2,0-8.9,2.4-8.9,6.2v.1c0,3,2.1,4.8,7.9,6l9.4,2c11.3,2.4,16.6,7.1,16.6,15.5v.1c0,11.2-10.3,18.5-24.8,18.5-15.1-.1-23.8-7-24.9-16.7Z"/>
          <path class="cls-2" d="M798.06,23.05c0-4.7,3.8-8.4,8.5-8.4s8.4,3.7,8.4,8.4-3.8,8.3-8.4,8.3-8.5-3.7-8.5-8.3Zm.9,17h15v56.4h-15V40.05Z"/>
          <path class="cls-2" d="M823.76,100.15v-.3h14.8l.1,.2c.8,3.3,4.7,5.5,11.4,5.5,8,0,12.7-3.7,12.7-10.3v-10.5h-.9c-3.1,5.9-9.1,9.2-16.9,9.2-14.2,0-23-11-23-27v-.1c0-16.6,8.8-27.8,23.2-27.8,7.7,0,13.8,3.8,16.8,10.2h.7v-9.2h15v54.7c0,13.2-10.8,21.6-27.9,21.6-15.6,0-24.7-6.6-26-16.2Zm39.1-33.2v-.1c0-9.3-4.9-15.6-12.9-15.6s-12.7,6.3-12.7,15.6v.1c0,9.3,4.6,15.6,12.7,15.6s12.9-6.3,12.9-15.6Z"/>
          <path class="cls-2" d="M888.46,40.05h15v8.7h.9c2.6-6.1,8.2-9.9,16.2-9.9,12.6,0,19.3,7.7,19.3,21.2v36.5h-15V63.35c0-7.9-3.3-12.2-10.4-12.2s-11.1,5-11.1,12.6v32.7h-15V40.05h.1Z"/>
          <path class="cls-2" d="M947.36,68.35h0c0-18,10.5-29.5,27-29.5s26.7,11.3,26.7,28.4v4.7h-38.9c.2,9.3,5.1,14.7,13.1,14.7,6.6,0,10.2-3.5,11.2-5.6l.2-.3h13.9l-.1,.5c-1.7,7.1-9,16.6-25.5,16.6-17.2-.2-27.6-11.4-27.6-29.5Zm14.9-5.9h24.4c-.9-8.2-5.6-12.4-12.1-12.4-6.5,0-11.3,4.4-12.3,12.4Z"/>
          <path class="cls-2" d="M1008.96,40.05h15v8.8h.9c1.8-6.1,6.9-9.7,14.3-9.7,2,0,4.1,.3,5.6,.7v13.1c-2.3-.5-4.6-.9-6.9-.9-8.5,0-13.9,4.9-13.9,12.9v31.6h-15V40.05Z"/>
        </g>
        <path class="cls-2" d="M1078.66,70.15h-12.1c-2.2,0-4.1-1.9-4.1-4.1s1.9-4.1,4.1-4.1h12.1c2.2,0,4.1,1.9,4.1,4.1s-1.9,4.1-4.1,4.1Zm5.3-22.5l-8.4-8.4c-1.6-1.6-1.6-4.2,0-5.8s4.2-1.5,5.8,0l8.4,8.4c1.6,1.6,1.6,4.2,0,5.8-1.6,1.6-4.3,1.6-5.8,0Zm6.1,42.2l-8.4,8.4c-1.6,1.6-4.3,1.5-5.9-.1-1.5-1.6-1.5-4.2,.1-5.8l8.4-8.4c1.6-1.6,4.3-1.6,5.8,0,1.6,1.7,1.6,4.3,0,5.9Zm14-53.4v-12.1c0-2.2,1.9-4.1,4.1-4.1s4.1,1.9,4.1,4.1v12.1c0,2.2-1.9,4.1-4.1,4.1s-4.1-1.8-4.1-4.1Zm1.3,25.5c0-1.7,1.8-2.4,3-1.2l22.8,23.3c1.3,1.4,.4,3.1-1.4,3.2l-8.7,.2,7.3,16.7c.4,.9,.2,2-.8,2.4l-4.2,1.6c-1,.4-1.9-.2-2.3-1.1l-6.8-16.9-6,6.1c-1.2,1.2-3.3,.6-3.3-1.2l.4-33.1Zm20.8-19.7l8.4-8.4c1.6-1.6,4.3-1.6,5.8,0,1.6,1.6,1.6,4.3,0,5.8l-8.4,8.4c-1.6,1.6-4.3,1.6-5.8,0s-1.6-4.2,0-5.8Zm11.6,19.7h12.1c2.2,0,4.1,1.9,4.1,4.1s-1.9,4.1-4.1,4.1h-12.1c-2.2,0-4.1-1.9-4.1-4.1s1.8-4.1,4.1-4.1Z"/>
      </g>
    </g>
  </g>
</svg>