<?xml version="1.0" encoding="UTF-8"?>
<svg id="Layer_2" data-name="Layer 2" xmlns="http://www.w3.org/2000/svg" viewBox="0 0 1254 125">
  <defs>
    <style>
      .cls-1 {
        fill: none;
      }

      .cls-2 {
        fill: #faf9f7;
      }
    </style>
  </defs>
  <g id="Layer_1-2" data-name="Layer 1">
    <g>
      <rect class="cls-1" width="1254" height="125"/>
      <g>
        <g>
          <path class="cls-2" d="M821.17,69.03l-30,30c-.9,.9-1.9,1.3-2.9,1.3-2.2,0-3.9-1.6-3.9-3.9,0-1.1,.4-2.2,1.1-2.8l10.1-10.3,15.2-13.9-10.9,.7h-57.2c-2.3,0-4-1.7-4-4s1.6-4,4-4h57.2l10.9,.7-15.2-13.9-10.1-10.3c-.7-.7-1.1-1.8-1.1-2.8,0-2.3,1.7-3.9,3.9-3.9,1.1,0,2,.4,3,1.4l30,29.9c.9,.9,1.4,1.9,1.4,3-.1,.9-.6,2-1.5,2.8Z"/>
          <path class="cls-2" d="M1108.87,31.93c7.5,0,13.6,3.6,17.2,9,3.7-5.4,9.7-9,17.2-9,13.1,0,22.9,10.1,22.9,24.4,0,17.2-14.4,34.1-37.1,48.6-.9,.5-2.1,1.1-2.9,1.1s-2.1-.6-2.9-1.1c-22.9-14.5-37.3-31.4-37.3-48.6,0-14.3,9.8-24.4,22.9-24.4Zm16.4,66.8c.4,.3,.6,.5,.8,.5s.4-.2,.8-.5c16.9-11.2,32.7-27.4,32.7-42.4,0-10.7-6.9-17.9-16.3-17.9-7.5,0-11.7,4.8-14.5,8.8-1.2,1.6-1.8,2.1-2.7,2.1-1,0-1.7-.4-2.7-2.1-2.6-4-6.9-8.8-14.5-8.8-9.4,0-16.3,7.1-16.3,17.9-.1,15,15.7,31.2,32.7,42.4Z"/>
          <g>
            <path class="cls-2" d="M854.24,26.03h13.11v62.31h33.65v11.03h-46.76V26.03Z"/>
            <path class="cls-2" d="M904.36,71.62v-.1c0-17.84,10.22-28.77,26.73-28.77s26.74,10.88,26.74,28.77v.1c0,17.99-10.11,28.87-26.74,28.87s-26.73-10.88-26.73-28.87Zm40.51,.05v-.1c0-11.69-5.03-18.6-13.77-18.6s-13.82,6.91-13.82,18.6v.1c0,11.69,5.03,18.55,13.82,18.55s13.77-6.86,13.77-18.55Z"/>
            <path class="cls-2" d="M959.36,43.82h13.52l12.86,43.2h.86l12.76-43.2h13.32l-19.67,55.55h-13.88l-19.77-55.55Z"/>
            <path class="cls-2" d="M1014.2,71.72v-.05c0-17.48,10.11-28.92,25.92-28.92s25.57,11.08,25.57,27.85v4.17h-38.83c.15,9.96,5.54,15.76,14.13,15.76,6.86,0,10.78-3.46,12-6l.15-.36h12.05l-.15,.46c-1.78,7.17-9.2,15.86-24.29,15.86-16.52,0-26.53-11.08-26.53-28.77Zm12.76-5.44h26.38c-.86-9.1-6-13.62-13.06-13.62s-12.35,4.78-13.32,13.62Z"/>
          </g>
        </g>
        <g>
          <path class="cls-2" d="M87.83,25.43h13.67l12.55,55.05h.76l14.44-55.05h11.64l14.64,55.05h.71l12.55-55.05h13.57l-19.67,73.34h-12.3l-14.94-52.5h-.76l-14.84,52.5h-12.35L87.83,25.43Z"/>
          <path class="cls-2" d="M190.92,21.72h12.66v29.99h.86c2.64-5.95,7.98-9.56,16.01-9.56,12.4,0,19.16,7.47,19.16,20.69v35.93h-12.66v-32.99c0-8.64-3.51-13.01-11.18-13.01s-12.2,5.29-12.2,13.62v32.38h-12.66V21.72Z"/>
          <path class="cls-2" d="M247.64,71.02v-.1c0-17.84,10.22-28.77,26.74-28.77s26.74,10.88,26.74,28.77v.1c0,17.99-10.12,28.87-26.74,28.87s-26.74-10.88-26.74-28.87Zm40.51,.05v-.1c0-11.69-5.03-18.6-13.77-18.6s-13.83,6.91-13.83,18.6v.1c0,11.69,5.03,18.55,13.83,18.55s13.77-6.86,13.77-18.55Z"/>
          <path class="cls-2" d="M334.51,25.43h30.65c13.93,0,22.31,7.01,22.31,18.25v.1c0,7.67-5.69,14.48-13.06,15.65v.92c9.86,.92,16.67,8.03,16.67,17.54v.1c0,12.86-9.56,20.79-25.21,20.79h-31.36V25.43Zm13.11,10.22v20.69h12.66c9.3,0,14.23-3.61,14.23-10.27v-.1c0-6.51-4.62-10.32-12.55-10.32h-14.33Zm0,29.99v22.92h15.25c9.66,0,14.79-4.02,14.79-11.49v-.1c0-7.42-5.29-11.33-15.3-11.33h-14.74Z"/>
          <path class="cls-2" d="M397.08,71.12v-.05c0-17.48,10.12-28.92,25.92-28.92s25.57,11.08,25.57,27.85v4.17h-38.83c.15,9.96,5.54,15.76,14.13,15.76,6.86,0,10.78-3.46,12-6l.15-.36h12.05l-.15,.46c-1.78,7.17-9.2,15.86-24.29,15.86-16.52,0-26.53-11.08-26.53-28.77Zm12.76-5.44h26.38c-.86-9.1-6-13.62-13.06-13.62s-12.35,4.78-13.32,13.62Z"/>
          <path class="cls-2" d="M457.57,21.72h12.66V98.77h-12.66V21.72Z"/>
          <path class="cls-2" d="M480.96,26.44c0-4.12,3.41-7.47,7.57-7.47s7.52,3.35,7.52,7.47-3.41,7.47-7.52,7.47-7.57-3.3-7.57-7.47Zm1.22,16.77h12.66v55.55h-12.66V43.22Z"/>
          <path class="cls-2" d="M503.48,71.12v-.05c0-17.48,10.11-28.92,25.92-28.92s25.57,11.08,25.57,27.85v4.17h-38.83c.15,9.96,5.54,15.76,14.13,15.76,6.86,0,10.77-3.46,12-6l.15-.36h12.05l-.15,.46c-1.78,7.17-9.2,15.86-24.3,15.86-16.52,0-26.53-11.08-26.53-28.77Zm12.76-5.44h26.38c-.86-9.1-6-13.62-13.06-13.62s-12.35,4.78-13.32,13.62Z"/>
          <path class="cls-2" d="M557.3,43.22h13.52l12.86,43.2h.86l12.76-43.2h13.32l-19.67,55.55h-13.88l-19.77-55.55Z"/>
          <path class="cls-2" d="M612.15,71.12v-.05c0-17.48,10.12-28.92,25.92-28.92s25.57,11.08,25.57,27.85v4.17h-38.83c.15,9.96,5.54,15.76,14.13,15.76,6.86,0,10.78-3.46,12-6l.15-.36h12.05l-.15,.46c-1.78,7.17-9.2,15.86-24.29,15.86-16.52,0-26.53-11.08-26.53-28.77Zm12.76-5.44h26.38c-.86-9.1-6-13.62-13.06-13.62s-12.35,4.78-13.32,13.62Z"/>
          <path class="cls-2" d="M669.39,83.98v-.1h12.55l.05,.1c1.32,3.86,5.03,6.56,11.33,6.56s10.67-2.85,10.67-7.01v-.1c0-3.25-2.44-5.39-8.54-6.76l-9-2.03c-10.57-2.34-15.6-7.32-15.6-15.5v-.05c0-10.01,9.15-16.92,22.26-16.92s21.6,6.71,22.41,15.71v.1h-11.89l-.05-.15c-.91-3.51-4.57-6.35-10.52-6.35s-9.71,2.74-9.71,6.91v.05c0,3.25,2.34,5.23,8.33,6.61l9,1.98c10.88,2.44,16.01,7.06,16.01,15.15v.1c0,10.57-9.91,17.64-23.58,17.64s-22.67-6.51-23.74-15.91Z"/>
        </g>
      </g>
    </g>
  </g>
</svg>