<?xml version="1.0" encoding="UTF-8"?>
<svg id="Layer_2" data-name="Layer 2" xmlns="http://www.w3.org/2000/svg" viewBox="0 0 1254 125">
  <defs>
    <style>
      .cls-1 {
        fill: none;
      }

      .cls-2 {
        fill: #faf9f7;
      }
    </style>
  </defs>
  <g id="Layer_1-2" data-name="Layer 1">
    <g>
      <rect class="cls-1" width="1254" height="125"/>
      <g>
        <g>
          <path class="cls-2" d="M274.65,69.18l-25.3-48.1h19.9l14.3,29.9h1l14.2-29.9h19.9l-25.3,48.1v25.2h-18.7v-25.2Z"/>
          <path class="cls-2" d="M319.25,74.38V37.88h18v32.5c0,6.9,2.6,10.7,8.7,10.7s9.5-4.4,9.5-10.9V37.88h18v56.6h-18v-8.8h-1c-2.4,6.2-8.2,10.2-16.2,10.2-12.5-.1-19-7.9-19-21.5Z"/>
          <path class="cls-2" d="M374.65,113.38v-13c.6,.1,1.4,.1,2.1,.1,4.6,0,6.6-1.5,6.6-5.4V37.78h18v57.9c0,11.5-7.7,17.8-21.5,17.8-1.7,.1-4.2,0-5.2-.1Zm8.1-92.5c0-5.2,4.4-9.4,9.6-9.4s9.6,4.2,9.6,9.4-4.3,9.4-9.6,9.4-9.6-4.1-9.6-9.4Z"/>
          <path class="cls-2" d="M410.75,20.88c0-5.2,4.3-9.4,9.6-9.4s9.6,4.2,9.6,9.4-4.3,9.4-9.6,9.4-9.6-4.1-9.6-9.4Zm.5,17h18v56.6h-18V37.88Z"/>
          <path class="cls-2" d="M439.15,37.88h18v8.8h1c2.4-6.2,8.1-10.2,16.1-10.2,12.6,0,19.1,7.8,19.1,21.3v36.5h-18V61.78c0-6.9-2.8-10.7-8.9-10.7s-9.3,4.4-9.3,10.9v32.3h-18V37.88h0Z"/>
          <path class="cls-2" d="M525.65,21.08h18.7v58.3h31.2v15h-49.8V21.08h-.1Z"/>
          <path class="cls-2" d="M577.95,66.18h0c0-18.3,10.8-29.6,27.9-29.6s27.9,11.2,27.9,28.5v5.2h-38.1c.2,8.1,4.3,12.8,11.2,12.8,6,0,9.1-3.5,9.9-4.9l.1-.2,16.5-.1-.2,.6c-1.6,6.8-8.5,17.4-26.7,17.4-17.7-.1-28.5-11.4-28.5-29.7Zm17.9-6.5h20.8c-.9-6.8-4.8-10.4-10.4-10.4-5.5,.1-9.6,3.8-10.4,10.4Z"/>
          <path class="cls-2" d="M637.95,66.18h0c0-18.3,10.8-29.6,27.9-29.6s27.9,11.2,27.9,28.5v5.2h-38.1c.2,8.1,4.3,12.8,11.2,12.8,6,0,9.1-3.5,9.9-4.9l.1-.2,16.5-.1-.2,.6c-1.6,6.8-8.5,17.4-26.7,17.4-17.7-.1-28.5-11.4-28.5-29.7Zm17.9-6.5h20.8c-.9-6.8-4.8-10.4-10.4-10.4-5.6,.1-9.6,3.8-10.4,10.4Z"/>
        </g>
        <g>
          <path class="cls-2" d="M827.75,20.88c0-5.2,4.3-9.4,9.6-9.4s9.6,4.2,9.6,9.4-4.3,9.4-9.6,9.4-9.6-4.1-9.6-9.4Zm.6,17h18v56.6h-18V37.88Z"/>
          <path class="cls-2" d="M853.55,78.58v-.4h17.5l.1,.3c1.1,2.9,3.9,5.1,9.1,5.1,4.8,0,7.9-1.9,7.9-4.9v-.1c0-2.6-1.9-4.2-7.1-5.2l-9.8-1.9c-10.9-2.2-16.5-7.9-16.5-16.5v-.1c0-11.3,9.7-18.3,24.9-18.3,16.4,0,24.6,8.1,24.9,17.2v.3h-16.5l-.1-.4c-.6-2.3-3.4-5-8.3-5-4.5,0-7.5,1.9-7.5,5v.1c0,2.5,1.7,4,7.1,5.1l9.8,1.9c11.7,2.3,17,7.1,17,15.6v.1c0,11.7-10.6,19.3-25.9,19.3-16.7,0-25.5-7.4-26.6-17.2Z"/>
          <path class="cls-2" d="M931.85,78.18v-.1c0-10.3,8-16.2,22.6-17.1l12.4-.7v-4.4c0-3.8-2.8-6.1-7.8-6.1-4.7,0-7.6,1.6-8.7,4.4l-.1,.3h-16.3l.1-.6c1-10.4,10.8-17.3,26.1-17.3s24.5,7.1,24.5,19.3v38.6h-17.7v-7h-1c-2.5,4.8-8.5,7.9-15.8,7.9-10.9-.1-18.3-6.9-18.3-17.2Zm24.9,4.5c5.7,0,10.1-3.8,10.1-8.6v-3.7l-9.5,.6c-5.3,.4-8.1,2.5-8.1,5.8v.1c-.1,3.6,2.9,5.8,7.5,5.8Z"/>
        </g>
        <path class="cls-2" d="M711.25,64.18c0-21.8,18-39.8,39.8-39.8s39.9,18,39.9,39.8-18,39.8-39.8,39.8c-21.8,.1-39.9-18-39.9-39.8Zm73.1,0c0-18.4-14.8-33.2-33.2-33.2s-33.1,14.8-33.1,33.2,14.7,33.2,33.2,33.2,33.1-14.7,33.1-33.2Zm-49.4-8.8c0-3.2,2.1-5.4,4.6-5.4s4.6,2.2,4.6,5.4-2.2,5.4-4.6,5.4-4.6-2.3-4.6-5.4Zm2.5,20.4c0-.9,.9-1.4,1.8-1,2.8,1.5,6.2,3.3,11.9,3.3s9.1-1.8,11.9-3.3c.8-.4,1.7,0,1.7,1,0,2.6-5.5,8-13.6,8s-13.7-5.4-13.7-8Zm20.6-20.4c0-3.2,2.1-5.4,4.6-5.4s4.6,2.2,4.6,5.4-2.2,5.4-4.6,5.4-4.6-2.3-4.6-5.4Z"/>
      </g>
    </g>
  </g>
</svg>