<?xml version="1.0" encoding="UTF-8"?>
<svg id="Layer_2" data-name="Layer 2" xmlns="http://www.w3.org/2000/svg" viewBox="0 0 1254 125">
  <defs>
    <style>
      .cls-1 {
        fill: none;
      }

      .cls-2 {
        fill: #faf9f7;
      }
    </style>
  </defs>
  <g id="Layer_1-2" data-name="Layer 1">
    <g>
      <g>
        <g>
          <path class="cls-2" d="M107.7,26.46h43.5v6.3h-36.5v27.5h33.6v6.2h-33.6v33.3h-7s0-73.3,0-73.3Z"/>
          <path class="cls-2" d="M158.6,72.46v-.1c0-17.4,9.6-28.2,24.9-28.2s24.9,10.8,24.9,28.2v.1c0,17.4-9.6,28.3-24.9,28.3-15.3-.1-24.9-10.9-24.9-28.3Zm42.9,0v-.1c0-13.8-6.7-22.2-18-22.2s-18,8.4-18,22.2v.1c0,13.8,6.7,22.3,18,22.3,11.3-.1,18-8.5,18-22.3Z"/>
          <path class="cls-2" d="M218.6,45.06h6.7v9h.7c2.1-6.3,7.5-9.9,14.9-9.9,2,0,3.8,.2,5.1,.5v6.6c-2-.5-3.8-.7-5.8-.7-8.5,0-14.8,6.3-14.8,15.1v34.2h-6.7V45.06h-.1Z"/>
          <path class="cls-2" d="M278,26.46h7V59.06h42.9V26.46h7V99.76h-7v-34.4h-42.9v34.4h-7V26.46Z"/>
          <path class="cls-2" d="M348.2,80.56V44.96h6.7v33.9c0,10.2,4.7,15.8,14.1,15.8,10.2,0,16.3-6.8,16.3-17.1V45.06h6.7v54.7h-6.7v-9.6h-.6c-2.7,6.6-8.8,10.5-17.3,10.5-12.3,0-19.2-7.5-19.2-20.1Z"/>
          <path class="cls-2" d="M405.1,45.06h6.7v9.7h.7c2.3-6.6,8-10.6,15.5-10.6s13.2,4.2,15.5,10.8h.7c2.8-6.6,9.2-10.8,17.1-10.8,11,0,17.3,6.6,17.3,18.2v37.5h-6.8V63.96c0-8.9-4.3-13.7-12.6-13.7s-14.1,6.5-14.1,14.9v34.7h-6.7V63.26c0-7.9-5-13-12.6-13s-14,7.1-14,16.1v33.6h-6.7V45.06Z"/>
          <path class="cls-2" d="M487.8,84.66v-.1c0-9.5,7.1-15,19.7-15.9l17.1-1.1v-5.1c0-8-4.9-12.3-13.7-12.3-7.4,0-12.7,3-14.1,8.4l-.1,.1h-6.7l.1-.2c1.4-8.7,9.7-14.3,21-14.3,12.8,0,20.3,6.7,20.3,18.2v37.4h-6.8v-9.4h-.6c-3.3,6.5-9.8,10.3-17.9,10.3-10.6,0-18.3-6.2-18.3-16Zm19.5,10.1c9.8,0,17.2-6.7,17.2-15.4v-6.4l-16.2,1.1c-9.3,.6-13.8,4.1-13.8,10.3v.1c.1,6.4,5.5,10.3,12.8,10.3Z"/>
          <path class="cls-2" d="M544,45.06h6.7v9.6h.7c2.9-6.6,8.8-10.5,17.3-10.5,12.2,0,19.2,7.3,19.2,20.1v35.6h-6.7v-33.9c0-10.4-4.7-15.8-14.2-15.8s-16.2,6.8-16.2,17.1v32.5h-6.8V45.06Z"/>
        </g>
        <g>
          <path class="cls-2" d="M708.4,62.56v-.1c0-23.5,12.4-38.2,32.3-38.2,15.1,0,27.3,10,29.3,23.9l-.1,.1h-7l-.1-.1c-2.1-10.3-11.2-17.4-22.2-17.4-15.3,0-25.2,12.4-25.2,31.7v.1c0,19.4,9.8,31.7,25.2,31.7,11.3,0,20.1-6.3,22.2-15.9l.1-.1,7-.1,.1,.1c-2.1,13.4-13.7,22.4-29.2,22.4-20,0-32.4-14.6-32.4-38.1Z"/>
          <path class="cls-2" d="M777.1,84.06v-.1c0-9.5,7.1-15,19.7-15.9l17.1-1.1v-5.1c0-8-4.9-12.3-13.7-12.3-7.4,0-12.7,3-14.1,8.4l-.1,.1h-6.8l.1-.2c1.4-8.7,9.7-14.3,21-14.3,12.8,0,20.3,6.7,20.3,18.2v37.4h-6.8v-9.4h-.6c-3.3,6.5-9.8,10.3-17.9,10.3-10.5,0-18.2-6.2-18.2-16Zm19.6,10.1c9.8,0,17.2-6.7,17.2-15.4v-6.4l-16.2,1.1c-9.3,.6-13.8,4.1-13.8,10.3v.1c.1,6.4,5.4,10.3,12.8,10.3Z"/>
          <path class="cls-2" d="M833.3,44.46h6.7v9.6h.7c2.9-6.6,8.8-10.5,17.3-10.5,12.2,0,19.2,7.3,19.2,20.1v35.6h-6.7v-33.9c0-10.4-4.7-15.8-14.2-15.8s-16.2,6.8-16.2,17.1v32.5h-6.7V44.46h-.1Z"/>
          <path class="cls-2" d="M914.5,25.86h8l27,64.2h.6l27-64.2h8V99.16h-6.5V39.36h-.5l-25.3,59.8h-6l-25.3-59.8h-.5v59.8h-6.5V25.86Z"/>
          <path class="cls-2" d="M995.8,84.06v-.1c0-9.5,7.1-15,19.7-15.9l17.1-1.1v-5.1c0-8-4.9-12.3-13.7-12.3-7.4,0-12.7,3-14.1,8.4l-.1,.1h-6.7l.1-.2c1.4-8.7,9.7-14.3,21-14.3,12.8,0,20.3,6.7,20.3,18.2v37.4h-6.8v-9.4h-.6c-3.3,6.5-9.8,10.3-17.9,10.3-10.6,0-18.3-6.2-18.3-16Zm19.6,10.1c9.8,0,17.2-6.7,17.2-15.4v-6.4l-16.2,1.1c-9.3,.6-13.8,4.1-13.8,10.3v.1c0,6.4,5.4,10.3,12.8,10.3Z"/>
          <path class="cls-2" d="M1052.5,22.66h6.7v47.4h.7l26.6-25.6h8.3l-24.7,23.2,25.8,31.6h-8.5l-22.1-27-6.1,5.8v21.2h-6.7V22.66h0Z"/>
          <path class="cls-2" d="M1098.4,71.96v-.1c0-17.1,9.6-28.4,24.2-28.4s23.7,11,23.7,27.2v2.8h-41.1c.2,12.8,7.2,20.5,18.1,20.5,8,0,13.5-3.8,15.2-8l.2-.4h6.8l-.2,.4c-2.1,7.4-10.1,14-22.2,14-15.3,.1-24.7-10.8-24.7-28Zm6.9-3.9h34.3c-.8-12.1-7.5-18.6-16.9-18.6-9.6,0-16.6,6.8-17.4,18.6Z"/>
        </g>
        <path class="cls-2" d="M633.9,83.96l-5.9,16.3c-.7,1.8-2.4,2.4-3.9,1.9-1.6-.5-2.4-2.3-1.8-3.9l6-16.5,6-16.4v-14.9c0-.7-.4-1.3-1-1.6l-20.2-10.8c-1.5-.8-2.1-2.6-1.3-4.1s2.6-2,4.1-1.2l19.5,10.3c2.2,1.1,4.3,1.7,6.5,1.7s4.3-.5,6.4-1.7l19.5-10.3c1.5-.8,3.3-.2,4.1,1.2,.8,1.5,.2,3.3-1.3,4.1l-20.2,10.8c-.6,.3-1,.9-1,1.6v14.9l6,16.4,6,16.5c.5,1.6-.2,3.4-1.8,3.9-1.5,.5-3.3,0-3.9-1.9l-5.9-16.3-7.9-12.5-8,12.5Zm.9-50.1c0-3.9,3.2-7,7.1-7s7,3.2,7,7-3.2,7.1-7,7.1c-4,.1-7.1-3.1-7.1-7.1Z"/>
      </g>
      <rect class="cls-1" width="1254" height="125"/>
    </g>
  </g>
</svg>