<?xml version="1.0" encoding="UTF-8"?>
<svg id="Layer_2" data-name="Layer 2" xmlns="http://www.w3.org/2000/svg" viewBox="0 0 1254 125">
  <defs>
    <style>
      .cls-1 {
        fill: none;
      }

      .cls-2 {
        fill: #faf9f7;
      }
    </style>
  </defs>
  <g id="Layer_1-2" data-name="Layer 1">
    <g>
      <g>
        <path class="cls-2" d="M279.75,26.9h24c13.6,0,22.1,7.1,22.1,17.8v.1c0,8.7-5.7,15.5-14.4,17.1v.3c10,1.3,18.3,7.8,18.3,18.5v.1c0,11.9-8.6,19.4-25.8,19.4h-24.2V26.9Zm4,3.7v30.1h18.8c11.7,0,19.3-5.8,19.3-15.4v-.1c0-8.9-7.1-14.6-18.6-14.6h-19.5Zm0,33.8v32.3h19.7c15,0,22.1-6.1,22.1-15.9v-.1c0-10.2-8.8-16.3-22.4-16.3h-19.4Z"/>
        <path class="cls-2" d="M337.55,73.1v-.1c0-17.3,9.5-28.3,23.9-28.3s23.5,10.9,23.5,26.9v2h-43.4c.2,14.7,8.2,23.9,20.5,23.9,8.7,0,15.5-4.1,17.7-9.6l.2-.3h4l-.2,.4c-2.5,7.4-10.7,13.1-21.8,13.1-14.9,0-24.4-10.9-24.4-28Zm4.1-2.9h39.5c-.6-13.8-8.3-22-19.6-22-11.3,.1-19.3,8.4-19.9,22Z"/>
        <path class="cls-2" d="M399.35,87.5V49h-9v-3.5h9v-14.2h4v14.2h13.3v3.5h-13.3v37.9c0,7.1,2.6,10.2,9.5,10.2,1.5,0,2.7-.1,3.8-.2v3.5c-1.4,.2-2.6,.4-4.2,.4-9.4-.2-13.1-4.1-13.1-13.3Z"/>
        <path class="cls-2" d="M430.55,87.5V49h-9v-3.5h9v-14.2h4v14.2h13.3v3.5h-13.3v37.9c0,7.1,2.6,10.2,9.5,10.2,1.5,0,2.7-.1,3.8-.2v3.5c-1.4,.2-2.6,.4-4.2,.4-9.4-.2-13.1-4.1-13.1-13.3Z"/>
        <path class="cls-2" d="M454.45,73.1v-.1c0-17.3,9.5-28.3,23.9-28.3s23.5,10.9,23.5,26.9v2h-43.4c.2,14.7,8.2,23.9,20.5,23.9,8.7,0,15.5-4.1,17.7-9.6l.2-.3h4l-.2,.4c-2.5,7.4-10.7,13.1-21.8,13.1-14.9,0-24.4-10.9-24.4-28Zm4-2.9h39.5c-.6-13.8-8.3-22-19.6-22-11.2,.1-19.3,8.4-19.9,22Z"/>
        <path class="cls-2" d="M513.05,45.5h3.9v10.2h.4c2.2-6.9,7.8-11,15.2-11,2.4,0,4.2,.2,6.1,.8v3.9c-2.1-.7-4-1-6.4-1-8.7,0-15.3,7.5-15.3,17.4v34.4h-3.9V45.5Z"/>
        <path class="cls-2" d="M569.35,26.9h23.8c14.2,0,23.6,8.5,23.6,21.8v.1c0,13.3-9.4,21.9-23.6,21.9h-19.8v29.6h-4V26.9Zm4,3.7v36.4h19.2c12.4,0,20.1-6.9,20.1-18.2v-.1c0-11.3-7.7-18.1-20.1-18.1h-19.2Z"/>
        <path class="cls-2" d="M627.45,45.5h3.9v10.2h.4c2.2-6.9,7.8-11,15.2-11,2.4,0,4.2,.2,6.1,.8v3.9c-2.1-.7-4-1-6.4-1-8.7,0-15.3,7.5-15.3,17.4v34.4h-3.9V45.5Z"/>
        <path class="cls-2" d="M656.35,73v-.1c0-17.3,9.5-28.2,24.4-28.2s24.4,10.9,24.4,28.2v.1c0,17.2-9.5,28.2-24.4,28.2-14.9-.1-24.4-11-24.4-28.2Zm44.8,0v-.1c0-15-7.9-24.6-20.4-24.6s-20.4,9.6-20.4,24.6v.1c0,15,7.9,24.5,20.4,24.5s20.4-9.6,20.4-24.5Z"/>
        <path class="cls-2" d="M713.45,73v-.1c0-16.6,9.6-28.2,23.4-28.2,9.3,0,17,5.5,20.1,14.2h.4V23.7h3.9V100.2h-3.9v-13.8h-.4c-3,8.9-10.7,14.6-20.1,14.6-13.8,.1-23.4-11.4-23.4-28Zm44,0v-.1c0-14.6-8.1-24.6-20-24.6s-20,10-20,24.6v.1c0,14.6,8.1,24.5,20,24.5s20-9.9,20-24.5Z"/>
        <path class="cls-2" d="M775.35,81.3V45.5h4v34.7c0,10.7,6.2,17.3,16.5,17.3,11,0,18.3-7.9,18.3-19.3V45.5h4v54.7h-4v-11.3h-.4c-2.6,7.6-9.6,12.2-18.7,12.2-12.1,0-19.7-7.7-19.7-19.8Z"/>
        <path class="cls-2" d="M829.25,72.8v-.1c0-17.1,9.4-28,24.1-28,11.5,0,19.9,6.7,21.8,16.1l-.1,.1-3.9,.1-.1-.1c-1.9-7.4-8.7-12.5-17.7-12.5-12.3,0-20.1,9.6-20.1,24.4v.1c0,15,7.9,24.8,20.1,24.8,9,0,15.8-4.6,17.6-11.8l.1-.2,3.9-.1-.1,.3c-2,9.3-10,15.4-21.6,15.4-14.7-.2-24-11.2-24-28.5Z"/>
        <path class="cls-2" d="M889.45,87.5V49h-9v-3.5h9v-14.2h4v14.2h13.3v3.5h-13.3v37.9c0,7.1,2.6,10.2,9.5,10.2,1.5,0,2.7-.1,3.8-.2v3.5c-1.4,.2-2.6,.4-4.2,.4-9.3-.2-13.1-4.1-13.1-13.3Z"/>
        <path class="cls-2" d="M913.05,86.9h4.1c1.5,6.7,7.9,10.8,17.1,10.8s16-5,16-11.6v-.1c0-6-4.2-9.1-13.8-11.4l-6.4-1.5c-10-2.3-15-6.3-15-13.6v-.1c0-8.5,8.6-14.7,18.9-14.7s18,5.3,19.4,13.6h-3.9c-1.2-6.1-7.4-10.1-15.5-10.1s-14.9,4.8-14.9,11.1v.1c0,5.4,4.1,8.3,12.5,10.3l6.4,1.5c10.9,2.5,16.3,6.6,16.3,14.5v.1c0,8.9-8.8,15.3-20,15.3-11.8,0-20-5.4-21.2-14.2Z"/>
        <path class="cls-2" d="M966.65,96.9c0-2.1,1.6-3.8,3.8-3.8s3.8,1.6,3.8,3.8-1.7,3.7-3.8,3.7-3.8-1.6-3.8-3.7Z"/>
      </g>
      <rect class="cls-1" width="1254" height="125"/>
    </g>
  </g>
</svg>