<?xml version="1.0" encoding="utf-8"?>
<!-- Generator: Adobe Illustrator 27.0.0, SVG Export Plug-In . SVG Version: 6.00 Build 0)  -->
<svg version="1.1" id="Layer_1" xmlns="http://www.w3.org/2000/svg" xmlns:xlink="http://www.w3.org/1999/xlink" x="0px" y="0px"
	 viewBox="0 0 1254 125" style="enable-background:new 0 0 1254 125;" xml:space="preserve">
<style type="text/css">
	.st0{fill:none;stroke:#FAF9F7;stroke-width:2;stroke-miterlimit:10;}
	.st1{fill:#FAF9F7;}
	.st2{fill:#443C8E;}
	.st3{fill:none;}
</style>
<line class="st0" x1="65.8" y1="-151.9" x2="1188.2" y2="-151.9"/>
<line class="st0" x1="65.8" y1="135.3" x2="1188.2" y2="135.3"/>
<line class="st0" x1="65.8" y1="276" x2="1188.2" y2="276"/>
<g>
	<path class="st1" d="M-3253.4-210.7l-25.7-44.4h14.3l17.5,31.5h0.9l17.4-31.5h14.3l-25.7,44.4v28.9h-13.1L-3253.4-210.7
		L-3253.4-210.7z"/>
	<path class="st1" d="M-3212.2-201.5v-35.9h12.7v33c0,8.6,3.2,13,10.8,13c8.2,0,12.5-5.3,12.5-13.6v-32.4h12.7v55.6h-12.7v-8.4h-0.9
		c-2.6,5.9-8.2,9.6-16.3,9.6C-3205.8-180.8-3212.2-188.3-3212.2-201.5L-3212.2-201.5z"/>
	<path class="st1" d="M-3159.7-163v-10c0.5,0.1,1.1,0.1,1.6,0.1c5.4,0,7.5-1.8,7.5-7v-57.5h12.7v57.7c0,11.4-6.3,16.8-18.8,16.8
		C-3157.7-162.9-3159-163-3159.7-163z M-3151.8-254.2c0-4.1,3.4-7.5,7.5-7.5s7.6,3.3,7.6,7.5s-3.4,7.5-7.6,7.5
		S-3151.8-250-3151.8-254.2z"/>
	<path class="st1" d="M-3126-254.2c0-4.1,3.4-7.5,7.6-7.5c4.2,0,7.5,3.3,7.5,7.5s-3.4,7.5-7.5,7.5S-3126-250.1-3126-254.2z
		 M-3124.8-237.5h12.7v55.6h-12.7V-237.5L-3124.8-237.5z"/>
	<path class="st1" d="M-3099.2-237.4h12.7v8.5h0.9c2.6-6,8-9.6,16-9.6c12.4,0,19.2,7.5,19.2,20.7v35.9h-12.7v-33
		c0-8.6-3.5-13-11.2-13s-12.2,5.3-12.2,13.6v32.4h-12.7V-237.4L-3099.2-237.4z"/>
	<path class="st1" d="M-3011.8-255.2h13.1v62.3h33.7v11h-46.8V-255.2z"/>
	<path class="st1" d="M-2960.1-209.5L-2960.1-209.5c0-17.5,10.1-29,25.9-29s25.6,11.1,25.6,27.8v4.2h-38.8
		c0.2,10,5.5,15.8,14.1,15.8c6.9,0,10.8-3.5,12-6l0.2-0.4h12l-0.2,0.5c-1.8,7.2-9.2,15.9-24.3,15.9
		C-2950.1-180.8-2960.1-191.9-2960.1-209.5L-2960.1-209.5z M-2947.3-215h26.3c-0.9-9.1-6-13.6-13.1-13.6
		C-2941.2-228.6-2946.4-223.7-2947.3-215z"/>
	<path class="st1" d="M-2901.3-209.5L-2901.3-209.5c0-17.5,10.1-29,25.9-29s25.6,11.1,25.6,27.8v4.2h-38.8
		c0.2,10,5.5,15.8,14.1,15.8c6.9,0,10.8-3.5,12-6l0.2-0.4h12l-0.2,0.5c-1.8,7.2-9.2,15.9-24.3,15.9
		C-2891.3-180.8-2901.3-191.9-2901.3-209.5L-2901.3-209.5z M-2888.5-215h26.4c-0.9-9.1-6-13.6-13.1-13.6
		C-2882.3-228.6-2887.6-223.7-2888.5-215z"/>
	<path class="st1" d="M-2722.5-254.2c0-4.1,3.4-7.5,7.6-7.5s7.5,3.3,7.5,7.5s-3.4,7.5-7.5,7.5S-2722.5-250.1-2722.5-254.2z
		 M-2721.3-237.5h12.7v55.6h-12.7V-237.5L-2721.3-237.5z"/>
	<path class="st1" d="M-2698.4-196.7L-2698.4-196.7l12.5-0.1v0.1c1.3,3.9,5,6.6,11.3,6.6s10.7-2.8,10.7-7v-0.1
		c0-3.2-2.4-5.4-8.5-6.8l-9-2c-10.6-2.3-15.6-7.3-15.6-15.5v-0.1c0-10,9.2-16.9,22.3-16.9s21.6,6.7,22.4,15.7v0.1h-11.9v-0.2
		c-0.9-3.5-4.6-6.3-10.5-6.3c-5.6,0-9.7,2.7-9.7,6.9v0.1c0,3.2,2.3,5.2,8.3,6.6l9,2c10.9,2.4,16,7.1,16,15.2v0.1
		c0,10.6-9.9,17.6-23.6,17.6S-2697.3-187.3-2698.4-196.7L-2698.4-196.7z"/>
	<path class="st1" d="M-2618.9-197.6L-2618.9-197.6c0-10,7.6-15.8,21.1-16.6l14.3-0.9v-4.8c0-5.5-3.6-8.6-10.4-8.6
		c-5.8,0-9.6,2.1-10.8,5.7v0.2h-11.9v-0.5c1.2-9.3,10.2-15.6,23.4-15.6c14.3,0,22.3,6.9,22.3,18.7v38h-12.5v-7.5h-0.9
		c-3,5.4-9,8.5-16.3,8.5C-2611.2-181-2618.9-187.5-2618.9-197.6L-2618.9-197.6z M-2596.8-190.7c7.6,0,13.3-5,13.3-11.6v-4.5
		l-12.5,0.9c-7.1,0.5-10.4,3.1-10.4,7.6v0.1C-2606.4-193.5-2602.4-190.7-2596.8-190.7L-2596.8-190.7z"/>
	<path class="st1" d="M-2831.9-213.5c0-21,17.4-38.4,38.3-38.4c21,0,38.4,17.4,38.4,38.4s-17.4,38.4-38.4,38.4
		C-2814.5-175.1-2831.9-192.5-2831.9-213.5L-2831.9-213.5z M-2761.6-213.5c0-17.8-14.3-32-32-32c-17.8,0-31.9,14.2-31.9,32
		s14.2,32,31.9,32S-2761.6-195.7-2761.6-213.5L-2761.6-213.5z M-2809.2-222c0-3,2.1-5.2,4.4-5.2s4.5,2.1,4.5,5.2s-2.1,5.2-4.5,5.2
		C-2807.1-216.7-2809.2-219-2809.2-222z M-2806.7-202.3c0-0.9,0.9-1.3,1.7-0.9c2.7,1.5,6,3.2,11.4,3.2c5.5,0,8.7-1.7,11.5-3.2
		c0.8-0.4,1.7,0,1.7,0.9c0,2.5-5.3,7.7-13.1,7.7C-2801.5-194.6-2806.7-199.9-2806.7-202.3L-2806.7-202.3z M-2786.8-222
		c0-3,2.1-5.2,4.4-5.2s4.5,2.1,4.5,5.2s-2.1,5.2-4.5,5.2C-2784.8-216.7-2786.8-219-2786.8-222z"/>
</g>
<g>
	<path class="st1" d="M-3379.6-116.4h28.6c14.4,0,24.4,9.7,24.4,24v0.1c0,14.3-10,24.1-24.4,24.1h-17.2v25.1h-11.4L-3379.6-116.4
		L-3379.6-116.4z M-3368.2-106.8v29.1h14.3c9.9,0,15.6-5.3,15.6-14.5v-0.1c0-9.1-5.7-14.5-15.6-14.5H-3368.2L-3368.2-106.8z"/>
	<path class="st1" d="M-3315.9-98.3h11v8.3h0.8c2-5.9,7.1-9.3,14.5-9.3c1.8,0,3.7,0.2,4.8,0.5v10.3c-2-0.4-3.9-0.7-5.9-0.7
		c-8.4,0-14.2,5.2-14.2,13.2v33h-11L-3315.9-98.3L-3315.9-98.3z"/>
	<path class="st1" d="M-3281-70.6L-3281-70.6c0-17.8,10-28.7,26.1-28.7c16.2,0,26.1,10.8,26.1,28.6v0.1c0,17.8-9.9,28.6-26.1,28.6
		C-3271-42-3281-52.8-3281-70.6L-3281-70.6z M-3240-70.6L-3240-70.6c0-12.3-5.4-19.5-14.8-19.5c-9.5,0-14.8,7.2-14.8,19.4v0.1
		c0,12.2,5.3,19.4,14.8,19.4S-3240-58.4-3240-70.6L-3240-70.6z"/>
	<path class="st1" d="M-3221-70.6L-3221-70.6c0-17.6,8.8-28.6,22.9-28.6c7.6,0,14,3.8,17,9.7h0.9v-30.4h11v76.8h-11v-8.7h-0.9
		c-3.2,6-9.2,9.6-17,9.6C-3212-42.1-3221-53.3-3221-70.6L-3221-70.6z M-3180.1-70.6L-3180.1-70.6c0-11.9-5.7-19.2-14.8-19.2
		c-9.2,0-14.8,7.2-14.8,19.1v0.1c0,11.8,5.5,19.1,14.8,19.1C-3185.6-51.5-3180.1-58.8-3180.1-70.6z"/>
	<path class="st1" d="M-3156.1-62.5v-35.7h11v33.1c0,9.2,3.4,13.7,11.4,13.7c8.8,0,13.6-5.5,13.6-14.4v-32.4h11V-43h-11v-8.3h-0.9
		c-2.6,6-8.2,9.4-16.3,9.4C-3149.6-42-3156-49.5-3156.1-62.5L-3156.1-62.5z"/>
	<path class="st1" d="M-3098.5-70.8L-3098.5-70.8c0-17.6,9.8-28.5,25.9-28.5c13.9,0,22.2,7.8,23.7,18.6v0.2l-10.6,0.1v-0.1
		c-1.2-5.4-5.7-9.5-13-9.5c-9.2,0-14.7,7.3-14.7,19.2v0.1c0,12.2,5.6,19.6,14.7,19.6c6.9,0,11.2-3.1,13-9.1l0.1-0.2h10.6l-0.1,0.5
		c-2,10.7-9.9,18.1-23.5,18.1C-3088.7-42-3098.5-53-3098.5-70.8L-3098.5-70.8z"/>
	<path class="st1" d="M-3034.6-57.6v-32h-8.6v-8.7h8.6v-13.9h11.2v13.9h11.8v8.7h-11.8v29.3c0,5.9,2.2,8.4,7.7,8.4
		c1.7,0,2.6,0,4.2-0.2v8.8c-1.8,0.3-3.8,0.6-6,0.6C-3029.6-42.7-3034.6-47-3034.6-57.6L-3034.6-57.6z"/>
	<path class="st1" d="M-2974.1-116.4h26.5c21.8,0,34.5,13.4,34.5,36.4v0.1c0,23.3-12.7,36.8-34.5,36.8h-26.5V-116.4z M-2948.9-52.9
		c15.3,0,24.2-9.8,24.2-26.8v-0.1c0-16.9-9-26.8-24.2-26.8h-13.8v53.7L-2948.9-52.9L-2948.9-52.9z"/>
	<path class="st1" d="M-2904.4-70.5L-2904.4-70.5c0-17.3,10-28.8,25.4-28.8s24.9,11.1,24.9,27.7v3.9h-39.1
		c0.2,10.6,6,16.7,15.1,16.7c7.1,0,11.3-3.5,12.6-6.4l0.2-0.4l10.6-0.1l-0.1,0.5c-1.8,7.3-9.5,15.4-23.6,15.4
		C-2894.6-42-2904.4-53-2904.4-70.5L-2904.4-70.5z M-2893.1-75.6h28.1c-0.9-9.9-6.4-14.6-13.9-14.6S-2892.2-85.2-2893.1-75.6z"/>
	<path class="st1" d="M-2846.4-57.5L-2846.4-57.5h11l0,0c1.4,4.2,5.4,7,11.9,7s11.5-3.1,11.5-7.6v-0.1c0-3.5-2.6-5.8-9-7.3l-8.8-2
		c-10.4-2.4-15.2-7.1-15.2-15.2v-0.1c0-9.6,9-16.5,21.5-16.5s20.7,6.3,21.7,15.3v0.1h-10.5V-84c-1.1-3.9-5-6.8-11.2-6.8
		s-10.4,3-10.4,7.4v0.1c0,3.5,2.5,5.6,8.7,7.1l8.7,2c10.6,2.5,15.7,7,15.7,15v0.1c0,10.2-9.8,17.2-22.9,17.2
		C-2836.8-41.9-2845.3-48.3-2846.4-57.5L-2846.4-57.5z"/>
	<path class="st1" d="M-2791.3-115c0-3.8,3.1-6.9,6.9-6.9s6.9,3.1,6.9,6.9s-3.2,6.9-6.9,6.9S-2791.3-111.2-2791.3-115z
		 M-2789.9-98.3h11v55.2h-11V-98.3L-2789.9-98.3z"/>
	<path class="st1" d="M-2766.2-38.9l0.1-0.1h11.1v0.1c0.9,3.8,5.4,6.5,12.9,6.5c9.1,0,14.5-4.3,14.5-11.8v-10.9h-0.8
		c-3.3,6-9.5,9.4-17,9.4c-14.2,0-22.9-10.9-22.9-26.5v-0.1c0-15.8,8.8-26.9,23.1-26.9c7.7,0,13.7,3.8,16.9,10h0.7v-9.1h11v54.1
		c0,12.5-9.9,20.6-25.6,20.6C-2756.2-23.6-2764.8-29.7-2766.2-38.9L-2766.2-38.9z M-2727.3-72.3L-2727.3-72.3
		c0-10.4-5.7-17.6-15-17.6s-14.7,7.2-14.7,17.5v0.1c0,10.3,5.3,17.4,14.7,17.4C-2732.9-54.9-2727.3-62-2727.3-72.3z"/>
	<path class="st1" d="M-2703.3-98.3h11v8.4h0.8c2.7-5.9,8-9.4,16-9.4c12.3,0,19.2,7.4,19.2,20.5v35.7h-11v-33.1
		c0-9.1-3.8-13.7-11.9-13.7c-8.1,0-13.1,5.5-13.1,14.4v32.4h-11V-98.3z"/>
	<path class="st1" d="M-2646.3-70.5L-2646.3-70.5c0-17.3,10-28.8,25.4-28.8s24.8,11.1,24.8,27.7v3.9h-39.1
		c0.2,10.6,6,16.7,15.1,16.7c7.1,0,11.3-3.5,12.6-6.4l0.2-0.4l10.6-0.1l-0.1,0.5c-1.8,7.3-9.5,15.4-23.6,15.4
		C-2636.6-42-2646.3-53-2646.3-70.5L-2646.3-70.5z M-2635.1-75.6h28.1c-0.9-9.9-6.4-14.6-13.9-14.6S-2634.1-85.2-2635.1-75.6z"/>
	<path class="st1" d="M-2585.6-98.3h11v8.3h0.8c2-5.9,7.1-9.3,14.5-9.3c1.8,0,3.7,0.2,4.8,0.5v10.3c-2-0.4-3.9-0.7-6-0.7
		c-8.4,0-14.2,5.2-14.2,13.2v33h-11L-2585.6-98.3L-2585.6-98.3z"/>
	<path class="st1" d="M-2514.2-72.5h-11.8c-2.2,0-4-1.8-4-4s1.8-4,4-4h11.9c2.2,0,4,1.8,4,4S-2512-72.5-2514.2-72.5z M-2509-94.4
		l-8.2-8.3c-1.5-1.5-1.5-4.1,0-5.7c1.5-1.5,4.1-1.5,5.7,0l8.2,8.3c1.5,1.5,1.5,4.1,0,5.7C-2504.8-92.9-2507.4-92.9-2509-94.4
		L-2509-94.4z M-2502.9-53.1l-8.2,8.2c-1.6,1.5-4.2,1.5-5.7-0.1c-1.5-1.5-1.5-4.1,0.1-5.7l8.2-8.2c1.5-1.5,4.2-1.5,5.7,0
		C-2501.4-57.3-2501.4-54.7-2502.9-53.1L-2502.9-53.1z M-2489.3-105.4v-11.8c0-2.2,1.8-4.1,4-4.1s4,1.9,4,4.1v11.8c0,2.2-1.8,4-4,4
		S-2489.3-103.2-2489.3-105.4z M-2488-80.5c0-1.7,1.8-2.3,2.9-1.2l22.3,22.8c1.2,1.3,0.4,3.1-1.3,3.1l-8.5,0.2l7.1,16.4
		c0.4,0.8,0.2,1.9-0.8,2.4l-4.1,1.6c-1,0.4-1.9-0.2-2.3-1.1l-6.7-16.6l-5.9,6c-1.2,1.2-3.3,0.6-3.2-1.2L-2488-80.5L-2488-80.5z
		 M-2467.6-99.7l8.2-8.3c1.6-1.5,4.2-1.6,5.7,0s1.5,4.2,0,5.7l-8.2,8.3c-1.5,1.5-4.2,1.5-5.7,0S-2469.1-98.2-2467.6-99.7
		L-2467.6-99.7z M-2456.3-80.5h11.8c2.2,0,4,1.8,4,4s-1.8,4-4,4h-11.8c-2.2,0-4-1.8-4-4S-2458.4-80.5-2456.3-80.5z"/>
</g>
<g>
	<path class="st1" d="M-3268.2,312.5h24c13.6,0,22.1,7.1,22.1,17.8v0.1c0,8.7-5.7,15.5-14.4,17.1v0.3c10,1.3,18.3,7.8,18.3,18.5v0.1
		c0,11.9-8.6,19.4-25.8,19.4h-24.2L-3268.2,312.5L-3268.2,312.5z M-3264.2,316.1v30.1h18.8c11.7,0,19.3-5.8,19.3-15.4v-0.1
		c0-8.9-7.1-14.6-18.6-14.6H-3264.2z M-3264.2,349.8v32.3h19.7c15,0,22.1-6.1,22.1-15.9v-0.1c0-10.2-8.8-16.3-22.4-16.3H-3264.2
		L-3264.2,349.8z"/>
	<path class="st1" d="M-3208.8,358.6L-3208.8,358.6c0-17.4,9.5-28.4,23.9-28.4s23.5,10.9,23.5,26.9v2h-43.4
		c0.1,14.7,8.2,23.9,20.5,23.9c8.7,0,15.5-4.1,17.7-9.6l0.1-0.3h4l-0.1,0.4c-2.5,7.4-10.7,13.1-21.8,13.1
		C-3199.4,386.6-3208.8,375.7-3208.8,358.6L-3208.8,358.6z M-3204.8,355.7h39.5c-0.6-13.8-8.3-22-19.6-22S-3204.2,342-3204.8,355.7
		L-3204.8,355.7z"/>
	<path class="st1" d="M-3145.6,373v-38.5h-9V331h9v-14.2h4V331h13.3v3.5h-13.3v38c0,7.1,2.6,10.2,9.5,10.2c1.5,0,2.7-0.1,3.8-0.2
		v3.5c-1.4,0.2-2.6,0.4-4.2,0.4C-3141.8,386.1-3145.6,382.3-3145.6,373L-3145.6,373z"/>
	<path class="st1" d="M-3112.8,373v-38.5h-9V331h9v-14.2h4V331h13.3v3.5h-13.3v38c0,7.1,2.6,10.2,9.5,10.2c1.5,0,2.7-0.1,3.8-0.2
		v3.5c-1.4,0.2-2.6,0.4-4.2,0.4C-3109,386.1-3112.8,382.3-3112.8,373L-3112.8,373z"/>
	<path class="st1" d="M-3087.3,358.6L-3087.3,358.6c0-17.4,9.5-28.4,23.9-28.4s23.5,10.9,23.5,26.9v2h-43.4
		c0.1,14.7,8.2,23.9,20.5,23.9c8.7,0,15.5-4.1,17.7-9.6l0.1-0.3h4l-0.1,0.4c-2.5,7.4-10.7,13.1-21.8,13.1
		C-3077.8,386.6-3087.3,375.7-3087.3,358.6L-3087.3,358.6z M-3083.3,355.7h39.5c-0.6-13.8-8.3-22-19.6-22S-3082.7,342-3083.3,355.7
		L-3083.3,355.7z"/>
	<path class="st1" d="M-3027.2,331h3.9v10.2h0.4c2.2-6.9,7.8-11,15.2-11c2.4,0,4.2,0.2,6.1,0.8v3.9c-2.1-0.7-4-1-6.3-1
		c-8.7,0-15.3,7.5-15.3,17.4v34.4h-3.9L-3027.2,331L-3027.2,331z"/>
	<path class="st1" d="M-2967.7,312.5h23.8c14.2,0,23.6,8.5,23.6,21.8v0.1c0,13.3-9.3,21.9-23.6,21.9h-19.8v29.6h-4V312.5
		L-2967.7,312.5z M-2963.7,316.1v36.4h19.2c12.4,0,20.1-6.9,20.1-18.2v-0.1c0-11.3-7.7-18.1-20.1-18.1L-2963.7,316.1L-2963.7,316.1z
		"/>
	<path class="st1" d="M-2908.1,331h3.9v10.2h0.4c2.2-6.9,7.8-11,15.2-11c2.4,0,4.2,0.2,6.1,0.8v3.9c-2.1-0.7-4-1-6.3-1
		c-8.7,0-15.3,7.5-15.3,17.4v34.4h-3.9L-2908.1,331L-2908.1,331z"/>
	<path class="st1" d="M-2877.6,358.5L-2877.6,358.5c0-17.4,9.5-28.3,24.4-28.3s24.4,10.9,24.4,28.2v0.1c0,17.2-9.5,28.2-24.4,28.2
		C-2868.1,386.7-2877.6,375.7-2877.6,358.5z M-2832.8,358.5L-2832.8,358.5c0-15.1-7.9-24.7-20.4-24.7s-20.4,9.6-20.4,24.6v0.1
		c0,15,7.9,24.5,20.4,24.5S-2832.8,373.5-2832.8,358.5z"/>
	<path class="st1" d="M-2818.9,358.5L-2818.9,358.5c0-16.7,9.6-28.3,23.4-28.3c9.2,0,17,5.5,20.1,14.2h0.4v-35.2h3.9v76.5h-3.9
		v-13.8h-0.4c-3,9-10.7,14.6-20.1,14.6C-2809.3,386.6-2818.9,375.1-2818.9,358.5L-2818.9,358.5z M-2774.9,358.5L-2774.9,358.5
		c0-14.7-8.1-24.7-20-24.7s-20,10-20,24.6v0.1c0,14.6,8.1,24.5,20,24.5S-2774.9,373-2774.9,358.5z"/>
	<path class="st1" d="M-2755.5,366.8V331h4v34.7c0,10.7,6.2,17.3,16.5,17.3c11,0,18.3-7.9,18.3-19.3V331h4v54.7h-4v-11.2h-0.3
		c-2.6,7.6-9.6,12.2-18.7,12.2C-2747.9,386.6-2755.5,378.8-2755.5,366.8L-2755.5,366.8z"/>
	<path class="st1" d="M-2700,358.3L-2700,358.3c0-17.2,9.3-28.1,24.1-28.1c11.5,0,19.9,6.7,21.8,16.1l0,0h-3.9v-0.1
		c-1.9-7.4-8.7-12.5-17.7-12.5c-12.3,0-20.1,9.6-20.1,24.4v0.1c0,15,7.9,24.8,20.1,24.8c9,0,15.8-4.6,17.6-11.8l0.1-0.2h3.9v0.2
		c-2,9.3-10,15.4-21.6,15.4C-2690.7,386.6-2700,375.6-2700,358.3L-2700,358.3z"/>
	<path class="st1" d="M-2638.2,373v-38.5h-9V331h9v-14.2h4V331h13.3v3.5h-13.3v38c0,7.1,2.6,10.2,9.5,10.2c1.5,0,2.7-0.1,3.8-0.2
		v3.5c-1.4,0.2-2.6,0.4-4.2,0.4C-2634.5,386.1-2638.2,382.3-2638.2,373L-2638.2,373z"/>
	<path class="st1" d="M-2613.1,372.3h4.1c1.5,6.7,7.9,10.8,17.1,10.8s16-5,16-11.6l0,0c0-6-4.2-9.2-13.8-11.4l-6.4-1.5
		c-10-2.3-15-6.2-15-13.6v-0.1c0-8.5,8.6-14.7,18.9-14.7s18,5.3,19.4,13.6h-3.9c-1.2-6.1-7.4-10.1-15.5-10.1s-14.9,4.8-14.9,11.1
		v0.1c0,5.4,4.1,8.3,12.5,10.3l6.4,1.5c10.9,2.5,16.3,6.6,16.3,14.5v0.1c0,8.9-8.8,15.3-20,15.3S-2611.9,381.3-2613.1,372.3
		L-2613.1,372.3z"/>
	<path class="st1" d="M-2557.9,382.3c0-2.1,1.6-3.8,3.8-3.8s3.8,1.6,3.8,3.8s-1.7,3.7-3.8,3.7S-2557.9,384.5-2557.9,382.3z"/>
</g>
<g>
	<g>
		<path class="st1" d="M-3440.7,168.4h43.5v6.3h-36.5v27.5h33.6v6.2h-33.6v33.3h-7V168.4L-3440.7,168.4z"/>
		<path class="st1" d="M-3388.2,214.5L-3388.2,214.5c0-17.5,9.6-28.3,24.9-28.3s24.9,10.8,24.9,28.2v0.1c0,17.4-9.6,28.3-24.9,28.3
			S-3388.2,232-3388.2,214.5z M-3345.3,214.5L-3345.3,214.5c0-13.9-6.7-22.3-18-22.3s-18,8.4-18,22.2v0.1c0,13.8,6.7,22.3,18,22.3
			S-3345.3,228.3-3345.3,214.5z"/>
		<path class="st1" d="M-3326.6,187h6.7v9h0.7c2.1-6.2,7.5-9.9,14.9-9.9c2,0,3.8,0.2,5.1,0.5v6.6c-2-0.5-3.8-0.7-5.8-0.7
			c-8.5,0-14.8,6.2-14.8,15.1v34.2h-6.7L-3326.6,187L-3326.6,187z"/>
		<path class="st1" d="M-3264.1,168.4h7V201h42.9v-32.6h7v73.3h-7v-34.4h-42.9v34.4h-7V168.4L-3264.1,168.4z"/>
		<path class="st1" d="M-3192.4,222.6V187h6.7v33.9c0,10.2,4.7,15.8,14.1,15.8c10.2,0,16.3-6.8,16.3-17.1v-32.5h6.7v54.7h-6.7v-9.6
			h-0.6c-2.7,6.6-8.8,10.5-17.3,10.5C-3185.5,242.7-3192.4,235.3-3192.4,222.6L-3192.4,222.6z"/>
		<path class="st1" d="M-3134,187h6.7v9.7h0.7c2.3-6.6,8-10.6,15.5-10.6s13.2,4.2,15.5,10.8h0.7c2.8-6.6,9.2-10.8,17.1-10.8
			c11,0,17.3,6.6,17.3,18.2v37.5h-6.8v-35.9c0-9-4.3-13.7-12.5-13.7s-14.1,6.5-14.1,14.9v34.7h-6.7v-36.7c0-7.9-5-13-12.5-13
			s-14,7.1-14,16.1v33.6h-6.7L-3134,187L-3134,187z"/>
		<path class="st1" d="M-3049.7,226.7L-3049.7,226.7c0-9.6,7.1-15.1,19.7-16l17.1-1.1v-5.1c0-8-4.9-12.3-13.7-12.3
			c-7.4,0-12.7,3-14.1,8.4v0.1h-6.8v-0.2c1.4-8.7,9.7-14.3,21-14.3c12.8,0,20.3,6.7,20.3,18.2v37.4h-6.8v-9.3h-0.6
			c-3.2,6.5-9.8,10.3-17.9,10.3C-3042,242.7-3049.7,236.5-3049.7,226.7L-3049.7,226.7z M-3030.1,236.8c9.8,0,17.2-6.7,17.2-15.4
			v-6.3l-16.2,1.1c-9.3,0.6-13.8,4.1-13.8,10.3v0.1C-3042.8,232.8-3037.5,236.8-3030.1,236.8L-3030.1,236.8z"/>
		<path class="st1" d="M-2991.9,187h6.7v9.6h0.7c2.9-6.6,8.8-10.5,17.3-10.5c12.2,0,19.2,7.3,19.2,20.1v35.6h-6.7v-33.9
			c0-10.4-4.7-15.8-14.2-15.8s-16.2,6.8-16.2,17.1v32.5h-6.7L-2991.9,187L-2991.9,187z"/>
	</g>
	<g>
		<path class="st1" d="M-2822,211.1L-2822,211.1c0-23.6,12.4-38.3,32.3-38.3c15.1,0,27.3,10,29.3,23.9l0,0h-7l0,0
			c-2.1-10.3-11.2-17.4-22.2-17.4c-15.3,0-25.2,12.3-25.2,31.7v0.1c0,19.4,9.8,31.7,25.2,31.7c11.3,0,20.1-6.3,22.2-15.9l0,0h7v0.1
			c-2.1,13.4-13.7,22.4-29.2,22.4C-2809.6,249.3-2822,234.6-2822,211.1L-2822,211.1z"/>
		<path class="st1" d="M-2751.7,232.6L-2751.7,232.6c0-9.6,7.1-15.1,19.7-16l17.1-1.1v-5c0-8-4.9-12.3-13.7-12.3
			c-7.4,0-12.7,3-14.1,8.4v0.1h-6.8v-0.2c1.4-8.7,9.7-14.3,21-14.3c12.8,0,20.3,6.7,20.3,18.2v37.4h-6.8v-9.4h-0.6
			c-3.2,6.5-9.8,10.3-17.9,10.3C-2744,248.6-2751.7,242.5-2751.7,232.6L-2751.7,232.6z M-2732.1,242.7c9.8,0,17.2-6.7,17.2-15.4V221
			l-16.2,1.1c-9.3,0.6-13.8,4.1-13.8,10.3v0.1C-2744.8,238.7-2739.5,242.7-2732.1,242.7L-2732.1,242.7z"/>
		<path class="st1" d="M-2693.9,192.9h6.7v9.6h0.7c2.9-6.6,8.8-10.5,17.3-10.5c12.2,0,19.2,7.3,19.2,20.1v35.6h-6.7v-33.9
			c0-10.4-4.7-15.8-14.2-15.8s-16.2,6.8-16.2,17.1v32.5h-6.7L-2693.9,192.9L-2693.9,192.9z"/>
		<path class="st1" d="M-2609.6,174.3h8l27,64.2h0.6l27-64.2h8v73.3h-6.5v-59.8h-0.5l-25.3,59.8h-6l-25.3-59.8h-0.5v59.8h-6.5V174.3
			L-2609.6,174.3z"/>
		<path class="st1" d="M-2526.8,232.6L-2526.8,232.6c0-9.6,7.1-15.1,19.7-16l17.1-1.1v-5c0-8-4.9-12.3-13.7-12.3
			c-7.4,0-12.7,3-14.1,8.4v0.1h-6.8v-0.2c1.4-8.7,9.7-14.3,21-14.3c12.8,0,20.3,6.7,20.3,18.2v37.4h-6.8v-9.4h-0.6
			c-3.2,6.5-9.8,10.3-17.9,10.3C-2519.1,248.6-2526.8,242.5-2526.8,232.6L-2526.8,232.6z M-2507.2,242.7c9.8,0,17.2-6.7,17.2-15.4
			V221l-16.2,1.1c-9.3,0.6-13.8,4.1-13.8,10.3v0.1C-2519.9,238.7-2514.6,242.7-2507.2,242.7L-2507.2,242.7z"/>
		<path class="st1" d="M-2468.5,171.1h6.7v47.4h0.7l26.6-25.6h8.3l-24.7,23.2l25.8,31.6h-8.5l-22.1-27l-6.2,5.8v21.2h-6.7
			L-2468.5,171.1L-2468.5,171.1z"/>
		<path class="st1" d="M-2421.1,220.5L-2421.1,220.5c0-17.2,9.6-28.5,24.2-28.5c14.6,0,23.7,11,23.7,27.2v2.8h-41.1
			c0.2,12.8,7.2,20.5,18.1,20.5c8,0,13.5-3.8,15.2-8l0.2-0.4h6.8l-0.2,0.4c-2.1,7.4-10.1,14-22.2,14
			C-2411.6,248.6-2421.1,237.7-2421.1,220.5L-2421.1,220.5z M-2414.2,216.6h34.3c-0.8-12.2-7.5-18.5-16.9-18.5
			C-2406.2,198.1-2413.3,204.7-2414.2,216.6L-2414.2,216.6z"/>
	</g>
	<path class="st1" d="M-2902.3,231.8l-5.4,15.1c-0.6,1.7-2.3,2.2-3.6,1.7c-1.4-0.5-2.2-2.2-1.7-3.6l5.5-15.3l5.5-15.1v-13.7
		c0-0.6-0.3-1.2-0.9-1.5l-18.6-10c-1.4-0.7-1.9-2.4-1.2-3.8c0.7-1.3,2.4-1.8,3.8-1.1l18,9.5c2,1,4,1.5,6,1.5s3.9-0.5,5.9-1.5l18-9.5
		c1.4-0.7,3.1-0.2,3.8,1.1c0.7,1.4,0.2,3.1-1.2,3.8l-18.6,10c-0.6,0.3-0.9,0.9-0.9,1.5v13.7l5.5,15.1l5.5,15.3
		c0.5,1.4-0.2,3.1-1.7,3.6c-1.4,0.5-3,0-3.6-1.7l-5.5-15.1l-7.3-11.5L-2902.3,231.8L-2902.3,231.8z M-2901.5,185.6
		c0-3.6,2.9-6.5,6.6-6.5c3.6,0,6.5,2.9,6.5,6.5s-2.9,6.6-6.5,6.6C-2898.5,192.3-2901.5,189.3-2901.5,185.6z"/>
</g>
<g>
	<g>
		<path class="st1" d="M-3442.6,27.6h9.6l14.6,59.6h0.6l16.4-59.6h9.2l16.4,59.6h0.6l14.6-59.6h9.6l-20,73.3h-8.6l-16.9-57.9h-0.6
			l-16.9,58h-8.6L-3442.6,27.6L-3442.6,27.6z"/>
		<path class="st1" d="M-3340.3,24.4h8.8v30h0.8c2.7-5.8,7.9-9.2,16-9.2c12.3,0,19.2,7.3,19.2,20.3V101h-8.8V67.7
			c0-9.9-4.1-14.6-12.8-14.6s-14.3,5.9-14.3,15.5V101h-8.8L-3340.3,24.4L-3340.3,24.4z"/>
		<path class="st1" d="M-3284.9,73.6L-3284.9,73.6c0-17.7,9.7-28.4,25.3-28.4s25.3,10.7,25.3,28.3v0.1c0,17.5-9.7,28.3-25.3,28.3
			S-3284.9,91.3-3284.9,73.6z M-3243.4,73.6L-3243.4,73.6c0-13.1-5.9-20.6-16.2-20.6s-16.2,7.5-16.2,20.5v0.1
			c0,12.9,5.8,20.5,16.2,20.5S-3243.4,86.5-3243.4,73.6z"/>
		<path class="st1" d="M-3195.5,27.6h28.1c13.5,0,21.7,7.1,21.7,18.2v0.1c0,7.6-5.6,14.5-12.7,15.8v0.8c10,1.3,16.4,8.1,16.4,17.8
			v0.1c0,12.9-9.2,20.5-24.9,20.5h-28.6V27.6L-3195.5,27.6z M-3186.3,35.7v23.6h14.6c11.1,0,16.7-4,16.7-11.7l0,0
			c0-7.4-5.3-11.7-14.4-11.7L-3186.3,35.7L-3186.3,35.7z M-3186.3,67.1v25.8h18.1c11,0,16.8-4.5,16.8-12.9v-0.1
			c0-8.4-6-12.8-17.7-12.8H-3186.3L-3186.3,67.1z"/>
		<path class="st1" d="M-3133.5,73.8L-3133.5,73.8c0-17,9.7-28.6,24.5-28.6s23.9,11.1,23.9,27.5v3.5h-39.4
			c0.2,11.3,6.5,17.9,16.3,17.9c7.4,0,12-3.5,13.5-6.8l0.2-0.5h8.8l-0.1,0.4c-1.9,7.4-9.7,14.7-22.6,14.7
			C-3124.1,102-3133.5,91-3133.5,73.8L-3133.5,73.8z M-3124.3,69.1h30.3c-0.9-10.8-6.9-16-15-16S-3123.4,58.6-3124.3,69.1
			L-3124.3,69.1z"/>
		<path class="st1" d="M-3073.4,24.4h8.8v76.5h-8.8V24.4z"/>
		<path class="st1" d="M-3051.6,29.5c0-3.4,2.7-6.1,6.1-6.1c3.4,0,6.1,2.7,6.1,6.1s-2.8,6.1-6.1,6.1S-3051.6,32.9-3051.6,29.5z
			 M-3050,46.3h8.8v54.8h-8.8V46.3z"/>
		<path class="st1" d="M-3029.8,73.8L-3029.8,73.8c0-17,9.7-28.6,24.5-28.6c14.9,0,23.9,11.1,23.9,27.5v3.5h-39.4
			c0.2,11.3,6.5,17.9,16.3,17.9c7.4,0,12-3.5,13.5-6.8l0.2-0.5h8.8l-0.1,0.4c-1.9,7.4-9.7,14.7-22.6,14.7
			C-3020.4,102-3029.8,91-3029.8,73.8L-3029.8,73.8z M-3020.6,69.1h30.3c-0.9-10.8-6.9-16-15-16
			C-3013.4,53.1-3019.7,58.6-3020.6,69.1z"/>
		<path class="st1" d="M-2976,46.3h9.3l15,45.1h0.8l15-45.1h9.3l-20.3,54.8h-9L-2976,46.3L-2976,46.3z"/>
		<path class="st1" d="M-2922.2,73.8L-2922.2,73.8c0-17,9.7-28.6,24.5-28.6s23.9,11.1,23.9,27.5v3.5h-39.4
			c0.2,11.3,6.5,17.9,16.3,17.9c7.4,0,12-3.5,13.5-6.8l0.2-0.5h8.8l-0.1,0.4c-1.9,7.4-9.7,14.7-22.6,14.7
			C-2912.8,102-2922.2,91-2922.2,73.8L-2922.2,73.8z M-2913,69.1h30.3c-0.9-10.8-6.9-16-15-16S-2912,58.6-2913,69.1z"/>
		<path class="st1" d="M-2865.4,87h9c1.5,4.6,5.8,7.6,12.9,7.6c7.4,0,12.6-3.5,12.6-8.5V86c0-3.7-2.8-6.3-9.6-7.9l-8.5-2
			c-10.3-2.4-14.9-6.9-14.9-14.8l0,0c0-9.1,8.7-16,20.4-16s19.5,5.7,20.7,14.7h-8.7c-1.2-4.3-5.4-7.3-12-7.3s-11.3,3.4-11.3,8.2V61
			c0,3.7,2.7,6,9.2,7.6l8.4,2c10.3,2.5,15.3,7,15.3,14.8v0.1c0,9.8-9.5,16.5-22,16.5S-2864.4,96-2865.4,87L-2865.4,87z"/>
	</g>
	<g>
		<path class="st1" d="M-2684.7,27.6h9.2v65.1h35.4v8.2h-44.5L-2684.7,27.6C-2684.6,27.6-2684.7,27.6-2684.7,27.6z"/>
		<path class="st1" d="M-2634.6,73.6L-2634.6,73.6c0-17.7,9.7-28.4,25.3-28.4s25.3,10.7,25.3,28.3v0.1c0,17.5-9.7,28.3-25.3,28.3
			C-2624.9,101.9-2634.6,91.3-2634.6,73.6z M-2593.2,73.6L-2593.2,73.6c0-13.1-5.8-20.6-16.2-20.6s-16.2,7.5-16.2,20.5v0.1
			c0,12.9,5.8,20.5,16.2,20.5S-2593.2,86.5-2593.2,73.6z"/>
		<path class="st1" d="M-2579.8,46.3h9.3l15,45.1h0.8l15-45.1h9.3l-20.3,54.8h-9L-2579.8,46.3L-2579.8,46.3z"/>
		<path class="st1" d="M-2526,73.8L-2526,73.8c0-17,9.7-28.6,24.5-28.6c14.9,0,23.9,11.1,23.9,27.5v3.5h-39.4
			c0.3,11.3,6.5,17.9,16.3,17.9c7.4,0,12-3.5,13.5-6.8l0.2-0.5h8.8l-0.1,0.4c-1.9,7.4-9.7,14.7-22.6,14.7
			C-2516.5,102-2526,91-2526,73.8L-2526,73.8z M-2516.8,69.1h30.3c-0.9-10.8-6.9-16-15-16S-2515.8,58.6-2516.8,69.1z"/>
	</g>
	<path class="st1" d="M-2718.8,70.4l-27.5,27.4c-0.8,0.8-1.7,1.2-2.7,1.2c-2,0-3.6-1.5-3.6-3.6c0-1,0.3-2,1-2.6l9.3-9.4l13.9-12.7
		l-10,0.6h-52.3c-2.1,0-3.6-1.5-3.6-3.7c0-2.1,1.5-3.7,3.6-3.7h52.3l10,0.6l-13.9-12.7l-9.3-9.4c-0.7-0.7-1-1.6-1-2.6
		c0-2.1,1.6-3.6,3.6-3.6c1,0,1.9,0.3,2.8,1.2l27.4,27.3c0.8,0.8,1.2,1.7,1.2,2.8S-2718,69.7-2718.8,70.4L-2718.8,70.4z"/>
	<path class="st1" d="M-2432.7,32.8c7.5,0,13.6,3.6,17.2,9c3.7-5.4,9.7-9,17.2-9c13.1,0,22.9,10.1,22.9,24.4
		c0,17.2-14.4,34.1-37.1,48.6c-0.9,0.5-2.1,1.1-2.9,1.1c-0.9,0-2.1-0.6-2.9-1.1c-22.8-14.5-37.2-31.4-37.2-48.6
		C-2455.5,42.9-2445.7,32.8-2432.7,32.8L-2432.7,32.8z M-2416.3,99.6c0.4,0.3,0.6,0.5,0.8,0.5s0.4-0.2,0.8-0.5
		c16.9-11.2,32.7-27.4,32.7-42.4c0-10.7-6.9-17.9-16.3-17.9c-7.6,0-11.7,4.8-14.5,8.8c-1.2,1.6-1.8,2.1-2.7,2.1
		c-1,0-1.7-0.4-2.7-2.1c-2.6-4-6.9-8.8-14.5-8.8c-9.4,0-16.3,7.1-16.3,17.9C-2449,72.3-2433.2,88.4-2416.3,99.6z"/>
</g>
<line class="st0" x1="-3471.2" y1="-151.9" x2="-2348.8" y2="-151.9"/>
<line class="st0" x1="-3471.2" y1="-9.7" x2="-2348.8" y2="-9.7"/>
<line class="st0" x1="-3471.2" y1="135.3" x2="-2348.8" y2="135.3"/>
<line class="st0" x1="-3471.2" y1="276" x2="-2348.8" y2="276"/>
<g>
	<g>
		<g>
			<path class="st1" d="M-1214.4-986.7h28.6c14.4,0,24.4,9.7,24.4,24v0.1c0,14.3-10,24.1-24.4,24.1h-17.2v25.1h-11.4V-986.7
				L-1214.4-986.7z M-1203-977.1v29.1h14.3c9.9,0,15.6-5.3,15.6-14.5v-0.1c0-9.2-5.7-14.5-15.6-14.5H-1203L-1203-977.1z"/>
			<path class="st1" d="M-1150.7-968.5h11v8.3h0.8c2-5.8,7.1-9.3,14.5-9.3c1.8,0,3.7,0.2,4.8,0.5v10.2c-2-0.4-3.9-0.7-5.9-0.7
				c-8.4,0-14.2,5.2-14.2,13.2v33h-11L-1150.7-968.5L-1150.7-968.5z"/>
			<path class="st1" d="M-1115.8-940.9L-1115.8-940.9c0-17.8,10-28.7,26.1-28.7s26.1,10.8,26.1,28.6v0.1c0,17.8-9.9,28.6-26.1,28.6
				C-1105.9-912.3-1115.8-923-1115.8-940.9L-1115.8-940.9z M-1074.8-940.9L-1074.8-940.9c0-12.3-5.4-19.5-14.8-19.5
				s-14.8,7.2-14.8,19.4v0.1c0,12.2,5.3,19.4,14.8,19.4S-1074.8-928.7-1074.8-940.9L-1074.8-940.9z"/>
			<path class="st1" d="M-1055.8-940.9L-1055.8-940.9c0-17.6,8.8-28.6,22.9-28.6c7.6,0,14,3.8,17,9.7h0.9v-30.4h11v76.9h-11v-8.7
				h-0.9c-3.2,6-9.2,9.6-17,9.6C-1046.8-912.4-1055.8-923.5-1055.8-940.9L-1055.8-940.9z M-1015-940.9L-1015-940.9
				c0-11.9-5.7-19.2-14.8-19.2c-9.1,0-14.8,7.2-14.8,19.1v0.1c0,11.8,5.5,19.1,14.8,19.1C-1020.5-921.8-1015-929-1015-940.9z"/>
			<path class="st1" d="M-990.9-932.7v-35.7h11v33.1c0,9.2,3.4,13.7,11.4,13.7c8.8,0,13.6-5.5,13.6-14.4v-32.4h11v55.2h-11v-8.3
				h-0.9c-2.6,6-8.2,9.4-16.3,9.4C-984.4-912.3-990.9-919.7-990.9-932.7L-990.9-932.7z"/>
			<path class="st1" d="M-933.3-941L-933.3-941c0-17.6,9.8-28.5,25.9-28.5c13.9,0,22.2,7.8,23.7,18.5v0.2h-10.6v-0.1
				c-1.2-5.4-5.7-9.5-13-9.5c-9.2,0-14.7,7.3-14.7,19.2v0.1c0,12.2,5.6,19.6,14.7,19.6c6.9,0,11.2-3.1,13-9.1l0.1-0.2h10.6l-0.1,0.5
				c-2,10.7-9.9,18.1-23.5,18.1C-923.5-912.3-933.3-923.3-933.3-941L-933.3-941z"/>
			<path class="st1" d="M-869.4-927.9v-32h-8.6v-8.7h8.6v-13.9h11.2v13.9h11.8v8.7h-11.8v29.3c0,6,2.2,8.4,7.7,8.4
				c1.7,0,2.6,0,4.2-0.2v8.8c-1.8,0.3-3.8,0.6-6,0.6C-864.4-913-869.4-917.3-869.4-927.9L-869.4-927.9z"/>
			<path class="st1" d="M-809-986.7h26.5c21.8,0,34.5,13.4,34.5,36.4v0.1c0,23.3-12.7,36.8-34.5,36.8H-809V-986.7z M-783.7-923.2
				c15.3,0,24.2-9.8,24.2-26.8v-0.1c0-16.9-9-26.8-24.2-26.8h-13.8v53.7H-783.7L-783.7-923.2z"/>
			<path class="st1" d="M-739.2-940.7L-739.2-940.7c0-17.3,10-28.8,25.4-28.8s24.9,11.1,24.9,27.7v3.9H-728
				c0.2,10.6,6,16.7,15.1,16.7c7.1,0,11.3-3.5,12.6-6.3l0.2-0.4h10.6l-0.1,0.5c-1.8,7.3-9.5,15.4-23.6,15.4
				C-729.4-912.3-739.2-923.3-739.2-940.7L-739.2-940.7z M-728-945.9h28.1c-0.9-9.9-6.4-14.6-13.9-14.6S-727-955.4-728-945.9z"/>
			<path class="st1" d="M-681.2-927.7L-681.2-927.7h11l0,0c1.4,4.2,5.4,7,11.9,7s11.5-3.1,11.5-7.6v-0.1c0-3.5-2.6-5.8-9-7.3l-8.8-2
				c-10.4-2.4-15.2-7.1-15.2-15.2v-0.1c0-9.6,9-16.5,21.5-16.5s20.7,6.3,21.7,15.3l0,0h-10.5v-0.1c-1.1-3.9-5-6.8-11.2-6.8
				s-10.4,3-10.4,7.4v0.1c0,3.5,2.5,5.6,8.7,7.1l8.7,2c10.6,2.5,15.7,7,15.7,15v0.1c0,10.2-9.8,17.2-22.9,17.2
				S-680.1-918.5-681.2-927.7L-681.2-927.7z"/>
			<path class="st1" d="M-626.1-985.3c0-3.8,3.1-6.9,6.9-6.9s6.9,3.1,6.9,6.9s-3.2,6.9-6.9,6.9S-626.1-981.4-626.1-985.3z
				 M-624.8-968.5h11v55.2h-11V-968.5L-624.8-968.5z"/>
			<path class="st1" d="M-601-909.2L-601-909.2l11.2-0.1v0.1c0.9,3.8,5.4,6.5,12.9,6.5c9.1,0,14.5-4.3,14.5-11.8v-10.9h-0.8
				c-3.3,6-9.5,9.4-17,9.4c-14.2,0-22.9-10.9-22.9-26.5v-0.1c0-15.8,8.8-26.9,23.1-26.9c7.7,0,13.7,3.8,16.9,10h0.7v-9h11v54.1
				c0,12.5-9.9,20.6-25.6,20.6C-591-893.9-599.7-900-601-909.2L-601-909.2z M-562.1-942.5L-562.1-942.5c0-10.4-5.7-17.6-15-17.6
				s-14.7,7.2-14.7,17.5v0.1c0,10.3,5.3,17.4,14.7,17.4S-562.1-932.3-562.1-942.5z"/>
			<path class="st1" d="M-538.2-968.5h11v8.4h0.8c2.7-5.9,8-9.5,16-9.5c12.3,0,19.2,7.4,19.2,20.5v35.7h-11v-33
				c0-9.2-3.8-13.7-11.9-13.7c-8.1,0-13.1,5.5-13.1,14.4v32.4h-11V-968.5z"/>
			<path class="st1" d="M-481.1-940.7L-481.1-940.7c0-17.3,10-28.8,25.4-28.8s24.8,11.1,24.8,27.7v3.9H-470
				c0.2,10.6,6,16.7,15.1,16.7c7.1,0,11.3-3.5,12.6-6.3l0.2-0.4h10.6l-0.1,0.5c-1.8,7.3-9.5,15.4-23.6,15.4
				C-471.4-912.3-481.1-923.3-481.1-940.7L-481.1-940.7z M-469.9-945.9h28.1c-0.9-9.9-6.4-14.6-13.9-14.6S-468.9-955.4-469.9-945.9z
				"/>
			<path class="st1" d="M-420.4-968.5h11v8.3h0.8c2-5.8,7.1-9.3,14.5-9.3c1.8,0,3.7,0.2,4.8,0.5v10.2c-2-0.4-3.9-0.7-6-0.7
				c-8.4,0-14.2,5.2-14.2,13.2v33h-11v-55.2H-420.4z"/>
		</g>
		<path class="st1" d="M-347-942.3h-13.3c-2.4,0-4.5-2.1-4.5-4.5s2.1-4.5,4.5-4.5h13.3c2.4,0,4.5,2.1,4.5,4.5
			S-344.6-942.3-347-942.3z M-341.1-967l-9.2-9.3c-1.7-1.7-1.7-4.6,0-6.4c1.7-1.7,4.7-1.7,6.4,0l9.2,9.3c1.7,1.7,1.7,4.7-0.1,6.4
			C-336.5-965.2-339.4-965.2-341.1-967L-341.1-967z M-334.4-920.5l-9.3,9.3c-1.8,1.7-4.7,1.7-6.5-0.1c-1.7-1.7-1.7-4.7,0.1-6.4
			l9.3-9.2c1.7-1.7,4.7-1.7,6.4,0C-332.6-925.2-332.6-922.3-334.4-920.5L-334.4-920.5z M-319-979.3v-13.3c0-2.4,2.1-4.6,4.5-4.6
			s4.5,2.1,4.5,4.6v13.3c0,2.4-2.1,4.5-4.5,4.5S-319-976.9-319-979.3z M-317.6-951.3c0-1.9,2-2.6,3.3-1.3l25.1,25.7
			c1.4,1.5,0.4,3.4-1.5,3.5l-9.5,0.3l8,18.4c0.4,1,0.2,2.2-0.9,2.7l-4.6,1.8c-1.1,0.4-2.1-0.2-2.6-1.2l-7.5-18.7l-6.6,6.7
			c-1.3,1.3-3.7,0.6-3.6-1.4L-317.6-951.3L-317.6-951.3z M-294.6-972.9l9.3-9.3c1.8-1.7,4.7-1.8,6.4,0c1.7,1.8,1.7,4.7,0,6.4
			l-9.3,9.3c-1.7,1.7-4.7,1.7-6.4,0C-296.4-968.3-296.4-971.2-294.6-972.9L-294.6-972.9z M-281.9-951.3h13.3c2.4,0,4.5,2.1,4.5,4.5
			s-2.1,4.5-4.5,4.5h-13.3c-2.4,0-4.5-2.1-4.5-4.5S-284.4-951.3-281.9-951.3z"/>
	</g>
	<g>
		<path class="st1" d="M-1098-529.8h24c13.6,0,22.1,7.1,22.1,17.8v0.1c0,8.7-5.7,15.5-14.4,17.1v0.3c10,1.3,18.3,7.8,18.3,18.5v0.1
			c0,11.9-8.6,19.4-25.8,19.4h-24.2V-529.8L-1098-529.8z M-1094-526.3v30.1h18.8c11.7,0,19.3-5.8,19.3-15.4v-0.1
			c0-8.9-7.1-14.6-18.6-14.6H-1094z M-1094-492.5v32.3h19.7c15,0,22.1-6.1,22.1-15.9v-0.1c0-10.2-8.8-16.3-22.4-16.3H-1094
			L-1094-492.5z"/>
		<path class="st1" d="M-1038.6-483.7L-1038.6-483.7c0-17.4,9.5-28.4,23.9-28.4s23.5,10.9,23.5,26.9v2h-43.4
			c0.1,14.7,8.2,23.9,20.5,23.9c8.7,0,15.5-4.1,17.7-9.6l0.1-0.3h4l-0.1,0.4c-2.5,7.4-10.7,13.1-21.8,13.1
			C-1029.2-455.7-1038.6-466.7-1038.6-483.7L-1038.6-483.7z M-1034.6-486.6h39.5c-0.6-13.8-8.3-22-19.6-22
			C-1026-508.6-1034-500.3-1034.6-486.6L-1034.6-486.6z"/>
		<path class="st1" d="M-975.4-469.3v-38.5h-9v-3.5h9v-14.2h4v14.2h13.3v3.5h-13.3v37.9c0,7.1,2.6,10.2,9.5,10.2
			c1.5,0,2.7-0.1,3.8-0.2v3.5c-1.4,0.2-2.6,0.4-4.2,0.4C-971.6-456.2-975.4-460.1-975.4-469.3L-975.4-469.3z"/>
		<path class="st1" d="M-942.6-469.3v-38.5h-9v-3.5h9v-14.2h4v14.2h13.3v3.5h-13.3v37.9c0,7.1,2.6,10.2,9.5,10.2
			c1.5,0,2.7-0.1,3.8-0.2v3.5c-1.4,0.2-2.6,0.4-4.2,0.4C-938.8-456.2-942.6-460.1-942.6-469.3L-942.6-469.3z"/>
		<path class="st1" d="M-917.1-483.7L-917.1-483.7c0-17.4,9.5-28.4,23.9-28.4s23.5,10.9,23.5,26.9v2h-43.4
			c0.1,14.7,8.2,23.9,20.5,23.9c8.7,0,15.5-4.1,17.7-9.6l0.1-0.3h4l-0.1,0.4c-2.5,7.4-10.7,13.1-21.8,13.1
			C-907.6-455.7-917.1-466.7-917.1-483.7L-917.1-483.7z M-913.1-486.6h39.5c-0.6-13.8-8.3-22-19.6-22
			C-904.5-508.6-912.5-500.3-913.1-486.6L-913.1-486.6z"/>
		<path class="st1" d="M-857-511.3h3.9v10.2h0.4c2.2-6.9,7.8-11,15.2-11c2.4,0,4.2,0.2,6.1,0.8v3.9c-2.1-0.7-4-1-6.3-1
			c-8.7,0-15.3,7.5-15.3,17.4v34.4h-3.9L-857-511.3L-857-511.3z"/>
		<path class="st1" d="M-797.5-529.8h23.8c14.2,0,23.6,8.5,23.6,21.8v0.1c0,13.3-9.3,21.9-23.6,21.9h-19.8v29.6h-4V-529.8
			L-797.5-529.8z M-793.5-526.3v36.4h19.2c12.4,0,20.1-6.9,20.1-18.2v-0.1c0-11.3-7.7-18.1-20.1-18.1L-793.5-526.3L-793.5-526.3z"/>
		<path class="st1" d="M-737.9-511.3h3.9v10.2h0.4c2.2-6.9,7.8-11,15.2-11c2.4,0,4.2,0.2,6.1,0.8v3.9c-2.1-0.7-4-1-6.3-1
			c-8.7,0-15.3,7.5-15.3,17.4v34.4h-3.9L-737.9-511.3L-737.9-511.3z"/>
		<path class="st1" d="M-707.4-483.8L-707.4-483.8c0-17.4,9.5-28.3,24.4-28.3s24.4,10.9,24.4,28.2v0.1c0,17.2-9.5,28.2-24.4,28.2
			S-707.4-466.7-707.4-483.8z M-662.6-483.8L-662.6-483.8c0-15.1-7.9-24.7-20.4-24.7s-20.4,9.6-20.4,24.6v0.1
			c0,15,7.9,24.5,20.4,24.5S-662.6-468.8-662.6-483.8z"/>
		<path class="st1" d="M-648.7-483.8L-648.7-483.8c0-16.7,9.6-28.3,23.4-28.3c9.2,0,17,5.5,20.1,14.2h0.4v-35.2h3.9v76.5h-3.9v-13.9
			h-0.4c-3,9-10.7,14.6-20.1,14.6C-639.1-455.7-648.7-467.3-648.7-483.8L-648.7-483.8z M-604.7-483.8L-604.7-483.8
			c0-14.7-8.1-24.7-20-24.7s-20,10-20,24.6v0.1c0,14.6,8.1,24.5,20,24.5S-604.7-469.3-604.7-483.8z"/>
		<path class="st1" d="M-585.3-475.5v-35.8h4v34.7c0,10.7,6.2,17.3,16.5,17.3c11,0,18.3-7.9,18.3-19.3v-32.7h4v54.7h-4v-11.3h-0.3
			c-2.6,7.6-9.6,12.2-18.7,12.2C-577.7-455.7-585.3-463.5-585.3-475.5L-585.3-475.5z"/>
		<path class="st1" d="M-529.8-484.1L-529.8-484.1c0-17.2,9.3-28.1,24.1-28.1c11.5,0,19.9,6.7,21.8,16.1l0,0h-3.9v-0.1
			c-1.9-7.4-8.7-12.5-17.7-12.5c-12.3,0-20.1,9.6-20.1,24.4v0.1c0,15,7.9,24.8,20.1,24.8c9,0,15.8-4.6,17.6-11.8l0.1-0.2h3.9v0.2
			c-2,9.3-10,15.4-21.6,15.4C-520.5-455.7-529.8-466.7-529.8-484.1L-529.8-484.1z"/>
		<path class="st1" d="M-468-469.3v-38.5h-9v-3.5h9v-14.2h4v14.2h13.3v3.5H-464v37.9c0,7.1,2.6,10.2,9.5,10.2c1.5,0,2.7-0.1,3.8-0.2
			v3.5c-1.4,0.2-2.6,0.4-4.2,0.4C-464.3-456.2-468-460.1-468-469.3L-468-469.3z"/>
		<path class="st1" d="M-442.9-470h4.1c1.5,6.7,7.9,10.8,17.1,10.8s16-5,16-11.6v-0.1c0-6-4.2-9.2-13.8-11.4l-6.4-1.5
			c-10-2.3-15-6.2-15-13.6v-0.1c0-8.5,8.6-14.7,18.9-14.7s18,5.3,19.4,13.6h-3.9c-1.2-6.1-7.4-10.1-15.5-10.1s-14.9,4.8-14.9,11.1
			v0.1c0,5.4,4.1,8.3,12.5,10.3l6.4,1.5c10.9,2.5,16.3,6.6,16.3,14.5v0.1c0,8.9-8.8,15.3-20,15.3S-441.7-461.2-442.9-470L-442.9-470
			z"/>
		<path class="st1" d="M-387.7-460c0-2.1,1.6-3.8,3.8-3.8s3.8,1.6,3.8,3.8s-1.7,3.7-3.8,3.7S-387.7-457.9-387.7-460z"/>
	</g>
	<g>
		<g>
			<path class="st1" d="M-1270.5-680.3h43.5v6.3h-36.5v27.5h33.6v6.2h-33.6v33.3h-7V-680.3L-1270.5-680.3z"/>
			<path class="st1" d="M-1218-634.3L-1218-634.3c0-17.5,9.6-28.3,24.9-28.3s24.9,10.8,24.9,28.2v0.1c0,17.4-9.6,28.3-24.9,28.3
				C-1208.4-605.9-1218-616.8-1218-634.3z M-1175.1-634.3L-1175.1-634.3c0-13.9-6.7-22.3-18-22.3s-18,8.4-18,22.2v0.1
				c0,13.8,6.7,22.3,18,22.3S-1175.1-620.5-1175.1-634.3z"/>
			<path class="st1" d="M-1156.4-661.7h6.7v9h0.7c2.1-6.2,7.5-9.9,14.9-9.9c2,0,3.8,0.2,5.1,0.5v6.6c-2-0.5-3.8-0.7-5.8-0.7
				c-8.5,0-14.8,6.2-14.8,15.1v34.2h-6.7L-1156.4-661.7L-1156.4-661.7z"/>
			<path class="st1" d="M-1093.9-680.3h7v32.6h42.9v-32.6h7v73.3h-7v-34.4h-42.9v34.4h-7V-680.3L-1093.9-680.3z"/>
			<path class="st1" d="M-1022.2-626.1v-35.6h6.7v33.9c0,10.2,4.7,15.8,14.1,15.8c10.2,0,16.3-6.8,16.3-17.1v-32.5h6.7v54.7h-6.7
				v-9.6h-0.6c-2.7,6.6-8.8,10.5-17.3,10.5C-1015.3-606.1-1022.2-613.6-1022.2-626.1L-1022.2-626.1z"/>
			<path class="st1" d="M-963.8-661.7h6.7v9.7h0.7c2.3-6.6,8-10.6,15.5-10.6s13.2,4.2,15.5,10.8h0.7c2.8-6.6,9.2-10.8,17.1-10.8
				c11,0,17.3,6.6,17.3,18.2v37.5h-6.8v-35.9c0-9-4.3-13.7-12.5-13.7s-14.1,6.5-14.1,14.9v34.7h-6.7v-36.7c0-7.9-5-13-12.5-13
				s-14,7.1-14,16.1v33.6h-6.7L-963.8-661.7L-963.8-661.7z"/>
			<path class="st1" d="M-879.5-622.1L-879.5-622.1c0-9.6,7.1-15.1,19.7-16l17.1-1.1v-5.1c0-8-4.9-12.3-13.7-12.3
				c-7.4,0-12.7,3-14.1,8.4v0.1h-6.8v-0.2c1.4-8.7,9.7-14.3,21-14.3c12.8,0,20.3,6.7,20.3,18.2v37.4h-6.8v-9.4h-0.6
				c-3.2,6.5-9.8,10.3-17.9,10.3C-871.8-606-879.5-612.3-879.5-622.1L-879.5-622.1z M-859.9-612c9.8,0,17.2-6.7,17.2-15.4v-6.3
				l-16.2,1.1c-9.3,0.6-13.8,4.1-13.8,10.3v0.1C-872.6-615.8-867.3-612-859.9-612L-859.9-612z"/>
			<path class="st1" d="M-821.7-661.7h6.7v9.6h0.7c2.9-6.6,8.8-10.5,17.3-10.5c12.2,0,19.2,7.3,19.2,20.1v35.6h-6.7v-33.9
				c0-10.4-4.7-15.8-14.2-15.8s-16.2,6.8-16.2,17.1v32.5h-6.7L-821.7-661.7L-821.7-661.7z"/>
		</g>
		<g>
			<path class="st1" d="M-651.8-644.2L-651.8-644.2c0-23.6,12.4-38.3,32.3-38.3c15.1,0,27.3,10,29.3,23.9l0,0h-7l0,0
				c-2.1-10.3-11.2-17.4-22.2-17.4c-15.3,0-25.2,12.3-25.2,31.7v0.1c0,19.4,9.8,31.7,25.2,31.7c11.3,0,20.1-6.3,22.2-15.9l0,0h7v0.1
				c-2.1,13.4-13.7,22.4-29.2,22.4C-639.4-606.1-651.8-620.7-651.8-644.2L-651.8-644.2z"/>
			<path class="st1" d="M-581.5-622.7L-581.5-622.7c0-9.6,7.1-15.1,19.7-16l17.1-1.1v-5.1c0-8-4.9-12.3-13.7-12.3
				c-7.4,0-12.7,3-14.1,8.4v0.1h-6.8v-0.2c1.4-8.7,9.7-14.3,21-14.3c12.8,0,20.3,6.7,20.3,18.2v37.4h-6.8v-9.4h-0.6
				c-3.2,6.5-9.8,10.3-17.9,10.3C-573.8-606.7-581.5-612.8-581.5-622.7L-581.5-622.7z M-561.9-612.6c9.8,0,17.2-6.7,17.2-15.4v-6.3
				l-16.2,1.1c-9.3,0.6-13.8,4.1-13.8,10.3v0.1C-574.6-616.5-569.3-612.6-561.9-612.6L-561.9-612.6z"/>
			<path class="st1" d="M-523.7-662.3h6.7v9.6h0.7c2.9-6.6,8.8-10.5,17.3-10.5c12.2,0,19.2,7.3,19.2,20.1v35.6h-6.7v-34
				c0-10.4-4.7-15.8-14.2-15.8s-16.2,6.8-16.2,17.1v32.5h-6.7L-523.7-662.3L-523.7-662.3z"/>
			<path class="st1" d="M-439.4-680.8h8l27,64.2h0.6l27-64.2h8v73.3h-6.5v-59.8h-0.5l-25.3,59.8h-6l-25.3-59.8h-0.5v59.8h-6.5
				L-439.4-680.8L-439.4-680.8z"/>
			<path class="st1" d="M-356.6-622.7L-356.6-622.7c0-9.6,7.1-15.1,19.7-16l17.1-1.1v-5.1c0-8-4.9-12.3-13.7-12.3
				c-7.4,0-12.7,3-14.1,8.4v0.1h-6.8v-0.2c1.4-8.7,9.7-14.3,21-14.3c12.8,0,20.3,6.7,20.3,18.2v37.4h-6.8v-9.4h-0.6
				c-3.2,6.5-9.8,10.3-17.9,10.3C-348.9-606.7-356.6-612.8-356.6-622.7L-356.6-622.7z M-337-612.6c9.8,0,17.2-6.7,17.2-15.4v-6.3
				l-16.2,1.1c-9.3,0.6-13.8,4.1-13.8,10.3v0.1C-349.7-616.5-344.4-612.6-337-612.6L-337-612.6z"/>
			<path class="st1" d="M-298.3-684.1h6.7v47.4h0.7l26.6-25.6h8.3l-24.7,23.2l25.8,31.6h-8.5l-22.1-27l-6.2,5.8v21.2h-6.7
				L-298.3-684.1L-298.3-684.1z"/>
			<path class="st1" d="M-250.9-634.7L-250.9-634.7c0-17.2,9.6-28.5,24.2-28.5s23.7,11,23.7,27.2v2.8h-41.1
				c0.2,12.8,7.2,20.5,18.1,20.5c8,0,13.5-3.8,15.2-8l0.2-0.4h6.8l-0.2,0.4c-2.1,7.4-10.1,14-22.2,14
				C-241.4-606.7-250.9-617.6-250.9-634.7L-250.9-634.7z M-244-638.7h34.3c-0.8-12.2-7.5-18.5-16.9-18.5S-243.1-650.5-244-638.7
				L-244-638.7z"/>
		</g>
		<path class="st1" d="M-723.3-623.7l-5.9,16.3c-0.7,1.8-2.4,2.4-3.9,1.9c-1.6-0.5-2.4-2.3-1.8-3.9l6-16.5l6-16.4v-14.9
			c0-0.7-0.4-1.3-1-1.6l-20.2-10.8c-1.5-0.8-2.1-2.6-1.2-4.1c0.8-1.5,2.6-2,4.1-1.2l19.5,10.3c2.2,1.1,4.3,1.7,6.5,1.7
			s4.3-0.5,6.4-1.7l19.5-10.3c1.5-0.8,3.3-0.2,4.1,1.2c0.8,1.5,0.2,3.3-1.2,4.1l-20.2,10.8c-0.6,0.3-1,1-1,1.6v14.9l6,16.4l6,16.5
			c0.5,1.6-0.2,3.4-1.8,3.9c-1.5,0.5-3.2,0-3.9-1.9l-5.9-16.3l-7.9-12.5L-723.3-623.7L-723.3-623.7z M-722.4-673.8
			c0-3.9,3.2-7,7.1-7s7,3.2,7,7s-3.2,7.1-7,7.1S-722.4-669.8-722.4-673.8z"/>
	</g>
	<g>
		<g>
			<path class="st1" d="M-1292-833.4h9.6l14.6,59.7h0.6l16.4-59.6h9.2l16.4,59.6h0.6l14.6-59.6h9.6l-20,73.3h-8.6l-16.8-57.9h-0.6
				l-16.9,57.9h-8.6L-1292-833.4L-1292-833.4z"/>
			<path class="st1" d="M-1189.7-836.5h8.8v30h0.8c2.7-5.8,7.9-9.2,16-9.2c12.3,0,19.2,7.3,19.2,20.3v35.5h-8.8v-33.3
				c0-9.9-4.1-14.6-12.8-14.6c-8.7,0-14.3,5.9-14.3,15.5v32.4h-8.8L-1189.7-836.5L-1189.7-836.5z"/>
			<path class="st1" d="M-1134.3-787.3L-1134.3-787.3c0-17.7,9.7-28.4,25.3-28.4s25.3,10.7,25.3,28.3v0.1c0,17.5-9.7,28.3-25.3,28.3
				S-1134.3-769.7-1134.3-787.3z M-1092.8-787.3L-1092.8-787.3c0-13.1-5.9-20.6-16.2-20.6s-16.2,7.5-16.2,20.5v0.1
				c0,12.9,5.8,20.5,16.2,20.5S-1092.8-774.3-1092.8-787.3z"/>
			<path class="st1" d="M-1044.8-833.4h28c13.5,0,21.7,7.1,21.7,18.2v0.1c0,7.6-5.6,14.5-12.7,15.8v0.8c10,1.3,16.4,8.1,16.4,17.8
				v0.1c0,12.9-9.2,20.5-24.9,20.5h-28.5V-833.4L-1044.8-833.4z M-1035.7-825.3v23.5h14.6c11.1,0,16.7-4,16.7-11.7v-0.1
				c0-7.4-5.3-11.7-14.4-11.7H-1035.7z M-1035.7-793.8v25.8h18.1c11,0,16.8-4.5,16.8-12.9v-0.1c0-8.4-6-12.8-17.7-12.8H-1035.7
				L-1035.7-793.8z"/>
			<path class="st1" d="M-982.9-787.2L-982.9-787.2c0-17,9.7-28.6,24.5-28.6s23.9,11.1,23.9,27.5v3.5h-39.3
				c0.2,11.3,6.5,17.9,16.3,17.9c7.4,0,12-3.5,13.5-6.8l0.2-0.5h8.8l-0.1,0.4c-1.9,7.4-9.7,14.7-22.6,14.7
				C-973.4-759-982.9-770-982.9-787.2L-982.9-787.2z M-973.7-791.8h30.3c-0.9-10.8-6.9-16-15-16S-972.7-802.3-973.7-791.8
				L-973.7-791.8z"/>
			<path class="st1" d="M-922.8-836.5h8.8v76.5h-8.8V-836.5z"/>
			<path class="st1" d="M-901-831.5c0-3.3,2.7-6.1,6.1-6.1c3.4,0,6.1,2.7,6.1,6.1c0,3.4-2.8,6.1-6.1,6.1S-901-828-901-831.5z
				 M-899.3-814.7h8.8v54.8h-8.8V-814.7z"/>
			<path class="st1" d="M-879.2-787.2L-879.2-787.2c0-17,9.7-28.6,24.5-28.6c14.9,0,23.9,11.1,23.9,27.5v3.5h-39.4
				c0.2,11.3,6.5,17.9,16.3,17.9c7.4,0,12-3.5,13.5-6.8l0.2-0.5h8.8l-0.1,0.4c-1.9,7.4-9.7,14.7-22.6,14.7
				C-869.7-759-879.2-770-879.2-787.2L-879.2-787.2z M-870-791.8h30.3c-0.9-10.8-6.9-16-15-16S-869-802.3-870-791.8z"/>
			<path class="st1" d="M-825.4-814.7h9.3l15,45.1h0.8l15-45.1h9.3l-20.3,54.8h-9L-825.4-814.7L-825.4-814.7z"/>
			<path class="st1" d="M-771.5-787.2L-771.5-787.2c0-17,9.7-28.6,24.5-28.6s23.9,11.1,23.9,27.5v3.5h-39.4
				c0.2,11.3,6.5,17.9,16.3,17.9c7.4,0,12-3.5,13.5-6.8l0.2-0.5h8.8l-0.1,0.4c-1.9,7.4-9.7,14.7-22.6,14.7
				C-762.1-759-771.5-770-771.5-787.2L-771.5-787.2z M-762.3-791.8h30.3c-0.9-10.8-6.9-16-15-16S-761.4-802.3-762.3-791.8z"/>
			<path class="st1" d="M-714.7-774h9c1.5,4.6,5.8,7.6,12.9,7.6c7.4,0,12.6-3.5,12.6-8.5v-0.1c0-3.7-2.8-6.3-9.6-7.9l-8.5-2
				c-10.3-2.4-14.9-6.9-14.9-14.8l0,0c0-9.1,8.7-16,20.4-16s19.5,5.7,20.7,14.7h-8.7c-1.2-4.3-5.4-7.3-12-7.3s-11.3,3.4-11.3,8.2
				v0.1c0,3.7,2.7,6,9.2,7.6l8.4,2c10.3,2.5,15.3,7,15.3,14.8v0.1c0,9.8-9.5,16.5-22,16.5S-713.7-765-714.7-774L-714.7-774z"/>
		</g>
		<g>
			<path class="st1" d="M-518.1-833.4h9.2v65.1h35.4v8.2H-518L-518.1-833.4L-518.1-833.4z"/>
			<path class="st1" d="M-468-787.3L-468-787.3c0-17.7,9.7-28.4,25.3-28.4s25.3,10.7,25.3,28.3v0.1c0,17.5-9.7,28.3-25.3,28.3
				S-468-769.7-468-787.3z M-426.5-787.3L-426.5-787.3c0-13.1-5.8-20.6-16.2-20.6s-16.2,7.5-16.2,20.5v0.1
				c0,12.9,5.8,20.5,16.2,20.5S-426.5-774.3-426.5-787.3z"/>
			<path class="st1" d="M-413.1-814.7h9.3l15,45.1h0.8l15-45.1h9.3l-20.3,54.8h-9L-413.1-814.7L-413.1-814.7z"/>
			<path class="st1" d="M-359.3-787.2L-359.3-787.2c0-17,9.7-28.6,24.6-28.6s23.9,11.1,23.9,27.5v3.5h-39.4
				c0.3,11.3,6.5,17.9,16.3,17.9c7.4,0,12-3.5,13.5-6.8l0.2-0.5h8.8l-0.1,0.4c-1.9,7.4-9.7,14.7-22.6,14.7
				C-349.9-759-359.3-770-359.3-787.2L-359.3-787.2z M-350.1-791.8h30.3c-0.9-10.8-6.9-16-15-16S-349.2-802.3-350.1-791.8z"/>
		</g>
		<path class="st1" d="M-558.1-790.3l-30,30c-0.9,0.9-1.8,1.3-2.9,1.3c-2.2,0-3.9-1.6-3.9-3.9c0-1.1,0.4-2.2,1.1-2.9l10.1-10.3
			l15.2-13.9l-10.9,0.7h-57.2c-2.3,0-4-1.7-4-4s1.6-4,4-4h57.2l10.9,0.7l-15.3-13.9l-10.1-10.3c-0.7-0.7-1.1-1.8-1.1-2.8
			c0-2.3,1.7-3.9,3.9-3.9c1.1,0,2,0.4,3,1.4l30,29.9c0.9,0.9,1.4,1.9,1.4,3C-556.7-792-557.2-791.1-558.1-790.3L-558.1-790.3z"/>
		<path class="st1" d="M-265.5-831.7c7.9,0,14.5,3.8,18.3,9.6c3.9-5.8,10.4-9.6,18.3-9.6c13.9,0,24.4,10.7,24.4,25.9
			c0,18.3-15.3,36.3-39.5,51.8c-0.9,0.6-2.2,1.2-3.1,1.2s-2.2-0.6-3.1-1.2c-24.2-15.5-39.6-33.5-39.6-51.8
			C-289.9-820.9-279.4-831.7-265.5-831.7L-265.5-831.7z M-248.1-760.5c0.4,0.3,0.7,0.5,0.9,0.5s0.5-0.2,0.9-0.5
			c18-12,34.8-29.2,34.8-45.2c0-11.4-7.4-19-17.4-19c-8,0-12.5,5.1-15.5,9.3c-1.2,1.7-1.9,2.2-2.9,2.2s-1.8-0.5-2.9-2.2
			c-2.8-4.3-7.4-9.3-15.5-9.3c-10,0-17.4,7.6-17.4,19C-283-789.7-266.1-772.5-248.1-760.5z"/>
	</g>
	<g>
		<g>
			<path class="st1" d="M-1083.2-1094.4l-25.7-44.4h14.3l17.5,31.5h0.9l17.5-31.5h14.3l-25.7,44.4v28.9h-13.1L-1083.2-1094.4
				L-1083.2-1094.4z"/>
			<path class="st1" d="M-1042-1085.1v-35.9h12.7v33c0,8.6,3.2,13,10.8,13c8.2,0,12.5-5.3,12.5-13.6v-32.4h12.7v55.6h-12.7v-8.4
				h-0.9c-2.6,5.9-8.2,9.6-16.3,9.6C-1035.6-1064.4-1042-1071.9-1042-1085.1L-1042-1085.1z"/>
			<path class="st1" d="M-989.5-1046.6v-10c0.5,0,1.1,0,1.6,0c5.4,0,7.5-1.8,7.5-7v-57.5h12.7v57.7c0,11.4-6.3,16.8-18.8,16.8
				C-987.5-1046.4-988.8-1046.6-989.5-1046.6z M-981.6-1137.7c0-4.1,3.4-7.5,7.5-7.5s7.6,3.4,7.6,7.5s-3.4,7.5-7.6,7.5
				S-981.6-1133.6-981.6-1137.7z"/>
			<path class="st1" d="M-955.8-1137.7c0-4.1,3.4-7.5,7.6-7.5s7.5,3.4,7.5,7.5s-3.4,7.5-7.5,7.5
				C-952.3-1130.3-955.8-1133.6-955.8-1137.7z M-954.6-1120.9h12.7v55.6h-12.7V-1120.9L-954.6-1120.9z"/>
			<path class="st1" d="M-929-1120.9h12.7v8.5h0.9c2.6-6,8-9.6,16-9.6c12.4,0,19.2,7.5,19.2,20.7v35.9h-12.7v-33
				c0-8.6-3.5-13-11.2-13s-12.2,5.3-12.2,13.6v32.4H-929V-1120.9L-929-1120.9z"/>
			<path class="st1" d="M-841.6-1138.7h13.1v62.3h33.7v11h-46.8V-1138.7z"/>
			<path class="st1" d="M-789.9-1093.1L-789.9-1093.1c0-17.5,10.1-29,25.9-29s25.6,11.1,25.6,27.9v4.2h-38.8
				c0.2,10,5.5,15.8,14.1,15.8c6.9,0,10.8-3.5,12-6l0.2-0.4h12l-0.2,0.5c-1.8,7.2-9.2,15.9-24.3,15.9
				C-779.9-1064.4-789.9-1075.4-789.9-1093.1L-789.9-1093.1z M-777.1-1098.6h26.3c-0.9-9.1-6-13.6-13.1-13.6
				S-776.2-1107.4-777.1-1098.6z"/>
			<path class="st1" d="M-731.1-1093.1L-731.1-1093.1c0-17.5,10.1-29,25.9-29s25.6,11.1,25.6,27.9v4.2h-38.8
				c0.2,10,5.5,15.8,14.1,15.8c6.9,0,10.8-3.5,12-6l0.2-0.4h12l-0.2,0.5c-1.8,7.2-9.2,15.9-24.3,15.9
				C-721.1-1064.4-731.1-1075.4-731.1-1093.1L-731.1-1093.1z M-718.3-1098.6h26.4c-0.9-9.1-6-13.6-13.1-13.6
				S-717.4-1107.4-718.3-1098.6z"/>
		</g>
		<g>
			<path class="st1" d="M-523.3-1137.7c0-4.1,3.4-7.5,7.6-7.5c4.2,0,7.5,3.4,7.5,7.5s-3.4,7.5-7.5,7.5
				C-519.8-1130.3-523.3-1133.6-523.3-1137.7z M-522.1-1120.9h12.7v55.6h-12.7V-1120.9L-522.1-1120.9z"/>
			<path class="st1" d="M-499.2-1080.3L-499.2-1080.3l12.5-0.1v0.1c1.3,3.9,5,6.6,11.3,6.6s10.7-2.8,10.7-7v-0.1
				c0-3.2-2.4-5.4-8.5-6.8l-9-2c-10.6-2.3-15.6-7.3-15.6-15.5v-0.1c0-10,9.2-16.9,22.3-16.9s21.6,6.7,22.4,15.7v0.1H-465v-0.1
				c-0.9-3.5-4.6-6.4-10.5-6.4c-5.6,0-9.7,2.7-9.7,6.9l0,0c0,3.2,2.3,5.2,8.3,6.6l9,2c10.9,2.4,16,7.1,16,15.2v0.1
				c0,10.6-9.9,17.6-23.6,17.6S-498.1-1070.9-499.2-1080.3L-499.2-1080.3z"/>
			<path class="st1" d="M-419.7-1081.2L-419.7-1081.2c0-10,7.6-15.8,21.1-16.6l14.3-0.9v-4.8c0-5.5-3.6-8.6-10.4-8.6
				c-5.8,0-9.6,2.1-10.8,5.7v0.2h-11.9v-0.5c1.2-9.4,10.2-15.5,23.4-15.5c14.3,0,22.3,6.9,22.3,18.6v38h-12.5v-7.6h-0.9
				c-3,5.4-9,8.5-16.3,8.5C-412-1064.6-419.7-1071.1-419.7-1081.2L-419.7-1081.2z M-397.6-1074.3c7.6,0,13.3-5,13.3-11.6v-4.5
				l-12.5,0.9c-7.1,0.5-10.4,3.1-10.4,7.6v0.1C-407.2-1077.1-403.2-1074.3-397.6-1074.3L-397.6-1074.3z"/>
		</g>
		<path class="st1" d="M-655.3-1096.2c0-23.7,19.6-43.3,43.3-43.3s43.4,19.6,43.4,43.3s-19.6,43.3-43.3,43.3
			S-655.3-1072.4-655.3-1096.2L-655.3-1096.2z M-575.9-1096.2c0-20-16.1-36.1-36.2-36.1s-36,16.1-36,36.1c0,20.1,16,36.1,36.1,36.1
			S-575.9-1076.1-575.9-1096.2L-575.9-1096.2z M-629.6-1105.7c0-3.4,2.3-5.9,5-5.9s5.1,2.4,5.1,5.9s-2.4,5.8-5.1,5.8
			S-629.6-1102.4-629.6-1105.7z M-626.9-1083.6c0-1,1-1.5,1.9-1.1c3.1,1.7,6.8,3.6,12.9,3.6s9.9-1.9,13-3.6c0.9-0.4,1.9,0,1.9,1.1
			c0,2.8-6,8.7-14.8,8.7S-626.9-1080.7-626.9-1083.6L-626.9-1083.6z M-604.4-1105.7c0-3.4,2.3-5.9,5-5.9s5.1,2.4,5.1,5.9
			s-2.4,5.8-5.1,5.8S-604.4-1102.4-604.4-1105.7z"/>
	</g>
	<line class="st0" x1="-1301" y1="-1020.7" x2="-178.6" y2="-1020.7"/>
	<line class="st0" x1="-1301" y1="-870.4" x2="-178.6" y2="-870.4"/>
	<line class="st0" x1="-1301" y1="-720" x2="-178.6" y2="-720"/>
	<line class="st0" x1="-1301" y1="-569.6" x2="-178.6" y2="-569.6"/>
</g>
<g>
	<g>
		<path class="st1" d="M88.1-590.1h13.7l12.6,55h0.8l14.4-55h11.6l14.6,55h0.7l12.6-55h13.6L163-516.8h-12.3l-14.9-52.5H135
			l-14.8,52.5h-12.4L88.1-590.1z"/>
		<path class="st1" d="M191.1-593.8h12.7v30h0.9c2.6-5.9,8-9.6,16-9.6c12.4,0,19.2,7.5,19.2,20.7v35.9h-12.7v-33
			c0-8.6-3.5-13-11.2-13c-7.5,0-12.2,5.3-12.2,13.6v32.4h-12.7V-593.8z"/>
		<path class="st1" d="M247.9-544.5L247.9-544.5c0-17.9,10.2-28.9,26.7-28.9c16.6,0,26.7,10.9,26.7,28.8v0.1
			c0,18-10.1,28.9-26.7,28.9C257.9-515.6,247.9-526.5,247.9-544.5z M288.4-544.4L288.4-544.4c0-11.8-5-18.7-13.8-18.7
			s-13.8,6.9-13.8,18.6v0.1c0,11.7,5,18.6,13.8,18.6C283.4-525.9,288.4-532.7,288.4-544.4z"/>
		<path class="st1" d="M328.7-590.1h30.6c13.9,0,22.3,7,22.3,18.2v0.1c0,7.7-5.7,14.5-13.1,15.7v0.9c9.9,0.9,16.7,8,16.7,17.5v0.1
			c0,12.9-9.6,20.8-25.2,20.8h-31.4v-73.3H328.7z M341.8-579.8v20.7h12.7c9.3,0,14.2-3.6,14.2-10.3v-0.1c0-6.5-4.6-10.3-12.6-10.3
			L341.8-579.8L341.8-579.8z M341.8-549.9v22.9H357c9.7,0,14.8-4,14.8-11.5v-0.1c0-7.4-5.3-11.3-15.3-11.3L341.8-549.9L341.8-549.9z
			"/>
		<path class="st1" d="M391.3-544.4L391.3-544.4c0-17.5,10.1-29,25.9-29s25.6,11.1,25.6,27.9v4.2H404c0.2,10,5.5,15.8,14.1,15.8
			c6.9,0,10.8-3.5,12-6l0.2-0.4h12l-0.2,0.5c-1.8,7.2-9.2,15.9-24.3,15.9C401.3-515.6,391.3-526.7,391.3-544.4z M404.1-549.8h26.4
			c-0.9-9.1-6-13.6-13.1-13.6S405-558.6,404.1-549.8z"/>
		<path class="st1" d="M451.8-593.8h12.7v77.1h-12.7V-593.8z"/>
		<path class="st1" d="M475.2-589c0-4.1,3.4-7.5,7.6-7.5c4.1,0,7.5,3.4,7.5,7.5c0,4.2-3.4,7.5-7.5,7.5
			C478.6-581.6,475.2-584.9,475.2-589z M476.4-572.3h12.7v55.6h-12.7V-572.3z"/>
		<path class="st1" d="M497.7-544.4L497.7-544.4c0-17.5,10.1-29,25.9-29c15.8,0,25.6,11.1,25.6,27.9v4.2h-38.8
			c0.2,10,5.5,15.8,14.1,15.8c6.9,0,10.8-3.5,12-6l0.2-0.4h12l-0.2,0.5c-1.8,7.2-9.2,15.9-24.3,15.9
			C507.7-515.6,497.7-526.7,497.7-544.4z M510.5-549.8h26.4c-0.9-9.1-6-13.6-13.1-13.6S511.4-558.6,510.5-549.8z"/>
		<path class="st1" d="M551.5-572.3H565l12.9,43.2h0.9l12.8-43.2h13.3l-19.7,55.6h-13.9L551.5-572.3z"/>
		<path class="st1" d="M606.4-544.4L606.4-544.4c0-17.5,10.1-29,25.9-29s25.6,11.1,25.6,27.9v4.2H619c0.2,10,5.5,15.8,14.1,15.8
			c6.9,0,10.8-3.5,12-6l0.2-0.4h12l-0.2,0.5c-1.8,7.2-9.2,15.9-24.3,15.9C616.4-515.6,606.4-526.7,606.4-544.4z M619.1-549.8h26.4
			c-0.9-9.1-6-13.6-13.1-13.6S620.1-558.6,619.1-549.8z"/>
		<path class="st1" d="M663.6-531.5L663.6-531.5l12.6-0.1l0.1,0.1c1.3,3.9,5,6.6,11.3,6.6s10.7-2.8,10.7-7v-0.1
			c0-3.3-2.4-5.4-8.5-6.8l-9-2c-10.6-2.3-15.6-7.3-15.6-15.5v-0.1c0-10,9.1-16.9,22.3-16.9c13.5,0,21.6,6.7,22.4,15.7v0.1H698
			l-0.1-0.2c-0.9-3.5-4.6-6.4-10.5-6.4c-5.6,0-9.7,2.7-9.7,6.9v0.1c0,3.3,2.3,5.2,8.3,6.6l9,2c10.9,2.4,16,7.1,16,15.1v0.1
			c0,10.6-9.9,17.6-23.6,17.6C673.2-515.6,664.7-522.1,663.6-531.5z"/>
	</g>
	<g>
		<g>
			<path class="st1" d="M854.7-590.1h13.1v62.3h33.6v11h-46.8v-73.3H854.7z"/>
			<path class="st1" d="M904.8-544.5L904.8-544.5c0-17.9,10.2-28.9,26.7-28.9c16.6,0,26.7,10.9,26.7,28.8v0.1
				c0,18-10.1,28.9-26.7,28.9C914.9-515.6,904.8-526.5,904.8-544.5z M945.4-544.4L945.4-544.4c0-11.8-5-18.7-13.8-18.7
				s-13.8,6.9-13.8,18.6v0.1c0,11.7,5,18.6,13.8,18.6S945.4-532.7,945.4-544.4z"/>
			<path class="st1" d="M959.8-572.3h13.5l12.9,43.2h0.9l12.8-43.2h13.3l-19.7,55.6h-13.9L959.8-572.3z"/>
			<path class="st1" d="M1014.7-544.4L1014.7-544.4c0-17.5,10.1-29,25.9-29c15.8,0,25.6,11.1,25.6,27.9v4.2h-38.8
				c0.2,10,5.5,15.8,14.1,15.8c6.9,0,10.8-3.5,12-6l0.2-0.4h12l-0.2,0.5c-1.8,7.2-9.2,15.9-24.3,15.9
				C1024.7-515.6,1014.7-526.7,1014.7-544.4z M1027.5-549.8h26.4c-0.9-9.1-6-13.6-13.1-13.6C1033.7-563.4,1028.4-558.6,1027.5-549.8
				z"/>
		</g>
	</g>
	<g>
		<path class="st1" d="M821-547l-30,30c-0.9,0.9-1.9,1.3-2.9,1.3c-2.2,0-3.9-1.6-3.9-3.9c0-1.1,0.4-2.2,1.1-2.8l10.1-10.3l15.2-13.9
			l-10.9,0.7h-57.2c-2.3,0-4-1.7-4-4s1.6-4,4-4h57.2l10.9,0.7l-15.2-13.9l-10.2-10.4c-0.7-0.7-1.1-1.8-1.1-2.8
			c0-2.3,1.7-3.9,3.9-3.9c1.1,0,2,0.4,3,1.4l30,29.9c0.9,0.9,1.4,1.9,1.4,3C822.4-548.9,821.9-547.8,821-547z"/>
	</g>
	<g>
		<g>
			<path class="st1" d="M1108.7-584.1c7.5,0,13.6,3.6,17.2,9c3.7-5.4,9.7-9,17.2-9c13.1,0,22.9,10.1,22.9,24.4
				c0,17.2-14.4,34.1-37.1,48.6c-0.9,0.5-2.1,1.1-2.9,1.1s-2.1-0.6-2.9-1.1c-22.8-14.5-37.2-31.4-37.2-48.6
				C1085.8-574,1095.6-584.1,1108.7-584.1z M1125.1-517.3c0.4,0.3,0.6,0.5,0.8,0.5c0.2,0,0.4-0.2,0.8-0.5
				c16.9-11.2,32.7-27.4,32.7-42.4c0-10.7-6.9-17.9-16.3-17.9c-7.5,0-11.7,4.8-14.5,8.8c-1.2,1.6-1.8,2.1-2.7,2.1
				c-1,0-1.7-0.4-2.7-2.1c-2.6-4-6.9-8.8-14.5-8.8c-9.4,0-16.3,7.1-16.3,17.9C1092.3-544.7,1108.2-528.5,1125.1-517.3z"/>
		</g>
	</g>
</g>
<g>
	<g>
		<path class="st1" d="M274.7-207.3l-25.3-48.1h19.9l14.3,29.9h1l14.2-29.9h19.9l-25.3,48.1v25.2h-18.7V-207.3z"/>
		<path class="st1" d="M319.3-202.1v-36.5h18v32.5c0,6.9,2.6,10.7,8.7,10.7s9.5-4.4,9.5-10.9v-32.3h18v56.6h-18v-8.8h-1
			c-2.4,6.2-8.2,10.2-16.2,10.2C325.8-180.7,319.3-188.5,319.3-202.1z"/>
		<path class="st1" d="M374.7-163.1v-13c0.6,0.1,1.4,0.1,2.1,0.1c4.6,0,6.6-1.5,6.6-5.4v-57.3h18v57.9c0,11.5-7.7,17.8-21.5,17.8
			C378.2-162.9,375.7-163,374.7-163.1z M382.8-255.6c0-5.2,4.4-9.4,9.6-9.4c5.3,0,9.6,4.2,9.6,9.4c0,5.2-4.3,9.4-9.6,9.4
			C387.2-246.2,382.8-250.3,382.8-255.6z"/>
		<path class="st1" d="M410.8-255.6c0-5.2,4.3-9.4,9.6-9.4c5.2,0,9.6,4.2,9.6,9.4c0,5.2-4.3,9.4-9.6,9.4
			C415.1-246.2,410.8-250.3,410.8-255.6z M411.3-238.6h18v56.6h-18V-238.6z"/>
		<path class="st1" d="M439.2-238.6h18v8.8h1c2.4-6.2,8.1-10.2,16.1-10.2c12.6,0,19.1,7.8,19.1,21.3v36.5h-18v-32.5
			c0-6.9-2.8-10.7-8.9-10.7c-5.8,0-9.3,4.4-9.3,10.9v32.3h-18L439.2-238.6L439.2-238.6z"/>
		<path class="st1" d="M525.7-255.4h18.7v58.3h31.2v15h-49.8v-73.3H525.7z"/>
		<path class="st1" d="M578-210.3L578-210.3c0-18.3,10.8-29.6,27.9-29.6c17,0,27.9,11.2,27.9,28.5v5.2h-38.1
			c0.2,8.1,4.3,12.8,11.2,12.8c6,0,9.1-3.5,9.9-4.9l0.1-0.2l16.5-0.1l-0.2,0.6c-1.6,6.8-8.5,17.4-26.7,17.4
			C588.8-180.7,578-192,578-210.3z M595.9-216.8h20.8c-0.9-6.8-4.8-10.4-10.4-10.4C600.8-227.1,596.8-223.4,595.9-216.8z"/>
		<path class="st1" d="M638-210.3L638-210.3c0-18.3,10.8-29.6,27.9-29.6c17,0,27.9,11.2,27.9,28.5v5.2h-38.1
			c0.2,8.1,4.3,12.8,11.2,12.8c6,0,9.1-3.5,9.9-4.9l0.1-0.2l16.5-0.1l-0.2,0.6c-1.6,6.8-8.5,17.4-26.7,17.4
			C648.8-180.7,638-192,638-210.3z M655.9-216.8h20.8c-0.9-6.8-4.8-10.4-10.4-10.4C660.8-227.1,656.7-223.4,655.9-216.8z"/>
	</g>
	<g>
		<path class="st1" d="M847.9-255.6c0-5.2,4.3-9.4,9.6-9.4s9.6,4.2,9.6,9.4c0,5.2-4.3,9.4-9.6,9.4S847.9-250.3,847.9-255.6z
			 M848.4-238.6h18v56.6h-18V-238.6z"/>
		<path class="st1" d="M873.6-197.9v-0.4h17.5l0.1,0.3c1.1,2.9,3.9,5.1,9.1,5.1c4.8,0,7.9-1.9,7.9-4.9v-0.1c0-2.6-1.9-4.2-7.1-5.2
			l-9.8-1.9c-10.9-2.2-16.5-7.9-16.5-16.5v-0.1c0-11.3,9.7-18.3,24.9-18.3c16.4,0,24.6,8.1,24.9,17.2v0.3h-16.5l-0.1-0.4
			c-0.6-2.3-3.4-5-8.3-5c-4.5,0-7.5,1.9-7.5,5v0.1c0,2.5,1.7,4,7.1,5.1l9.8,1.9c11.7,2.3,17,7.1,17,15.6v0.1
			c0,11.7-10.6,19.3-25.9,19.3C883.5-180.7,874.7-188.1,873.6-197.9z"/>
		<path class="st1" d="M951.9-198.3v-0.1c0-10.3,8-16.2,22.6-17.1l12.4-0.7v-4.4c0-3.8-2.8-6.1-7.8-6.1c-4.7,0-7.6,1.6-8.7,4.4
			l-0.1,0.3H954l0.1-0.6c1-10.4,10.8-17.3,26.1-17.3c15.6,0,24.5,7.1,24.5,19.3v38.6H987v-7h-1c-2.5,4.8-8.5,7.9-15.8,7.9
			C959.3-181.2,951.9-188,951.9-198.3z M976.8-193.8c5.7,0,10.1-3.8,10.1-8.6v-3.7l-9.5,0.6c-5.3,0.4-8.1,2.5-8.1,5.8v0.1
			C969.2-196,972.2-193.8,976.8-193.8z"/>
	</g>
	<g>
		<path class="st1" d="M721.3-212.3c0-21.8,18-39.8,39.8-39.8s39.9,18,39.9,39.8s-18,39.8-39.8,39.8
			C739.4-172.4,721.3-190.5,721.3-212.3z M794.4-212.3c0-18.4-14.8-33.2-33.2-33.2S728-230.7,728-212.3s14.7,33.2,33.2,33.2
			S794.4-193.8,794.4-212.3z M745-221.1c0-3.2,2.1-5.4,4.6-5.4s4.6,2.2,4.6,5.4c0,3.1-2.2,5.4-4.6,5.4S745-218,745-221.1z
			 M747.5-200.7c0-0.9,0.9-1.4,1.8-1c2.8,1.5,6.2,3.3,11.9,3.3s9.1-1.8,11.9-3.3c0.8-0.4,1.7,0,1.7,1c0,2.6-5.5,8-13.6,8
			S747.5-198.1,747.5-200.7z M768.1-221.1c0-3.2,2.1-5.4,4.6-5.4s4.6,2.2,4.6,5.4c0,3.1-2.2,5.4-4.6,5.4S768.1-218,768.1-221.1z"/>
	</g>
</g>
<rect x="-1366.8" y="-304.5" class="st2" width="1254" height="733.9"/>
<line class="st0" x1="-1301" y1="-151.9" x2="-178.6" y2="-151.9"/>
<line class="st0" x1="-1301" y1="-9.7" x2="-178.6" y2="-9.7"/>
<line class="st0" x1="-1301" y1="135.3" x2="-178.6" y2="135.3"/>
<line class="st0" x1="-1301" y1="276" x2="-178.6" y2="276"/>
<g>
	<g>
		<path class="st1" d="M-1087,312.5h24c13.6,0,22.1,7.1,22.1,17.8v0.1c0,8.7-5.7,15.5-14.4,17.1v0.3c10,1.3,18.3,7.8,18.3,18.5v0.1
			c0,11.9-8.6,19.4-25.8,19.4h-24.2V312.5z M-1083,316.2v30.1h18.8c11.7,0,19.3-5.8,19.3-15.4v-0.1c0-8.9-7.1-14.6-18.6-14.6H-1083z
			 M-1083,350v32.3h19.7c15,0,22.1-6.1,22.1-15.9v-0.1c0-10.2-8.8-16.3-22.4-16.3H-1083z"/>
		<path class="st1" d="M-1029.2,358.7v-0.1c0-17.3,9.5-28.3,23.9-28.3s23.5,10.9,23.5,26.9v2h-43.4c0.2,14.7,8.2,23.9,20.5,23.9
			c8.7,0,15.5-4.1,17.7-9.6l0.2-0.3h4l-0.2,0.4c-2.5,7.4-10.7,13.1-21.8,13.1C-1019.7,386.7-1029.2,375.8-1029.2,358.7z
			 M-1025.2,355.8h39.5c-0.6-13.8-8.3-22-19.6-22C-1016.5,333.9-1024.5,342.2-1025.2,355.8z"/>
		<path class="st1" d="M-967.5,373.1v-38.5h-9v-3.5h9v-14.2h4v14.2h13.3v3.5h-13.3v37.9c0,7.1,2.6,10.2,9.5,10.2
			c1.5,0,2.7-0.1,3.8-0.2v3.5c-1.4,0.2-2.6,0.4-4.2,0.4C-963.7,386.2-967.5,382.3-967.5,373.1z"/>
		<path class="st1" d="M-936.2,373.1v-38.5h-9v-3.5h9v-14.2h4v14.2h13.3v3.5h-13.3v37.9c0,7.1,2.6,10.2,9.5,10.2
			c1.5,0,2.7-0.1,3.8-0.2v3.5c-1.4,0.2-2.6,0.4-4.2,0.4C-932.5,386.2-936.2,382.3-936.2,373.1z"/>
		<path class="st1" d="M-912.3,358.7v-0.1c0-17.3,9.5-28.3,23.9-28.3s23.5,10.9,23.5,26.9v2h-43.4c0.2,14.7,8.2,23.9,20.5,23.9
			c8.7,0,15.5-4.1,17.7-9.6l0.2-0.3h4l-0.2,0.4c-2.5,7.4-10.7,13.1-21.8,13.1C-902.8,386.7-912.3,375.8-912.3,358.7z M-908.3,355.8
			h39.5c-0.6-13.8-8.3-22-19.6-22C-899.6,333.9-907.7,342.2-908.3,355.8z"/>
		<path class="st1" d="M-853.7,331.1h3.9v10.2h0.4c2.2-6.9,7.8-11,15.2-11c2.4,0,4.2,0.2,6.1,0.8v3.9c-2.1-0.7-4-1-6.4-1
			c-8.7,0-15.3,7.5-15.3,17.4v34.4h-3.9V331.1z"/>
		<path class="st1" d="M-797.4,312.5h23.8c14.2,0,23.6,8.5,23.6,21.8v0.1c0,13.3-9.4,21.9-23.6,21.9h-19.8v29.6h-4V312.5z
			 M-793.4,316.2v36.4h19.2c12.4,0,20.1-6.9,20.1-18.2v-0.1c0-11.3-7.7-18.1-20.1-18.1L-793.4,316.2L-793.4,316.2z"/>
		<path class="st1" d="M-739.3,331.1h3.9v10.2h0.4c2.2-6.9,7.8-11,15.2-11c2.4,0,4.2,0.2,6.1,0.8v3.9c-2.1-0.7-4-1-6.4-1
			c-8.7,0-15.3,7.5-15.3,17.4v34.4h-3.9V331.1z"/>
		<path class="st1" d="M-710.4,358.6v-0.1c0-17.3,9.5-28.2,24.4-28.2s24.4,10.9,24.4,28.2v0.1c0,17.2-9.5,28.2-24.4,28.2
			C-700.9,386.7-710.4,375.8-710.4,358.6z M-665.6,358.6v-0.1c0-15-7.9-24.6-20.4-24.6s-20.4,9.6-20.4,24.6v0.1
			c0,15,7.9,24.5,20.4,24.5C-673.6,383.1-665.6,373.5-665.6,358.6z"/>
		<path class="st1" d="M-653.3,358.6v-0.1c0-16.6,9.6-28.2,23.4-28.2c9.3,0,17,5.5,20.1,14.2h0.4v-35.2h3.9v76.5h-3.9V372h-0.4
			c-3,8.9-10.7,14.6-20.1,14.6C-643.7,386.7-653.3,375.2-653.3,358.6z M-609.3,358.6v-0.1c0-14.6-8.1-24.6-20-24.6s-20,10-20,24.6
			v0.1c0,14.6,8.1,24.5,20,24.5C-617.4,383.1-609.3,373.2-609.3,358.6z"/>
		<path class="st1" d="M-591.4,366.9v-35.8h4v34.7c0,10.7,6.2,17.3,16.5,17.3c11,0,18.3-7.9,18.3-19.3v-32.7h4v54.7h-4v-11.3h-0.4
			c-2.6,7.6-9.6,12.2-18.7,12.2C-583.8,386.7-591.4,379-591.4,366.9z"/>
		<path class="st1" d="M-537.5,358.4v-0.1c0-17.1,9.4-28,24.1-28c11.5,0,19.9,6.7,21.8,16.1l-0.1,0.1l-3.9,0.1l-0.1-0.1
			c-1.9-7.4-8.7-12.5-17.7-12.5c-12.3,0-20.1,9.6-20.1,24.4v0.1c0,15,7.9,24.8,20.1,24.8c9,0,15.8-4.6,17.6-11.8l0.1-0.2l3.9-0.1
			l-0.1,0.3c-2,9.3-10,15.4-21.6,15.4C-528.2,386.7-537.5,375.7-537.5,358.4z"/>
		<path class="st1" d="M-477.3,373.1v-38.5h-9v-3.5h9v-14.2h4v14.2h13.3v3.5h-13.3v37.9c0,7.1,2.6,10.2,9.5,10.2
			c1.5,0,2.7-0.1,3.8-0.2v3.5c-1.4,0.2-2.6,0.4-4.2,0.4C-473.5,386.2-477.3,382.3-477.3,373.1z"/>
		<path class="st1" d="M-453.8,372.5h4.1c1.5,6.7,7.9,10.8,17.1,10.8c8.8,0,16-5,16-11.6v-0.1c0-6-4.2-9.1-13.8-11.4l-6.4-1.5
			c-10-2.3-15-6.3-15-13.6V345c0-8.5,8.6-14.7,18.9-14.7c10.4,0,18,5.3,19.4,13.6h-3.9c-1.2-6.1-7.4-10.1-15.5-10.1
			c-8,0-14.9,4.8-14.9,11.1v0.1c0,5.4,4.1,8.3,12.5,10.3l6.4,1.5c10.9,2.5,16.3,6.6,16.3,14.5v0.1c0,8.9-8.8,15.3-20,15.3
			C-444.4,386.7-452.5,381.3-453.8,372.5z"/>
		<path class="st1" d="M-400.1,382.5c0-2.1,1.6-3.8,3.8-3.8c2.1,0,3.8,1.6,3.8,3.8c0,2.1-1.7,3.7-3.8,3.7
			C-398.5,386.2-400.1,384.6-400.1,382.5z"/>
	</g>
</g>
<g>
	<g>
		<path class="st1" d="M-1259.1,174.6h43.5v6.3h-36.5v27.5h33.6v6.2h-33.6v33.3h-7V174.6z"/>
		<path class="st1" d="M-1208.2,220.6v-0.1c0-17.4,9.6-28.2,24.9-28.2s24.9,10.8,24.9,28.2v0.1c0,17.4-9.6,28.3-24.9,28.3
			C-1198.6,248.8-1208.2,238-1208.2,220.6z M-1165.3,220.6v-0.1c0-13.8-6.7-22.2-18-22.2s-18,8.4-18,22.2v0.1
			c0,13.8,6.7,22.3,18,22.3C-1172,242.8-1165.3,234.4-1165.3,220.6z"/>
		<path class="st1" d="M-1148.2,193.2h6.7v9h0.7c2.1-6.3,7.5-9.9,14.9-9.9c2,0,3.8,0.2,5.1,0.5v6.6c-2-0.5-3.8-0.7-5.8-0.7
			c-8.5,0-14.8,6.3-14.8,15.1V248h-6.7L-1148.2,193.2L-1148.2,193.2z"/>
		<path class="st1" d="M-1088.8,174.6h7v32.6h42.9v-32.6h7v73.3h-7v-34.4h-42.9v34.4h-7V174.6z"/>
		<path class="st1" d="M-1018.6,228.7v-35.6h6.7V227c0,10.2,4.7,15.8,14.1,15.8c10.2,0,16.3-6.8,16.3-17.1v-32.5h6.7v54.7h-6.7v-9.6
			h-0.6c-2.7,6.6-8.8,10.5-17.3,10.5C-1011.7,248.8-1018.6,241.3-1018.6,228.7z"/>
		<path class="st1" d="M-961.7,193.2h6.7v9.7h0.7c2.3-6.6,8-10.6,15.5-10.6c7.7,0,13.2,4.2,15.5,10.8h0.7
			c2.8-6.6,9.2-10.8,17.1-10.8c11,0,17.3,6.6,17.3,18.2V248h-6.8v-35.9c0-8.9-4.3-13.7-12.6-13.7c-8.4,0-14.1,6.5-14.1,14.9V248
			h-6.7v-36.6c0-7.9-5-13-12.6-13c-7.9,0-14,7.1-14,16.1v33.6h-6.7L-961.7,193.2L-961.7,193.2z"/>
		<path class="st1" d="M-879,232.8v-0.1c0-9.5,7.1-15,19.7-15.9l17.1-1.1v-5.1c0-8-4.9-12.3-13.7-12.3c-7.4,0-12.7,3-14.1,8.4
			l-0.1,0.1h-6.8l0.1-0.2c1.4-8.7,9.7-14.3,21-14.3c12.8,0,20.3,6.7,20.3,18.2v37.4h-6.8v-9.4h-0.6c-3.3,6.5-9.8,10.3-17.9,10.3
			C-871.3,248.8-879,242.6-879,232.8z M-859.5,242.9c9.8,0,17.2-6.7,17.2-15.4v-6.4l-16.2,1.1c-9.3,0.6-13.8,4.1-13.8,10.3v0.1
			C-872.2,239-866.8,242.9-859.5,242.9z"/>
		<path class="st1" d="M-822.8,193.2h6.7v9.6h0.7c2.9-6.6,8.8-10.5,17.3-10.5c12.2,0,19.2,7.3,19.2,20.1V248h-6.7v-33.9
			c0-10.4-4.7-15.8-14.2-15.8c-9.7,0-16.2,6.8-16.2,17.1v32.5h-6.7L-822.8,193.2L-822.8,193.2z"/>
	</g>
	<g>
		<g>
			<path class="st1" d="M-658.4,210.7v-0.1c0-23.5,12.4-38.2,32.3-38.2c15.1,0,27.3,10,29.3,23.9l-0.1,0.1h-7l-0.1-0.1
				c-2.1-10.3-11.2-17.4-22.2-17.4c-15.3,0-25.2,12.4-25.2,31.7v0.1c0,19.4,9.8,31.7,25.2,31.7c11.3,0,20.1-6.3,22.2-15.9l0.1-0.1
				l7-0.1l0.1,0.1c-2.1,13.4-13.7,22.4-29.2,22.4C-646,248.8-658.4,234.2-658.4,210.7z"/>
			<path class="st1" d="M-589.7,232.2v-0.1c0-9.5,7.1-15,19.7-15.9l17.1-1.1V210c0-8-4.9-12.3-13.7-12.3c-7.4,0-12.7,3-14.1,8.4
				l-0.1,0.1h-6.8l0.1-0.2c1.4-8.7,9.7-14.3,21-14.3c12.8,0,20.3,6.7,20.3,18.2v37.4h-6.8v-9.4h-0.6c-3.3,6.5-9.8,10.3-17.9,10.3
				C-582,248.2-589.7,242-589.7,232.2z M-570.1,242.3c9.8,0,17.2-6.7,17.2-15.4v-6.4l-16.2,1.1c-9.3,0.6-13.8,4.1-13.8,10.3v0.1
				C-582.8,238.4-577.5,242.3-570.1,242.3z"/>
			<path class="st1" d="M-533.5,192.6h6.7v9.6h0.7c2.9-6.6,8.8-10.5,17.3-10.5c12.2,0,19.2,7.3,19.2,20.1v35.6h-6.7v-33.9
				c0-10.4-4.7-15.8-14.2-15.8c-9.7,0-16.2,6.8-16.2,17.1v32.5h-6.7L-533.5,192.6L-533.5,192.6z"/>
			<path class="st1" d="M-452.3,174h8l27,64.2h0.6l27-64.2h8v73.3h-6.5v-59.8h-0.5l-25.3,59.8h-6l-25.3-59.8h-0.5v59.8h-6.5
				L-452.3,174L-452.3,174z"/>
			<path class="st1" d="M-371,232.2v-0.1c0-9.5,7.1-15,19.7-15.9l17.1-1.1V210c0-8-4.9-12.3-13.7-12.3c-7.4,0-12.7,3-14.1,8.4
				l-0.1,0.1h-6.8l0.1-0.2c1.4-8.7,9.7-14.3,21-14.3c12.8,0,20.3,6.7,20.3,18.2v37.4h-6.8v-9.4h-0.6c-3.3,6.5-9.8,10.3-17.9,10.3
				C-363.3,248.2-371,242-371,232.2z M-351.5,242.3c9.8,0,17.2-6.7,17.2-15.4v-6.4l-16.2,1.1c-9.3,0.6-13.8,4.1-13.8,10.3v0.1
				C-364.2,238.4-358.8,242.3-351.5,242.3z"/>
			<path class="st1" d="M-314.3,170.8h6.7v47.4h0.7l26.6-25.6h8.3l-24.7,23.2l25.8,31.6h-8.5l-22.1-27l-6.1,5.8v21.2h-6.7
				L-314.3,170.8L-314.3,170.8z"/>
			<path class="st1" d="M-268.5,220.1V220c0-17.1,9.6-28.4,24.2-28.4c14.7,0,23.7,11,23.7,27.2v2.8h-41.1
				c0.2,12.8,7.2,20.5,18.1,20.5c8,0,13.5-3.8,15.2-8l0.2-0.4h6.8l-0.2,0.4c-2.1,7.4-10.1,14-22.2,14
				C-259,248.2-268.5,237.3-268.5,220.1z M-261.5,216.2h34.3c-0.8-12.1-7.5-18.6-16.9-18.6C-253.7,197.6-260.7,204.4-261.5,216.2z"
				/>
		</g>
	</g>
	<g>
		<path class="st1" d="M-732.9,232.1l-5.9,16.3c-0.7,1.8-2.4,2.4-3.9,1.9c-1.6-0.5-2.4-2.3-1.8-3.9l6-16.5l6-16.4v-14.9
			c0-0.7-0.4-1.3-1-1.6l-20.2-10.8c-1.5-0.8-2.1-2.6-1.3-4.1s2.6-2,4.1-1.2l19.5,10.3c2.2,1.1,4.3,1.7,6.5,1.7
			c2.1,0,4.3-0.5,6.4-1.7l19.5-10.3c1.5-0.8,3.3-0.2,4.1,1.2c0.8,1.5,0.2,3.3-1.3,4.1l-20.2,10.8c-0.6,0.3-1,0.9-1,1.6v14.9l6,16.4
			l6,16.5c0.5,1.6-0.2,3.4-1.8,3.9c-1.5,0.5-3.3,0-3.9-1.9l-5.9-16.3l-7.9-12.5L-732.9,232.1z M-732.1,182c0-3.9,3.2-7,7.1-7
			c3.9,0,7,3.2,7,7c0,3.9-3.2,7.1-7,7.1C-728.9,189.2-732.1,186-732.1,182z"/>
	</g>
</g>
<g>
	<g>
		<path class="st1" d="M-1217.5-117.4h30.5c15.6,0,26,10,26,25.3v0.1c0,15.2-10.4,25.3-26,25.3h-15v23.3h-15.5V-117.4z
			 M-1202.1-105.1v26.3h11.2c8.9,0,14.1-4.7,14.1-13.1V-92c0-8.4-5.2-13.1-14.1-13.1L-1202.1-105.1L-1202.1-105.1z"/>
		<path class="st1" d="M-1152.5-99.8h15v8.8h0.9c1.8-6.1,6.9-9.7,14.3-9.7c2,0,4.1,0.3,5.6,0.7v13.1c-2.3-0.5-4.6-0.9-6.9-0.9
			c-8.5,0-13.9,4.9-13.9,12.9v31.6h-15V-99.8z"/>
		<path class="st1" d="M-1115-71.6L-1115-71.6c0-18.3,10.6-29.5,27.8-29.5s27.8,11.1,27.8,29.4v0.1c0,18.4-10.5,29.4-27.8,29.4
			S-1115-53.2-1115-71.6z M-1074.7-71.6L-1074.7-71.6c0-11.1-4.6-17.7-12.5-17.7s-12.5,6.6-12.5,17.6v0.1c0,11.1,4.5,17.6,12.5,17.6
			C-1079.3-54-1074.7-60.5-1074.7-71.6z"/>
		<path class="st1" d="M-1054.2-71.6L-1054.2-71.6c0-18.2,8.6-29.2,22.9-29.2c7.7,0,14,3.8,16.9,9.9h0.9v-30.6h15v78h-15v-8.8h-0.9
			c-2.9,6.1-8.9,9.6-16.9,9.6C-1045.4-42.5-1054.2-53.5-1054.2-71.6z M-1013.3-71.5L-1013.3-71.5c0-10.5-5-16.8-12.9-16.8
			c-7.9,0-12.8,6.4-12.8,16.7v0.1c0,10.4,4.9,16.7,12.8,16.7C-1018.2-54.9-1013.3-61.2-1013.3-71.5z"/>
		<path class="st1" d="M-987.7-63.3v-36.5h15v33.1c0,8,3,12.2,10.1,12.2c7.4,0,11.4-5,11.4-12.6v-32.6h15v56.4h-15V-52h-0.9
			c-2.6,6.2-8.3,9.9-16.4,9.9C-981.2-42.2-987.7-49.9-987.7-63.3z"/>
		<path class="st1" d="M-928.3-71.7L-928.3-71.7c0-18.7,9.9-29.4,27.6-29.4c15,0,23.8,8.2,25.2,20.8v0.2h-13.9l-0.1-0.1
			c-1-5.5-4.7-9.1-11.1-9.1c-8,0-12.5,6.3-12.5,17.5v0.1c0,11.4,4.5,17.7,12.5,17.7c6.2,0,9.8-2.9,11.1-8.6l0.1-0.2h13.8l-0.1,0.3
			c-1.5,12.3-10.4,20.2-25.1,20.2C-918.3-42.2-928.3-52.9-928.3-71.7z"/>
		<path class="st1" d="M-863.4-58.6v-29.9h-8.7v-11.3h8.7v-13.5h15.1v13.5h11.6v11.3h-11.6V-62c0,5.1,2.2,7.3,7.2,7.3
			c1.9,0,3-0.1,4.4-0.3v11.1c-1.8,0.4-4.6,0.7-7.5,0.7C-857.9-43.2-863.4-47.6-863.4-58.6z"/>
		<path class="st1" d="M-804.1-117.4h29.1c22,0,34.7,13.3,34.7,36.5v0.1c0,23.9-12.6,37.4-34.7,37.4h-29.1V-117.4z M-777.4-56.2
			c13.7,0,21.4-8.6,21.4-24.4v-0.1c0-15.2-7.9-23.9-21.4-23.9h-11.2v48.4C-788.6-56.2-777.4-56.2-777.4-56.2z"/>
		<path class="st1" d="M-734-71.5L-734-71.5c0-18,10.5-29.5,27-29.5s26.7,11.3,26.7,28.4v4.7h-38.9c0.2,9.3,5.1,14.7,13.1,14.7
			c6.6,0,10.2-3.5,11.2-5.6l0.2-0.3h13.9l-0.1,0.5c-1.7,7.1-9,16.6-25.5,16.6C-723.6-42.2-734-53.4-734-71.5z M-719.1-77.4h24.4
			c-0.9-8.2-5.6-12.4-12.1-12.4S-718.1-85.4-719.1-77.4z"/>
		<path class="st1" d="M-675-58.8l-0.1-0.2h14.7l0.1,0.2c1.2,3.5,4.6,6,10.5,6c5.7,0,9.6-2.5,9.6-6.2v-0.1c0-3-2.3-4.9-8-6.2l-9.4-2
			c-10.8-2.3-16.1-7.6-16.1-16v-0.1c0-10.6,9.4-17.7,23.5-17.7c14.8,0,23,7.4,23.6,16.5v0.2h-13.9l-0.1-0.3c-0.8-3-4.2-5.8-9.7-5.8
			c-5.2,0-8.9,2.4-8.9,6.2v0.1c0,3,2.1,4.8,7.9,6l9.4,2c11.3,2.4,16.6,7.1,16.6,15.5v0.1c0,11.2-10.3,18.5-24.8,18.5
			C-665.2-42.2-673.9-49.1-675-58.8z"/>
		<path class="st1" d="M-617.9-116.8c0-4.7,3.8-8.4,8.5-8.4s8.4,3.7,8.4,8.4c0,4.6-3.8,8.3-8.4,8.3S-617.9-112.2-617.9-116.8z
			 M-617-99.8h15v56.4h-15V-99.8z"/>
		<path class="st1" d="M-592.2-39.7V-40h14.8l0.1,0.2c0.8,3.3,4.7,5.5,11.4,5.5c8,0,12.7-3.7,12.7-10.3v-10.5h-0.9
			c-3.1,5.9-9.1,9.2-16.9,9.2c-14.2,0-23-11-23-27V-73c0-16.6,8.8-27.8,23.2-27.8c7.7,0,13.8,3.8,16.8,10.2h0.7v-9.2h15v54.7
			c0,13.2-10.8,21.6-27.9,21.6C-581.8-23.5-590.9-30.1-592.2-39.7z M-553.1-72.9L-553.1-72.9c0-9.4-4.9-15.7-12.9-15.7
			s-12.7,6.3-12.7,15.6v0.1c0,9.3,4.6,15.6,12.7,15.6S-553.1-63.6-553.1-72.9z"/>
		<path class="st1" d="M-527.5-99.8h15v8.7h0.9c2.6-6.1,8.2-9.9,16.2-9.9c12.6,0,19.3,7.7,19.3,21.2v36.5h-15v-33.2
			c0-7.9-3.3-12.2-10.4-12.2c-6.9,0-11.1,5-11.1,12.6v32.7h-15L-527.5-99.8L-527.5-99.8z"/>
		<path class="st1" d="M-468.6-71.5L-468.6-71.5c0-18,10.5-29.5,27-29.5s26.7,11.3,26.7,28.4v4.7h-38.9c0.2,9.3,5.1,14.7,13.1,14.7
			c6.6,0,10.2-3.5,11.2-5.6l0.2-0.3h13.9l-0.1,0.5c-1.7,7.1-9,16.6-25.5,16.6C-458.2-42.2-468.6-53.4-468.6-71.5z M-453.7-77.4h24.4
			c-0.9-8.2-5.6-12.4-12.1-12.4C-447.9-89.8-452.7-85.4-453.7-77.4z"/>
		<path class="st1" d="M-407-99.8h15v8.8h0.9c1.8-6.1,6.9-9.7,14.3-9.7c2,0,4.1,0.3,5.6,0.7v13.1c-2.3-0.5-4.6-0.9-6.9-0.9
			c-8.5,0-13.9,4.9-13.9,12.9v31.6h-15V-99.8z"/>
	</g>
	<g>
		<path class="st1" d="M-337.3-69.7h-12.1c-2.2,0-4.1-1.9-4.1-4.1c0-2.2,1.9-4.1,4.1-4.1h12.1c2.2,0,4.1,1.9,4.1,4.1
			S-335.1-69.7-337.3-69.7z M-332-92.2l-8.4-8.4c-1.6-1.6-1.6-4.2,0-5.8s4.2-1.5,5.8,0l8.4,8.4c1.6,1.6,1.6,4.2,0,5.8
			C-327.8-90.6-330.5-90.6-332-92.2z M-325.9-50l-8.4,8.4c-1.6,1.6-4.3,1.5-5.9-0.1c-1.5-1.6-1.5-4.2,0.1-5.8l8.4-8.4
			c1.6-1.6,4.3-1.6,5.8,0C-324.3-54.2-324.3-51.6-325.9-50z M-311.9-103.4v-12.1c0-2.2,1.9-4.1,4.1-4.1s4.1,1.9,4.1,4.1v12.1
			c0,2.2-1.9,4.1-4.1,4.1S-311.9-101.1-311.9-103.4z M-310.6-77.9c0-1.7,1.8-2.4,3-1.2l22.8,23.3c1.3,1.4,0.4,3.1-1.4,3.2l-8.7,0.2
			l7.3,16.7c0.4,0.9,0.2,2-0.8,2.4l-4.2,1.6c-1,0.4-1.9-0.2-2.3-1.1l-6.8-16.9l-6,6.1c-1.2,1.2-3.3,0.6-3.3-1.2L-310.6-77.9z
			 M-289.8-97.6l8.4-8.4c1.6-1.6,4.3-1.6,5.8,0c1.6,1.6,1.6,4.3,0,5.8l-8.4,8.4c-1.6,1.6-4.3,1.6-5.8,0S-291.4-96-289.8-97.6z
			 M-278.2-77.9h12.1c2.2,0,4.1,1.9,4.1,4.1s-1.9,4.1-4.1,4.1h-12.1c-2.2,0-4.1-1.9-4.1-4.1C-282.3-76-280.5-77.9-278.2-77.9z"/>
	</g>
</g>
<g>
	<g>
		<path class="st1" d="M-1092.1-207.3l-25.3-48.1h19.9l14.3,29.9h1l14.2-29.9h19.9l-25.3,48.1v25.2h-18.7V-207.3z"/>
		<path class="st1" d="M-1047.5-202.1v-36.5h18v32.5c0,6.9,2.6,10.7,8.7,10.7c6.1,0,9.5-4.4,9.5-10.9v-32.3h18v56.6h-18v-8.8h-1
			c-2.4,6.2-8.2,10.2-16.2,10.2C-1041-180.7-1047.5-188.5-1047.5-202.1z"/>
		<path class="st1" d="M-992.1-163.1v-13c0.6,0.1,1.4,0.1,2.1,0.1c4.6,0,6.6-1.5,6.6-5.4v-57.3h18v57.9c0,11.5-7.7,17.8-21.5,17.8
			C-988.6-162.9-991.1-163-992.1-163.1z M-984-255.6c0-5.2,4.4-9.4,9.6-9.4c5.3,0,9.6,4.2,9.6,9.4c0,5.2-4.3,9.4-9.6,9.4
			C-979.6-246.2-984-250.3-984-255.6z"/>
		<path class="st1" d="M-956-255.6c0-5.2,4.3-9.4,9.6-9.4c5.2,0,9.6,4.2,9.6,9.4c0,5.2-4.3,9.4-9.6,9.4S-956-250.3-956-255.6z
			 M-955.5-238.6h18v56.6h-18V-238.6z"/>
		<path class="st1" d="M-927.6-238.6h18v8.8h1c2.4-6.2,8.1-10.2,16.1-10.2c12.6,0,19.1,7.8,19.1,21.3v36.5h-18v-32.5
			c0-6.9-2.8-10.7-8.9-10.7c-5.8,0-9.3,4.4-9.3,10.9v32.3h-18L-927.6-238.6L-927.6-238.6z"/>
		<path class="st1" d="M-841.1-255.4h18.7v58.3h31.2v15H-841v-73.3H-841.1z"/>
		<path class="st1" d="M-788.8-210.3L-788.8-210.3c0-18.3,10.8-29.6,27.9-29.6c17,0,27.9,11.2,27.9,28.5v5.2h-38.1
			c0.2,8.1,4.3,12.8,11.2,12.8c6,0,9.1-3.5,9.9-4.9l0.1-0.2l16.5-0.1l-0.2,0.6c-1.6,6.8-8.5,17.4-26.7,17.4
			C-778-180.7-788.8-192-788.8-210.3z M-770.9-216.8h20.8c-0.9-6.8-4.8-10.4-10.4-10.4C-766-227.1-770.1-223.4-770.9-216.8z"/>
		<path class="st1" d="M-728.8-210.3L-728.8-210.3c0-18.3,10.8-29.6,27.9-29.6c17,0,27.9,11.2,27.9,28.5v5.2h-38.1
			c0.2,8.1,4.3,12.8,11.2,12.8c6,0,9.1-3.5,9.9-4.9l0.1-0.2l16.5-0.1l-0.2,0.6c-1.6,6.8-8.5,17.4-26.7,17.4
			C-718-180.7-728.8-192-728.8-210.3z M-710.9-216.8h20.8c-0.9-6.8-4.8-10.4-10.4-10.4C-706.1-227.1-710.1-223.4-710.9-216.8z"/>
	</g>
	<g>
		<path class="st1" d="M-519-255.6c0-5.2,4.3-9.4,9.6-9.4c5.2,0,9.6,4.2,9.6,9.4c0,5.2-4.3,9.4-9.6,9.4
			C-514.6-246.2-519-250.3-519-255.6z M-518.4-238.6h18v56.6h-18V-238.6z"/>
		<path class="st1" d="M-493.2-197.9v-0.4h17.5l0.1,0.3c1.1,2.9,3.9,5.1,9.1,5.1c4.8,0,7.9-1.9,7.9-4.9v-0.1c0-2.6-1.9-4.2-7.1-5.2
			l-9.8-1.9c-10.9-2.2-16.5-7.9-16.5-16.5v-0.1c0-11.3,9.7-18.3,24.9-18.3c16.4,0,24.6,8.1,24.9,17.2v0.3h-16.5l-0.1-0.4
			c-0.6-2.3-3.4-5-8.3-5c-4.5,0-7.5,1.9-7.5,5v0.1c0,2.5,1.7,4,7.1,5.1l9.8,1.9c11.7,2.3,17,7.1,17,15.6v0.1
			c0,11.7-10.6,19.3-25.9,19.3C-483.3-180.7-492.1-188.1-493.2-197.9z"/>
		<path class="st1" d="M-414.9-198.3v-0.1c0-10.3,8-16.2,22.6-17.1l12.4-0.7v-4.4c0-3.8-2.8-6.1-7.8-6.1c-4.7,0-7.6,1.6-8.7,4.4
			l-0.1,0.3h-16.3l0.1-0.6c1-10.4,10.8-17.3,26.1-17.3c15.6,0,24.5,7.1,24.5,19.3v38.6h-17.7v-7h-1c-2.5,4.8-8.5,7.9-15.8,7.9
			C-407.5-181.2-414.9-188-414.9-198.3z M-390-193.8c5.7,0,10.1-3.8,10.1-8.6v-3.7l-9.5,0.6c-5.3,0.4-8.1,2.5-8.1,5.8v0.1
			C-397.6-196-394.6-193.8-390-193.8z"/>
	</g>
	<g>
		<path class="st1" d="M-645.5-212.3c0-21.8,18-39.8,39.8-39.8s39.9,18,39.9,39.8s-18,39.8-39.8,39.8
			C-627.4-172.4-645.5-190.5-645.5-212.3z M-572.4-212.3c0-18.4-14.8-33.2-33.2-33.2s-33.1,14.8-33.1,33.2s14.7,33.2,33.2,33.2
			S-572.4-193.8-572.4-212.3z M-621.8-221.1c0-3.2,2.1-5.4,4.6-5.4s4.6,2.2,4.6,5.4c0,3.1-2.2,5.4-4.6,5.4S-621.8-218-621.8-221.1z
			 M-619.3-200.7c0-0.9,0.9-1.4,1.8-1c2.8,1.5,6.2,3.3,11.9,3.3s9.1-1.8,11.9-3.3c0.8-0.4,1.7,0,1.7,1c0,2.6-5.5,8-13.6,8
			S-619.3-198.1-619.3-200.7z M-598.7-221.1c0-3.2,2.1-5.4,4.6-5.4s4.6,2.2,4.6,5.4c0,3.1-2.2,5.4-4.6,5.4S-598.7-218-598.7-221.1z"
			/>
	</g>
</g>
<rect x="-55.8" class="st1" width="26.2" height="125"/>
<rect x="68.2" y="143.1" class="st1" width="26.2" height="125"/>
<rect x="37.1" y="125" width="26.2" height="18.1"/>
<g>
	<g>
		<g>
			<path class="st1" d="M-545.6,69.9l-30,30c-0.9,0.9-1.9,1.3-2.9,1.3c-2.2,0-3.9-1.6-3.9-3.9c0-1.1,0.4-2.2,1.1-2.8l10.1-10.3
				l15.2-13.9l-10.9,0.7h-57.2c-2.3,0-4-1.7-4-4c0-2.3,1.6-4,4-4h57.2l10.9,0.7l-15.2-13.9l-10.1-10.3c-0.7-0.7-1.1-1.8-1.1-2.8
				c0-2.3,1.7-3.9,3.9-3.9c1.1,0,2,0.4,3,1.4l30,29.9c0.9,0.9,1.4,1.9,1.4,3C-544.2,68-544.7,69.1-545.6,69.9z"/>
		</g>
		<g>
			<g>
				<path class="st1" d="M-257.9,32.8c7.5,0,13.6,3.6,17.2,9c3.7-5.4,9.7-9,17.2-9c13.1,0,22.9,10.1,22.9,24.4
					c0,17.2-14.4,34.1-37.1,48.6c-0.9,0.5-2.1,1.1-2.9,1.1c-0.8,0-2.1-0.6-2.9-1.1c-22.9-14.5-37.3-31.4-37.3-48.6
					C-280.8,42.9-271,32.8-257.9,32.8z M-241.5,99.6c0.4,0.3,0.6,0.5,0.8,0.5s0.4-0.2,0.8-0.5c16.9-11.2,32.7-27.4,32.7-42.4
					c0-10.7-6.9-17.9-16.3-17.9c-7.5,0-11.7,4.8-14.5,8.8c-1.2,1.6-1.8,2.1-2.7,2.1c-1,0-1.7-0.4-2.7-2.1c-2.6-4-6.9-8.8-14.5-8.8
					c-9.4,0-16.3,7.1-16.3,17.9C-274.3,72.2-258.5,88.4-241.5,99.6z"/>
			</g>
		</g>
		<g>
			<path class="st1" d="M-512.6,26.9h13.1v62.3h33.6v11h-46.8V26.9z"/>
			<path class="st1" d="M-462.4,72.5v-0.1c0-17.8,10.2-28.8,26.7-28.8c16.6,0,26.7,10.9,26.7,28.8v0.1c0,18-10.1,28.9-26.7,28.9
				C-452.4,101.4-462.4,90.5-462.4,72.5z M-421.9,72.5v-0.1c0-11.7-5-18.6-13.8-18.6c-8.8,0-13.8,6.9-13.8,18.6v0.1
				c0,11.7,5,18.6,13.8,18.6S-421.9,84.2-421.9,72.5z"/>
			<path class="st1" d="M-407.4,44.7h13.5l12.9,43.2h0.9l12.8-43.2h13.3l-19.7,55.6h-13.9L-407.4,44.7z"/>
			<path class="st1" d="M-352.6,72.6L-352.6,72.6c0-17.5,10.1-29,25.9-29c15.8,0,25.6,11.1,25.6,27.9v4.2h-38.8
				c0.2,10,5.5,15.8,14.1,15.8c6.9,0,10.8-3.5,12-6l0.2-0.4h12l-0.2,0.5c-1.8,7.2-9.2,15.9-24.3,15.9
				C-342.6,101.4-352.6,90.3-352.6,72.6z M-339.8,67.2h26.4c-0.9-9.1-6-13.6-13.1-13.6C-333.6,53.5-338.9,58.3-339.8,67.2z"/>
		</g>
	</g>
	<g>
		<path class="st1" d="M-1279,26.3h13.7l12.6,55h0.8l14.4-55h11.6l14.6,55h0.7l12.6-55h13.6l-19.7,73.3h-12.3l-14.9-52.5h-0.8
			l-14.8,52.5h-12.4L-1279,26.3z"/>
		<path class="st1" d="M-1175.9,22.6h12.7v30h0.9c2.6-5.9,8-9.6,16-9.6c12.4,0,19.2,7.5,19.2,20.7v35.9h-12.7v-33
			c0-8.6-3.5-13-11.2-13c-7.5,0-12.2,5.3-12.2,13.6v32.4h-12.7V22.6z"/>
		<path class="st1" d="M-1119.2,71.9v-0.1c0-17.8,10.2-28.8,26.7-28.8c16.6,0,26.7,10.9,26.7,28.8v0.1c0,18-10.1,28.9-26.7,28.9
			C-1109.1,100.8-1119.2,89.9-1119.2,71.9z M-1078.6,71.9v-0.1c0-11.7-5-18.6-13.8-18.6c-8.8,0-13.8,6.9-13.8,18.6v0.1
			c0,11.7,5,18.6,13.8,18.6S-1078.6,83.6-1078.6,71.9z"/>
		<path class="st1" d="M-1032.3,26.3h30.6c13.9,0,22.3,7,22.3,18.2v0.1c0,7.7-5.7,14.5-13.1,15.7v0.9c9.9,0.9,16.7,8,16.7,17.5v0.1
			c0,12.9-9.6,20.8-25.2,20.8h-31.4V26.3z M-1019.2,36.5v20.7h12.7c9.3,0,14.2-3.6,14.2-10.3v-0.1c0-6.5-4.6-10.3-12.6-10.3H-1019.2
			z M-1019.2,66.5v22.9h15.2c9.7,0,14.8-4,14.8-11.5v-0.1c0-7.4-5.3-11.3-15.3-11.3H-1019.2z"/>
		<path class="st1" d="M-969.7,72L-969.7,72c0-17.5,10.1-29,25.9-29c15.8,0,25.6,11.1,25.6,27.9V75h-38.8c0.2,10,5.5,15.8,14.1,15.8
			c6.9,0,10.8-3.5,12-6l0.2-0.4h12l-0.2,0.5c-1.8,7.2-9.2,15.9-24.3,15.9C-959.7,100.8-969.7,89.7-969.7,72z M-957,66.6h26.4
			c-0.9-9.1-6-13.6-13.1-13.6C-950.7,52.9-956,57.7-957,66.6z"/>
		<path class="st1" d="M-909.2,22.6h12.7v77.1h-12.7V22.6z"/>
		<path class="st1" d="M-885.8,27.3c0-4.1,3.4-7.5,7.6-7.5c4.1,0,7.5,3.4,7.5,7.5c0,4.2-3.4,7.5-7.5,7.5
			C-882.4,34.8-885.8,31.5-885.8,27.3z M-884.6,44.1h12.7v55.6h-12.7V44.1z"/>
		<path class="st1" d="M-863.3,72L-863.3,72c0-17.5,10.1-29,25.9-29c15.8,0,25.6,11.1,25.6,27.9V75h-38.8c0.2,10,5.5,15.8,14.1,15.8
			c6.9,0,10.8-3.5,12-6l0.2-0.4h12l-0.2,0.5c-1.8,7.2-9.2,15.9-24.3,15.9C-853.3,100.8-863.3,89.7-863.3,72z M-850.6,66.6h26.4
			c-0.9-9.1-6-13.6-13.1-13.6C-844.3,52.9-849.6,57.7-850.6,66.6z"/>
		<path class="st1" d="M-809.5,44.1h13.5l12.9,43.2h0.9l12.8-43.2h13.3l-19.7,55.6h-13.9L-809.5,44.1z"/>
		<path class="st1" d="M-754.6,72L-754.6,72c0-17.5,10.1-29,25.9-29c15.8,0,25.6,11.1,25.6,27.9V75H-742c0.2,10,5.5,15.8,14.1,15.8
			c6.9,0,10.8-3.5,12-6l0.2-0.4h12l-0.2,0.5c-1.8,7.2-9.2,15.9-24.3,15.9C-744.6,100.8-754.6,89.7-754.6,72z M-741.9,66.6h26.4
			c-0.9-9.1-6-13.6-13.1-13.6C-735.6,52.9-740.9,57.7-741.9,66.6z"/>
		<path class="st1" d="M-697.4,84.8v-0.1h12.6l0.1,0.1c1.3,3.9,5,6.6,11.3,6.6s10.7-2.8,10.7-7v-0.1c0-3.3-2.4-5.4-8.5-6.8l-9-2
			c-10.6-2.3-15.6-7.3-15.6-15.5v-0.1c0-10,9.1-16.9,22.3-16.9c13.5,0,21.6,6.7,22.4,15.7v0.1h-11.9l-0.1-0.2
			c-0.9-3.5-4.6-6.4-10.5-6.4c-5.6,0-9.7,2.7-9.7,6.9v0.1c0,3.3,2.3,5.2,8.3,6.6l9,2c10.9,2.4,16,7.1,16,15.1v0.1
			c0,10.6-9.9,17.6-23.6,17.6C-687.8,100.8-696.3,94.3-697.4,84.8z"/>
	</g>
</g>
<g>
	<g>
		<path class="st1" d="M107.7-423.5h43.5v6.3h-36.5v27.5h33.6v6.2h-33.6v33.3h-7C107.7-350.2,107.7-423.5,107.7-423.5z"/>
		<path class="st1" d="M158.6-377.5v-0.1c0-17.4,9.6-28.2,24.9-28.2s24.9,10.8,24.9,28.2v0.1c0,17.4-9.6,28.3-24.9,28.3
			C168.2-349.3,158.6-360.1,158.6-377.5z M201.5-377.5v-0.1c0-13.8-6.7-22.2-18-22.2s-18,8.4-18,22.2v0.1c0,13.8,6.7,22.3,18,22.3
			C194.8-355.3,201.5-363.7,201.5-377.5z"/>
		<path class="st1" d="M218.6-404.9h6.7v9h0.7c2.1-6.3,7.5-9.9,14.9-9.9c2,0,3.8,0.2,5.1,0.5v6.6c-2-0.5-3.8-0.7-5.8-0.7
			c-8.5,0-14.8,6.3-14.8,15.1v34.2h-6.7L218.6-404.9L218.6-404.9z"/>
		<path class="st1" d="M278-423.5h7v32.6h42.9v-32.6h7v73.3h-7v-34.4H285v34.4h-7V-423.5z"/>
		<path class="st1" d="M348.2-369.4V-405h6.7v33.9c0,10.2,4.7,15.8,14.1,15.8c10.2,0,16.3-6.8,16.3-17.1v-32.5h6.7v54.7h-6.7v-9.6
			h-0.6c-2.7,6.6-8.8,10.5-17.3,10.5C355.1-349.3,348.2-356.8,348.2-369.4z"/>
		<path class="st1" d="M405.1-404.9h6.7v9.7h0.7c2.3-6.6,8-10.6,15.5-10.6c7.7,0,13.2,4.2,15.5,10.8h0.7c2.8-6.6,9.2-10.8,17.1-10.8
			c11,0,17.3,6.6,17.3,18.2v37.5h-6.8V-386c0-8.9-4.3-13.7-12.6-13.7c-8.4,0-14.1,6.5-14.1,14.9v34.7h-6.7v-36.6c0-7.9-5-13-12.6-13
			c-7.9,0-14,7.1-14,16.1v33.6h-6.7V-404.9z"/>
		<path class="st1" d="M487.8-365.3v-0.1c0-9.5,7.1-15,19.7-15.9l17.1-1.1v-5.1c0-8-4.9-12.3-13.7-12.3c-7.4,0-12.7,3-14.1,8.4
			l-0.1,0.1H490l0.1-0.2c1.4-8.7,9.7-14.3,21-14.3c12.8,0,20.3,6.7,20.3,18.2v37.4h-6.8v-9.4H524c-3.3,6.5-9.8,10.3-17.9,10.3
			C495.5-349.3,487.8-355.5,487.8-365.3z M507.3-355.2c9.8,0,17.2-6.7,17.2-15.4v-6.4l-16.2,1.1c-9.3,0.6-13.8,4.1-13.8,10.3v0.1
			C494.6-359.1,500-355.2,507.3-355.2z"/>
		<path class="st1" d="M544-404.9h6.7v9.6h0.7c2.9-6.6,8.8-10.5,17.3-10.5c12.2,0,19.2,7.3,19.2,20.1v35.6h-6.7V-384
			c0-10.4-4.7-15.8-14.2-15.8c-9.7,0-16.2,6.8-16.2,17.1v32.5H544V-404.9z"/>
	</g>
	<g>
		<g>
			<path class="st1" d="M708.4-387.4v-0.1c0-23.5,12.4-38.2,32.3-38.2c15.1,0,27.3,10,29.3,23.9l-0.1,0.1h-7l-0.1-0.1
				c-2.1-10.3-11.2-17.4-22.2-17.4c-15.3,0-25.2,12.4-25.2,31.7v0.1c0,19.4,9.8,31.7,25.2,31.7c11.3,0,20.1-6.3,22.2-15.9l0.1-0.1
				l7-0.1l0.1,0.1c-2.1,13.4-13.7,22.4-29.2,22.4C720.8-349.3,708.4-363.9,708.4-387.4z"/>
			<path class="st1" d="M777.1-365.9v-0.1c0-9.5,7.1-15,19.7-15.9l17.1-1.1v-5.1c0-8-4.9-12.3-13.7-12.3c-7.4,0-12.7,3-14.1,8.4
				l-0.1,0.1h-6.8l0.1-0.2c1.4-8.7,9.7-14.3,21-14.3c12.8,0,20.3,6.7,20.3,18.2v37.4h-6.8v-9.4h-0.6c-3.3,6.5-9.8,10.3-17.9,10.3
				C784.8-349.9,777.1-356.1,777.1-365.9z M796.7-355.8c9.8,0,17.2-6.7,17.2-15.4v-6.4l-16.2,1.1c-9.3,0.6-13.8,4.1-13.8,10.3v0.1
				C784-359.7,789.3-355.8,796.7-355.8z"/>
			<path class="st1" d="M833.3-405.5h6.7v9.6h0.7c2.9-6.6,8.8-10.5,17.3-10.5c12.2,0,19.2,7.3,19.2,20.1v35.6h-6.7v-33.9
				c0-10.4-4.7-15.8-14.2-15.8c-9.7,0-16.2,6.8-16.2,17.1v32.5h-6.7L833.3-405.5L833.3-405.5z"/>
			<path class="st1" d="M914.5-424.1h8l27,64.2h0.6l27-64.2h8v73.3h-6.5v-59.8h-0.5l-25.3,59.8h-6l-25.3-59.8H921v59.8h-6.5V-424.1z
				"/>
			<path class="st1" d="M995.8-365.9v-0.1c0-9.5,7.1-15,19.7-15.9l17.1-1.1v-5.1c0-8-4.9-12.3-13.7-12.3c-7.4,0-12.7,3-14.1,8.4
				l-0.1,0.1H998l0.1-0.2c1.4-8.7,9.7-14.3,21-14.3c12.8,0,20.3,6.7,20.3,18.2v37.4h-6.8v-9.4h-0.6c-3.3,6.5-9.8,10.3-17.9,10.3
				C1003.5-349.9,995.8-356.1,995.8-365.9z M1015.4-355.8c9.8,0,17.2-6.7,17.2-15.4v-6.4l-16.2,1.1c-9.3,0.6-13.8,4.1-13.8,10.3v0.1
				C1002.6-359.7,1008-355.8,1015.4-355.8z"/>
			<path class="st1" d="M1052.5-427.3h6.7v47.4h0.7l26.6-25.6h8.3l-24.7,23.2l25.8,31.6h-8.5l-22.1-27l-6.1,5.8v21.2h-6.7
				L1052.5-427.3L1052.5-427.3z"/>
			<path class="st1" d="M1098.4-378v-0.1c0-17.1,9.6-28.4,24.2-28.4c14.7,0,23.7,11,23.7,27.2v2.8h-41.1
				c0.2,12.8,7.2,20.5,18.1,20.5c8,0,13.5-3.8,15.2-8l0.2-0.4h6.8l-0.2,0.4c-2.1,7.4-10.1,14-22.2,14
				C1107.8-349.9,1098.4-360.8,1098.4-378z M1105.3-381.9h34.3c-0.8-12.1-7.5-18.6-16.9-18.6
				C1113.1-400.5,1106.1-393.7,1105.3-381.9z"/>
		</g>
	</g>
	<g>
		<path class="st1" d="M633.9-366l-5.9,16.3c-0.7,1.8-2.4,2.4-3.9,1.9c-1.6-0.5-2.4-2.3-1.8-3.9l6-16.5l6-16.4v-14.9
			c0-0.7-0.4-1.3-1-1.6l-20.2-10.8c-1.5-0.8-2.1-2.6-1.3-4.1s2.6-2,4.1-1.2l19.5,10.3c2.2,1.1,4.3,1.7,6.5,1.7
			c2.1,0,4.3-0.5,6.4-1.7l19.5-10.3c1.5-0.8,3.3-0.2,4.1,1.2c0.8,1.5,0.2,3.3-1.3,4.1l-20.2,10.8c-0.6,0.3-1,0.9-1,1.6v14.9l6,16.4
			l6,16.5c0.5,1.6-0.2,3.4-1.8,3.9c-1.5,0.5-3.3,0-3.9-1.9l-5.9-16.3l-7.9-12.5L633.9-366z M634.8-416.1c0-3.9,3.2-7,7.1-7
			c3.9,0,7,3.2,7,7c0,3.9-3.2,7.1-7,7.1C637.9-408.9,634.8-412.1,634.8-416.1z"/>
	</g>
</g>
<g>
	<g>
		<g>
			<path class="st1" d="M821.2-760.3l-30,30c-0.9,0.9-1.9,1.3-2.9,1.3c-2.2,0-3.9-1.6-3.9-3.9c0-1.1,0.4-2.2,1.1-2.8l10.1-10.3
				l15.2-13.9l-10.9,0.7h-57.2c-2.3,0-4-1.7-4-4c0-2.3,1.6-4,4-4h57.2l10.9,0.7l-15.2-13.9l-10.1-10.3c-0.7-0.7-1.1-1.8-1.1-2.8
				c0-2.3,1.7-3.9,3.9-3.9c1.1,0,2,0.4,3,1.4l30,29.9c0.9,0.9,1.4,1.9,1.4,3C822.6-762.2,822.1-761.1,821.2-760.3z"/>
		</g>
		<g>
			<g>
				<path class="st1" d="M1108.9-797.4c7.5,0,13.6,3.6,17.2,9c3.7-5.4,9.7-9,17.2-9c13.1,0,22.9,10.1,22.9,24.4
					c0,17.2-14.4,34.1-37.1,48.6c-0.9,0.5-2.1,1.1-2.9,1.1c-0.8,0-2.1-0.6-2.9-1.1c-22.9-14.5-37.3-31.4-37.3-48.6
					C1086-787.3,1095.8-797.4,1108.9-797.4z M1125.3-730.6c0.4,0.3,0.6,0.5,0.8,0.5c0.2,0,0.4-0.2,0.8-0.5
					c16.9-11.2,32.7-27.4,32.7-42.4c0-10.7-6.9-17.9-16.3-17.9c-7.5,0-11.7,4.8-14.5,8.8c-1.2,1.6-1.8,2.1-2.7,2.1
					c-1,0-1.7-0.4-2.7-2.1c-2.6-4-6.9-8.8-14.5-8.8c-9.4,0-16.3,7.1-16.3,17.9C1092.5-758,1108.3-741.8,1125.3-730.6z"/>
			</g>
		</g>
		<g>
			<path class="st1" d="M854.2-803.3h13.1v62.3H901v11h-46.8V-803.3z"/>
			<path class="st1" d="M904.4-757.7v-0.1c0-17.8,10.2-28.8,26.7-28.8c16.6,0,26.7,10.9,26.7,28.8v0.1c0,18-10.1,28.9-26.7,28.9
				C914.4-728.8,904.4-739.7,904.4-757.7z M944.9-757.6v-0.1c0-11.7-5-18.6-13.8-18.6c-8.8,0-13.8,6.9-13.8,18.6v0.1
				c0,11.7,5,18.6,13.8,18.6S944.9-745.9,944.9-757.6z"/>
			<path class="st1" d="M959.4-785.5h13.5l12.9,43.2h0.9l12.8-43.2h13.3L993-729.9h-13.9L959.4-785.5z"/>
			<path class="st1" d="M1014.2-757.6L1014.2-757.6c0-17.5,10.1-29,25.9-29c15.8,0,25.6,11.1,25.6,27.9v4.2h-38.8
				c0.2,10,5.5,15.8,14.1,15.8c6.9,0,10.8-3.5,12-6l0.2-0.4h12l-0.2,0.5c-1.8,7.2-9.2,15.9-24.3,15.9
				C1024.2-728.8,1014.2-739.9,1014.2-757.6z M1027-763h26.4c-0.9-9.1-6-13.6-13.1-13.6C1033.2-776.6,1027.9-771.9,1027-763z"/>
		</g>
	</g>
	<g>
		<path class="st1" d="M87.8-803.9h13.7l12.6,55h0.8l14.4-55h11.6l14.6,55h0.7l12.6-55h13.6l-19.7,73.3h-12.3L135.5-783h-0.8
			l-14.8,52.5h-12.4L87.8-803.9z"/>
		<path class="st1" d="M190.9-807.6h12.7v30h0.9c2.6-5.9,8-9.6,16-9.6c12.4,0,19.2,7.5,19.2,20.7v35.9H227v-33c0-8.6-3.5-13-11.2-13
			c-7.5,0-12.2,5.3-12.2,13.6v32.4h-12.7V-807.6z"/>
		<path class="st1" d="M247.6-758.3v-0.1c0-17.8,10.2-28.8,26.7-28.8c16.6,0,26.7,10.9,26.7,28.8v0.1c0,18-10.1,28.9-26.7,28.9
			C257.7-729.4,247.6-740.3,247.6-758.3z M288.2-758.2v-0.1c0-11.7-5-18.6-13.8-18.6c-8.8,0-13.8,6.9-13.8,18.6v0.1
			c0,11.7,5,18.6,13.8,18.6S288.2-746.5,288.2-758.2z"/>
		<path class="st1" d="M334.5-803.9h30.6c13.9,0,22.3,7,22.3,18.2v0.1c0,7.7-5.7,14.5-13.1,15.7v0.9c9.9,0.9,16.7,8,16.7,17.5v0.1
			c0,12.9-9.6,20.8-25.2,20.8h-31.4V-803.9z M347.6-793.7v20.7h12.7c9.3,0,14.2-3.6,14.2-10.3v-0.1c0-6.5-4.6-10.3-12.6-10.3H347.6z
			 M347.6-763.7v22.9h15.2c9.7,0,14.8-4,14.8-11.5v-0.1c0-7.4-5.3-11.3-15.3-11.3H347.6z"/>
		<path class="st1" d="M397.1-758.2L397.1-758.2c0-17.5,10.1-29,25.9-29c15.8,0,25.6,11.1,25.6,27.9v4.2h-38.8
			c0.2,10,5.5,15.8,14.1,15.8c6.9,0,10.8-3.5,12-6l0.2-0.4h12l-0.2,0.5c-1.8,7.2-9.2,15.9-24.3,15.9
			C407.1-729.4,397.1-740.5,397.1-758.2z M409.8-763.6h26.4c-0.9-9.1-6-13.6-13.1-13.6C416.1-777.2,410.8-772.5,409.8-763.6z"/>
		<path class="st1" d="M457.6-807.6h12.7v77.1h-12.7V-807.6z"/>
		<path class="st1" d="M481-802.9c0-4.1,3.4-7.5,7.6-7.5c4.1,0,7.5,3.4,7.5,7.5c0,4.2-3.4,7.5-7.5,7.5
			C484.4-795.4,481-798.7,481-802.9z M482.2-786.1h12.7v55.6h-12.7V-786.1z"/>
		<path class="st1" d="M503.5-758.2L503.5-758.2c0-17.5,10.1-29,25.9-29c15.8,0,25.6,11.1,25.6,27.9v4.2h-38.8
			c0.2,10,5.5,15.8,14.1,15.8c6.9,0,10.8-3.5,12-6l0.2-0.4h12l-0.2,0.5c-1.8,7.2-9.2,15.9-24.3,15.9
			C513.5-729.4,503.5-740.5,503.5-758.2z M516.2-763.6h26.4c-0.9-9.1-6-13.6-13.1-13.6C522.5-777.2,517.2-772.5,516.2-763.6z"/>
		<path class="st1" d="M557.3-786.1h13.5l12.9,43.2h0.9l12.8-43.2h13.3L591-730.5h-13.9L557.3-786.1z"/>
		<path class="st1" d="M612.2-758.2L612.2-758.2c0-17.5,10.1-29,25.9-29c15.8,0,25.6,11.1,25.6,27.9v4.2h-38.8
			c0.2,10,5.5,15.8,14.1,15.8c6.9,0,10.8-3.5,12-6l0.2-0.4h12l-0.2,0.5c-1.8,7.2-9.2,15.9-24.3,15.9
			C622.2-729.4,612.2-740.5,612.2-758.2z M624.9-763.6h26.4c-0.9-9.1-6-13.6-13.1-13.6C631.2-777.2,625.9-772.5,624.9-763.6z"/>
		<path class="st1" d="M669.4-745.3v-0.1h12.6l0.1,0.1c1.3,3.9,5,6.6,11.3,6.6s10.7-2.8,10.7-7v-0.1c0-3.3-2.4-5.4-8.5-6.8l-9-2
			c-10.6-2.3-15.6-7.3-15.6-15.5v-0.1c0-10,9.1-16.9,22.3-16.9c13.5,0,21.6,6.7,22.4,15.7v0.1h-11.9l-0.1-0.2
			c-0.9-3.5-4.6-6.4-10.5-6.4c-5.6,0-9.7,2.7-9.7,6.9v0.1c0,3.3,2.3,5.2,8.3,6.6l9,2c10.9,2.4,16,7.1,16,15.1v0.1
			c0,10.6-9.9,17.6-23.6,17.6C679-729.4,670.5-735.9,669.4-745.3z"/>
	</g>
</g>
<g>
	<rect class="st3" width="1254" height="125"/>
	<g>
		<g>
			<path class="st1" d="M198.5,22.5H229c15.6,0,26,10,26,25.3v0.1c0,15.2-10.4,25.3-26,25.3h-15v23.3h-15.5V22.5z M213.9,34.7V61
				h11.2c8.9,0,14.1-4.7,14.1-13.1v-0.1c0-8.4-5.2-13.1-14.1-13.1L213.9,34.7L213.9,34.7z"/>
			<path class="st1" d="M263.5,40h15v8.8h0.9c1.8-6.1,6.9-9.7,14.3-9.7c2,0,4.1,0.3,5.6,0.7V53c-2.3-0.5-4.6-0.9-6.9-0.9
				c-8.5,0-13.9,4.9-13.9,12.9v31.6h-15V40z"/>
			<path class="st1" d="M301,68.2L301,68.2c0-18.3,10.6-29.5,27.8-29.5s27.8,11.1,27.8,29.4v0.1c0,18.4-10.5,29.4-27.8,29.4
				S301,86.7,301,68.2z M341.3,68.2L341.3,68.2c0-11.1-4.6-17.7-12.5-17.7s-12.5,6.6-12.5,17.6v0.1c0,11.1,4.5,17.6,12.5,17.6
				C336.7,85.9,341.3,79.4,341.3,68.2z"/>
			<path class="st1" d="M361.8,68.2L361.8,68.2c0-18.2,8.6-29.2,22.9-29.2c7.7,0,14,3.8,16.9,9.9h0.9V18.3h15v78h-15v-8.8h-0.9
				c-2.9,6.1-8.9,9.6-16.9,9.6C370.6,97.4,361.8,86.4,361.8,68.2z M402.7,68.4v-0.1c0-10.4-5-16.7-12.9-16.7
				c-7.9,0-12.8,6.4-12.8,16.7v0.1c0,10.4,4.9,16.7,12.8,16.7C397.8,84.9,402.7,78.7,402.7,68.4z"/>
			<path class="st1" d="M428.3,76.6V40h15v33.1c0,8,3,12.2,10.1,12.2c7.4,0,11.4-5,11.4-12.6V40.1h15v56.4h-15v-8.7h-0.9
				c-2.6,6.2-8.3,9.9-16.4,9.9C434.8,97.7,428.3,89.9,428.3,76.6z"/>
			<path class="st1" d="M487.7,68.2v-0.1c0-18.6,9.9-29.3,27.6-29.3c15,0,23.8,8.2,25.2,20.8v0.2h-13.9l-0.1-0.1
				c-1-5.5-4.7-9.1-11.1-9.1c-8,0-12.5,6.3-12.5,17.5v0.1c0,11.4,4.5,17.7,12.5,17.7c6.2,0,9.8-2.9,11.1-8.6l0.1-0.2h13.8l-0.1,0.3
				c-1.5,12.3-10.4,20.2-25.1,20.2C497.7,97.7,487.7,86.9,487.7,68.2z"/>
			<path class="st1" d="M552.6,81.2V51.4h-8.7V40h8.7V26.5h15.1V40h11.6v11.3h-11.6v26.5c0,5.1,2.2,7.3,7.2,7.3c1.9,0,3-0.1,4.4-0.3
				v11.1c-1.8,0.4-4.6,0.7-7.5,0.7C558.1,96.7,552.6,92.2,552.6,81.2z"/>
			<path class="st1" d="M611.9,22.5H641c22,0,34.7,13.3,34.7,36.5v0.1c0,23.9-12.6,37.4-34.7,37.4h-29.1V22.5z M638.6,83.7
				c13.7,0,21.4-8.6,21.4-24.4v-0.1c0-15.2-7.9-23.9-21.4-23.9h-11.2v48.4C627.4,83.7,638.6,83.7,638.6,83.7z"/>
			<path class="st1" d="M682,68.4L682,68.4c0-18,10.5-29.5,27-29.5s26.7,11.3,26.7,28.4v4.7h-38.9c0.2,9.3,5.1,14.7,13.1,14.7
				c6.6,0,10.2-3.5,11.2-5.6l0.2-0.3h13.9l-0.1,0.5c-1.7,7.1-9,16.6-25.5,16.6C692.4,97.7,682,86.4,682,68.4z M696.9,62.5h24.4
				c-0.9-8.2-5.6-12.4-12.1-12.4S697.9,54.5,696.9,62.5z"/>
			<path class="st1" d="M741,81.1l-0.1-0.2h14.7l0.1,0.2c1.2,3.5,4.6,6,10.5,6c5.7,0,9.6-2.5,9.6-6.2v-0.1c0-3-2.3-4.9-8-6.2l-9.4-2
				c-10.8-2.3-16.1-7.6-16.1-16v-0.1c0-10.6,9.4-17.7,23.5-17.7c14.8,0,23,7.4,23.6,16.5v0.2h-13.9l-0.1-0.3c-0.8-3-4.2-5.8-9.7-5.8
				c-5.2,0-8.9,2.4-8.9,6.2v0.1c0,3,2.1,4.8,7.9,6l9.4,2c11.3,2.4,16.6,7.1,16.6,15.5v0.1c0,11.2-10.3,18.5-24.8,18.5
				C750.8,97.7,742.1,90.8,741,81.1z"/>
			<path class="st1" d="M798.1,23c0-4.7,3.8-8.4,8.5-8.4s8.4,3.7,8.4,8.4c0,4.6-3.8,8.3-8.4,8.3S798.1,27.7,798.1,23z M799,40h15
				v56.4h-15V40z"/>
			<path class="st1" d="M823.8,100.2v-0.3h14.8l0.1,0.2c0.8,3.3,4.7,5.5,11.4,5.5c8,0,12.7-3.7,12.7-10.3V84.8h-0.9
				c-3.1,5.9-9.1,9.2-16.9,9.2c-14.2,0-23-11-23-27v-0.1c0-16.6,8.8-27.8,23.2-27.8c7.7,0,13.8,3.8,16.8,10.2h0.7V40h15v54.7
				c0,13.2-10.8,21.6-27.9,21.6C834.2,116.4,825.1,109.8,823.8,100.2z M862.9,66.9L862.9,66.9c0-9.4-4.9-15.7-12.9-15.7
				s-12.7,6.3-12.7,15.6v0.1c0,9.3,4.6,15.6,12.7,15.6S862.9,76.2,862.9,66.9z"/>
			<path class="st1" d="M888.5,40h15v8.7h0.9c2.6-6.1,8.2-9.9,16.2-9.9c12.6,0,19.3,7.7,19.3,21.2v36.5h-15V63.4
				c0-7.9-3.3-12.2-10.4-12.2c-6.9,0-11.1,5-11.1,12.6v32.7h-15L888.5,40L888.5,40z"/>
			<path class="st1" d="M947.4,68.4L947.4,68.4c0-18,10.5-29.5,27-29.5s26.7,11.3,26.7,28.4v4.7h-38.9c0.2,9.3,5.1,14.7,13.1,14.7
				c6.6,0,10.2-3.5,11.2-5.6l0.2-0.3h13.9l-0.1,0.5c-1.7,7.1-9,16.6-25.5,16.6C957.8,97.7,947.4,86.4,947.4,68.4z M962.3,62.5h24.4
				c-0.9-8.2-5.6-12.4-12.1-12.4C968.1,50,963.3,54.5,962.3,62.5z"/>
			<path class="st1" d="M1009,40h15v8.8h0.9c1.8-6.1,6.9-9.7,14.3-9.7c2,0,4.1,0.3,5.6,0.7V53c-2.3-0.5-4.6-0.9-6.9-0.9
				c-8.5,0-13.9,4.9-13.9,12.9v31.6h-15V40z"/>
		</g>
		<g>
			<path class="st1" d="M1078.7,70.2h-12.1c-2.2,0-4.1-1.9-4.1-4.1c0-2.2,1.9-4.1,4.1-4.1h12.1c2.2,0,4.1,1.9,4.1,4.1
				C1082.8,68.3,1080.9,70.2,1078.7,70.2z M1084,47.7l-8.4-8.4c-1.6-1.6-1.6-4.2,0-5.8c1.6-1.6,4.2-1.5,5.8,0l8.4,8.4
				c1.6,1.6,1.6,4.2,0,5.8C1088.2,49.2,1085.5,49.2,1084,47.7z M1090.1,89.9l-8.4,8.4c-1.6,1.6-4.3,1.5-5.9-0.1
				c-1.5-1.6-1.5-4.2,0.1-5.8l8.4-8.4c1.6-1.6,4.3-1.6,5.8,0C1091.7,85.7,1091.7,88.2,1090.1,89.9z M1104.1,36.5V24.4
				c0-2.2,1.9-4.1,4.1-4.1c2.2,0,4.1,1.9,4.1,4.1v12.1c0,2.2-1.9,4.1-4.1,4.1C1106,40.6,1104.1,38.7,1104.1,36.5z M1105.4,62
				c0-1.7,1.8-2.4,3-1.2l22.8,23.3c1.3,1.4,0.4,3.1-1.4,3.2l-8.7,0.2l7.3,16.7c0.4,0.9,0.2,2-0.8,2.4l-4.2,1.6
				c-1,0.4-1.9-0.2-2.3-1.1l-6.8-16.9l-6,6.1c-1.2,1.2-3.3,0.6-3.3-1.2L1105.4,62z M1126.2,42.2l8.4-8.4c1.6-1.6,4.3-1.6,5.8,0
				c1.6,1.6,1.6,4.3,0,5.8L1132,48c-1.6,1.6-4.3,1.6-5.8,0S1124.6,43.9,1126.2,42.2z M1137.8,62h12.1c2.2,0,4.1,1.9,4.1,4.1
				c0,2.2-1.9,4.1-4.1,4.1h-12.1c-2.2,0-4.1-1.9-4.1-4.1C1133.7,63.9,1135.5,62,1137.8,62z"/>
		</g>
	</g>
</g>
</svg>
